<svg xmlns="http://www.w3.org/2000/svg" width="24" height="24" viewBox="0 0 24 24"><g><g transform="rotate(180 12 12)"><path fill="#fff" d="M9.143 13.279c.755 2.647 1.598 4.715 2.53 6.203.93 1.488 2.047 2.232 3.347 2.232 2.94 0 4.409-3.519 4.409-10.557 0-6.676-1.406-10.014-4.216-10.014-2.44 0-4.247 2.943-5.42 8.83zM6.69 23.333H2.494l2.543-11.444c.494-2.175.831-3.51 1.012-4.004-.658-3.032-1.613-4.548-2.864-4.548C1.704 3.337.938 4.358.89 6.402H0C.05 4.49.4 2.945 1.05 1.767S2.55 0 3.604 0c.872 0 1.523.354 1.95 1.063.429.708.89 2.158 1.383 4.35C8.65 1.804 11.448 0 15.333 0c2.65 0 4.758 1.034 6.321 3.102C23.218 5.17 24 8.132 24 11.988c0 3.79-.856 6.74-2.568 8.848C19.72 22.946 17.662 24 15.26 24c-1.695 0-3.086-.601-4.173-1.804-1.086-1.203-2.049-3.164-2.888-5.883z"/></g></g></svg>