<svg xmlns="http://www.w3.org/2000/svg" xmlns:xlink="http://www.w3.org/1999/xlink" width="1024" zoomAndPan="magnify" viewBox="0 0 768 767.999994" height="1024" preserveAspectRatio="xMidYMid meet" version="1.0"><defs><clipPath id="id1"><path d="M 111.839844 461 L 401 461 L 401 765 L 111.839844 765 Z M 111.839844 461 " clip-rule="nonzero"/></clipPath><clipPath id="id2"><path d="M 111.839844 0 L 654 0 L 654 542 L 111.839844 542 Z M 111.839844 0 " clip-rule="nonzero"/></clipPath></defs><g clip-path="url(#id1)"><path fill="#d32f2f" d="M 388.867188 510.402344 L 227.871094 462.65625 C 226.902344 462.367188 225.914062 462.171875 224.90625 462.074219 C 223.902344 461.972656 222.894531 461.96875 221.886719 462.0625 C 220.878906 462.152344 219.886719 462.339844 218.914062 462.621094 C 217.945312 462.902344 217.007812 463.273438 216.105469 463.730469 C 215.203125 464.191406 214.355469 464.730469 213.554688 465.351562 C 212.757812 465.972656 212.023438 466.664062 211.359375 467.425781 C 210.691406 468.1875 210.101562 469.003906 209.59375 469.878906 C 209.082031 470.75 208.65625 471.664062 208.320312 472.617188 L 112.796875 743.183594 C 112.527344 743.929688 112.316406 744.695312 112.164062 745.472656 C 112.007812 746.253906 111.914062 747.039062 111.878906 747.832031 C 111.84375 748.625 111.867188 749.417969 111.949219 750.207031 C 112.03125 751 112.171875 751.777344 112.371094 752.546875 C 112.570312 753.316406 112.828125 754.066406 113.136719 754.796875 C 113.449219 755.527344 113.816406 756.230469 114.230469 756.90625 C 114.648438 757.582031 115.113281 758.222656 115.628906 758.832031 C 116.140625 759.4375 116.695312 760.003906 117.292969 760.527344 C 117.890625 761.046875 118.523438 761.523438 119.195312 761.953125 C 119.863281 762.382812 120.5625 762.757812 121.285156 763.082031 C 122.011719 763.40625 122.757812 763.675781 123.523438 763.886719 C 124.289062 764.101562 125.066406 764.253906 125.855469 764.351562 C 126.644531 764.445312 127.433594 764.484375 128.230469 764.460938 C 129.023438 764.4375 129.8125 764.359375 130.59375 764.21875 C 131.375 764.078125 132.144531 763.878906 132.898438 763.625 C 133.648438 763.367188 134.378906 763.058594 135.085938 762.695312 L 253.125 703.585938 L 324.769531 760.878906 C 326.179688 762.015625 327.742188 762.878906 329.449219 763.480469 C 331.160156 764.082031 332.921875 764.382812 334.734375 764.382812 C 336.546875 764.378906 338.308594 764.082031 340.019531 763.492188 C 341.296875 763.042969 342.492188 762.441406 343.617188 761.6875 C 344.738281 760.933594 345.746094 760.050781 346.644531 759.039062 C 347.539062 758.03125 348.296875 756.921875 348.910156 755.71875 C 349.527344 754.515625 349.980469 753.253906 350.273438 751.9375 L 399.820312 529.117188 C 400.039062 528.144531 400.164062 527.160156 400.195312 526.164062 C 400.226562 525.167969 400.167969 524.175781 400.015625 523.191406 C 399.859375 522.207031 399.617188 521.246094 399.28125 520.304688 C 398.949219 519.367188 398.527344 518.46875 398.023438 517.605469 C 397.523438 516.746094 396.941406 515.941406 396.285156 515.1875 C 395.632812 514.4375 394.914062 513.753906 394.128906 513.136719 C 393.34375 512.519531 392.511719 511.980469 391.625 511.523438 C 390.742188 511.0625 389.820312 510.6875 388.867188 510.402344 Z M 388.867188 510.402344 " fill-opacity="1" fill-rule="nonzero"/></g><path fill="#f44336" d="M 652.265625 743.183594 L 556.738281 472.617188 C 556.414062 471.703125 556.011719 470.828125 555.53125 469.988281 C 555.046875 469.148438 554.492188 468.359375 553.867188 467.621094 C 553.238281 466.882812 552.550781 466.207031 551.800781 465.59375 C 551.050781 464.980469 550.253906 464.441406 549.402344 463.972656 C 548.554688 463.503906 547.671875 463.121094 546.75 462.8125 C 545.832031 462.507812 544.894531 462.289062 543.933594 462.152344 C 542.972656 462.019531 542.011719 461.972656 541.042969 462.015625 C 540.074219 462.054688 539.117188 462.183594 538.175781 462.398438 L 331.550781 509.734375 C 330.984375 509.863281 330.425781 510.019531 329.878906 510.210938 C 329.332031 510.402344 328.792969 510.621094 328.269531 510.871094 C 327.746094 511.117188 327.234375 511.394531 326.742188 511.699219 C 326.246094 512.003906 325.769531 512.332031 325.3125 512.691406 C 324.855469 513.046875 324.417969 513.425781 324 513.832031 C 323.585938 514.234375 323.191406 514.660156 322.820312 515.109375 C 322.453125 515.554688 322.105469 516.019531 321.789062 516.503906 C 321.46875 516.992188 321.175781 517.492188 320.914062 518.007812 C 320.648438 518.523438 320.414062 519.054688 320.207031 519.597656 C 320 520.140625 319.824219 520.691406 319.679688 521.253906 C 319.535156 521.816406 319.417969 522.382812 319.335938 522.957031 C 319.253906 523.53125 319.199219 524.109375 319.179688 524.6875 C 319.160156 525.269531 319.171875 525.847656 319.214844 526.425781 C 319.257812 527.003906 319.332031 527.578125 319.4375 528.148438 C 319.542969 528.71875 319.679688 529.285156 319.847656 529.839844 C 320.011719 530.394531 320.210938 530.941406 320.4375 531.472656 L 415.613281 754.832031 C 415.847656 755.398438 416.117188 755.949219 416.414062 756.484375 C 416.714844 757.019531 417.042969 757.535156 417.402344 758.03125 C 417.761719 758.527344 418.148438 759.003906 418.558594 759.457031 C 418.972656 759.910156 419.410156 760.335938 419.875 760.738281 C 420.335938 761.140625 420.824219 761.511719 421.328125 761.859375 C 421.835938 762.203125 422.359375 762.519531 422.902344 762.804688 C 423.445312 763.089844 424 763.34375 424.574219 763.566406 C 425.144531 763.785156 425.726562 763.972656 426.320312 764.128906 C 426.914062 764.28125 427.515625 764.398438 428.121094 764.484375 C 428.730469 764.570312 429.339844 764.617188 429.953125 764.632812 C 430.566406 764.644531 431.175781 764.625 431.785156 764.566406 C 432.398438 764.511719 433.003906 764.417969 433.601562 764.292969 C 434.203125 764.164062 434.792969 764.003906 435.375 763.808594 C 435.957031 763.617188 436.523438 763.386719 437.078125 763.128906 C 437.632812 762.867188 438.171875 762.574219 438.691406 762.253906 C 439.214844 761.929688 439.714844 761.578125 440.195312 761.199219 L 511.839844 703.902344 L 630.101562 763.011719 C 630.808594 763.378906 631.539062 763.6875 632.289062 763.941406 C 633.042969 764.199219 633.808594 764.394531 634.59375 764.535156 C 635.375 764.675781 636.164062 764.757812 636.957031 764.78125 C 637.75 764.800781 638.542969 764.765625 639.332031 764.667969 C 640.121094 764.574219 640.898438 764.417969 641.664062 764.207031 C 642.429688 763.992188 643.175781 763.726562 643.902344 763.402344 C 644.625 763.078125 645.324219 762.699219 645.992188 762.273438 C 646.660156 761.84375 647.296875 761.367188 647.894531 760.84375 C 648.492188 760.320312 649.046875 759.753906 649.558594 759.148438 C 650.074219 758.542969 650.539062 757.902344 650.957031 757.226562 C 651.371094 756.550781 651.738281 755.84375 652.046875 755.113281 C 652.359375 754.382812 652.617188 753.632812 652.816406 752.867188 C 653.015625 752.097656 653.15625 751.316406 653.238281 750.527344 C 653.320312 749.738281 653.34375 748.945312 653.308594 748.152344 C 653.273438 747.359375 653.179688 746.570312 653.023438 745.792969 C 652.871094 745.011719 652.660156 744.25 652.390625 743.5 Z M 652.265625 743.183594 " fill-opacity="1" fill-rule="nonzero"/><g clip-path="url(#id2)"><path fill="#ffc107" d="M 382.496094 0.433594 C 378.066406 0.433594 373.640625 0.542969 369.21875 0.761719 C 364.792969 0.976562 360.375 1.304688 355.96875 1.738281 C 351.558594 2.171875 347.164062 2.714844 342.785156 3.363281 C 338.402344 4.011719 334.039062 4.769531 329.695312 5.632812 C 325.351562 6.496094 321.03125 7.46875 316.734375 8.542969 C 312.4375 9.621094 308.167969 10.800781 303.929688 12.085938 C 299.691406 13.371094 295.488281 14.757812 291.316406 16.25 C 287.144531 17.742188 283.015625 19.335938 278.921875 21.03125 C 274.828125 22.726562 270.78125 24.519531 266.777344 26.410156 C 262.773438 28.304688 258.816406 30.296875 254.910156 32.382812 C 251.003906 34.46875 247.152344 36.652344 243.351562 38.929688 C 239.550781 41.203125 235.8125 43.574219 232.128906 46.03125 C 228.445312 48.492188 224.824219 51.042969 221.265625 53.679688 C 217.710938 56.316406 214.21875 59.042969 210.792969 61.851562 C 207.371094 64.660156 204.015625 67.550781 200.734375 70.523438 C 197.453125 73.496094 194.246094 76.550781 191.113281 79.679688 C 187.980469 82.8125 184.929688 86.019531 181.953125 89.300781 C 178.980469 92.582031 176.085938 95.933594 173.277344 99.355469 C 170.464844 102.777344 167.742188 106.269531 165.101562 109.824219 C 162.464844 113.378906 159.914062 117 157.453125 120.683594 C 154.992188 124.363281 152.625 128.101562 150.347656 131.902344 C 148.070312 135.699219 145.886719 139.550781 143.800781 143.457031 C 141.710938 147.359375 139.71875 151.316406 137.824219 155.316406 C 135.933594 159.320312 134.136719 163.367188 132.441406 167.457031 C 130.746094 171.550781 129.152344 175.679688 127.660156 179.847656 C 126.167969 184.019531 124.78125 188.222656 123.496094 192.457031 C 122.207031 196.695312 121.027344 200.960938 119.953125 205.257812 C 118.875 209.554688 117.90625 213.871094 117.039062 218.214844 C 116.175781 222.558594 115.417969 226.917969 114.769531 231.300781 C 114.121094 235.679688 113.578125 240.074219 113.144531 244.480469 C 112.710938 248.886719 112.382812 253.300781 112.164062 257.722656 C 111.949219 262.144531 111.839844 266.570312 111.839844 271 C 111.839844 275.425781 111.949219 279.851562 112.164062 284.277344 C 112.382812 288.699219 112.710938 293.113281 113.144531 297.519531 C 113.578125 301.925781 114.121094 306.320312 114.769531 310.699219 C 115.417969 315.078125 116.175781 319.441406 117.039062 323.785156 C 117.90625 328.125 118.875 332.445312 119.953125 336.742188 C 121.027344 341.035156 122.207031 345.304688 123.496094 349.539062 C 124.78125 353.777344 126.167969 357.980469 127.660156 362.148438 C 129.152344 366.320312 130.746094 370.449219 132.441406 374.539062 C 134.136719 378.632812 135.933594 382.679688 137.824219 386.679688 C 139.71875 390.683594 141.710938 394.636719 143.800781 398.542969 C 145.886719 402.449219 148.070312 406.300781 150.347656 410.097656 C 152.625 413.894531 154.992188 417.636719 157.453125 421.316406 C 159.914062 425 162.464844 428.617188 165.101562 432.175781 C 167.742188 435.730469 170.464844 439.222656 173.277344 442.644531 C 176.085938 446.066406 178.980469 449.417969 181.953125 452.699219 C 184.929688 455.980469 187.980469 459.1875 191.113281 462.316406 C 194.246094 465.449219 197.453125 468.5 200.734375 471.472656 C 204.015625 474.449219 207.371094 477.339844 210.792969 480.148438 C 214.21875 482.957031 217.710938 485.679688 221.265625 488.320312 C 224.824219 490.957031 228.445312 493.503906 232.128906 495.964844 C 235.8125 498.425781 239.550781 500.792969 243.351562 503.070312 C 247.152344 505.347656 251.003906 507.527344 254.910156 509.617188 C 258.816406 511.703125 262.773438 513.695312 266.777344 515.585938 C 270.78125 517.480469 274.828125 519.273438 278.921875 520.96875 C 283.015625 522.664062 287.144531 524.257812 291.316406 525.746094 C 295.488281 527.238281 299.691406 528.628906 303.929688 529.914062 C 308.167969 531.199219 312.4375 532.378906 316.734375 533.457031 C 321.03125 534.53125 325.351562 535.5 329.695312 536.367188 C 334.039062 537.230469 338.402344 537.984375 342.785156 538.636719 C 347.164062 539.285156 351.558594 539.828125 355.96875 540.261719 C 360.375 540.695312 364.792969 541.019531 369.21875 541.238281 C 373.640625 541.457031 378.066406 541.5625 382.496094 541.5625 C 386.925781 541.5625 391.355469 541.457031 395.777344 541.238281 C 400.203125 541.019531 404.617188 540.695312 409.027344 540.261719 C 413.433594 539.828125 417.828125 539.285156 422.210938 538.636719 C 426.59375 537.984375 430.957031 537.230469 435.300781 536.367188 C 439.644531 535.5 443.964844 534.53125 448.261719 533.457031 C 452.558594 532.378906 456.828125 531.199219 461.066406 529.914062 C 465.304688 528.628906 469.507812 527.238281 473.679688 525.746094 C 477.851562 524.257812 481.980469 522.664062 486.074219 520.96875 C 490.167969 519.273438 494.214844 517.480469 498.21875 515.585938 C 502.222656 513.695312 506.179688 511.703125 510.085938 509.617188 C 513.992188 507.527344 517.84375 505.347656 521.644531 503.070312 C 525.441406 500.792969 529.183594 498.425781 532.867188 495.964844 C 536.550781 493.503906 540.171875 490.957031 543.726562 488.320312 C 547.285156 485.679688 550.777344 482.957031 554.203125 480.148438 C 557.625 477.339844 560.976562 474.449219 564.261719 471.472656 C 567.542969 468.5 570.75 465.449219 573.882812 462.316406 C 577.015625 459.1875 580.066406 455.980469 583.042969 452.699219 C 586.015625 449.417969 588.910156 446.066406 591.71875 442.644531 C 594.527344 439.222656 597.253906 435.730469 599.890625 432.175781 C 602.53125 428.617188 605.082031 425 607.542969 421.316406 C 610.003906 417.636719 612.371094 413.894531 614.648438 410.097656 C 616.925781 406.300781 619.109375 402.449219 621.195312 398.542969 C 623.285156 394.636719 625.277344 390.683594 627.167969 386.679688 C 629.0625 382.679688 630.859375 378.632812 632.554688 374.539062 C 634.25 370.449219 635.84375 366.320312 637.335938 362.148438 C 638.828125 357.980469 640.214844 353.777344 641.5 349.539062 C 642.785156 345.304688 643.96875 341.035156 645.042969 336.742188 C 646.121094 332.445312 647.089844 328.125 647.957031 323.785156 C 648.820312 319.441406 649.578125 315.078125 650.226562 310.699219 C 650.875 306.320312 651.417969 301.925781 651.851562 297.519531 C 652.285156 293.113281 652.613281 288.699219 652.828125 284.277344 C 653.046875 279.851562 653.15625 275.425781 653.15625 271 C 653.152344 266.574219 653.035156 262.148438 652.816406 257.726562 C 652.59375 253.308594 652.261719 248.894531 651.824219 244.488281 C 651.386719 240.085938 650.839844 235.691406 650.183594 231.316406 C 649.53125 226.9375 648.769531 222.578125 647.902344 218.238281 C 647.035156 213.894531 646.0625 209.578125 644.980469 205.285156 C 643.902344 200.992188 642.71875 196.730469 641.429688 192.492188 C 640.140625 188.257812 638.75 184.058594 637.253906 179.890625 C 635.761719 175.722656 634.164062 171.597656 632.46875 167.507812 C 630.769531 163.417969 628.976562 159.375 627.078125 155.375 C 625.183594 151.375 623.191406 147.421875 621.101562 143.519531 C 619.015625 139.617188 616.832031 135.765625 614.550781 131.96875 C 612.273438 128.175781 609.90625 124.4375 607.445312 120.757812 C 604.984375 117.078125 602.433594 113.460938 599.792969 109.90625 C 597.15625 106.351562 594.429688 102.863281 591.621094 99.441406 C 588.8125 96.019531 585.921875 92.667969 582.945312 89.390625 C 579.972656 86.109375 576.917969 82.90625 573.789062 79.773438 C 570.65625 76.644531 567.453125 73.59375 564.171875 70.621094 C 560.890625 67.648438 557.539062 64.757812 554.117188 61.949219 C 550.691406 59.140625 547.203125 56.414062 543.648438 53.777344 C 540.089844 51.140625 536.472656 48.589844 532.792969 46.128906 C 529.109375 43.671875 525.371094 41.300781 521.574219 39.023438 C 517.777344 36.746094 513.925781 34.566406 510.023438 32.476562 C 506.117188 30.386719 502.164062 28.394531 498.164062 26.5 C 494.160156 24.605469 490.113281 22.8125 486.023438 21.117188 C 481.933594 19.417969 477.804688 17.824219 473.636719 16.328125 C 469.46875 14.835938 465.265625 13.445312 461.03125 12.15625 C 456.792969 10.867188 452.527344 9.683594 448.234375 8.605469 C 443.9375 7.527344 439.621094 6.554688 435.277344 5.6875 C 430.9375 4.820312 426.574219 4.058594 422.195312 3.40625 C 417.816406 2.75 413.421875 2.203125 409.015625 1.765625 C 404.609375 1.328125 400.195312 0.996094 395.773438 0.777344 C 391.351562 0.554688 386.925781 0.441406 382.496094 0.433594 Z M 382.496094 0.433594 " fill-opacity="1" fill-rule="nonzero"/></g><path fill="#ffa000" d="M 557.628906 271 C 557.628906 273.863281 557.558594 276.726562 557.417969 279.589844 C 557.277344 282.453125 557.066406 285.308594 556.785156 288.160156 C 556.503906 291.011719 556.15625 293.855469 555.734375 296.6875 C 555.3125 299.523438 554.824219 302.34375 554.265625 305.152344 C 553.703125 307.964844 553.078125 310.757812 552.378906 313.539062 C 551.683594 316.316406 550.921875 319.078125 550.089844 321.820312 C 549.257812 324.5625 548.359375 327.28125 547.390625 329.980469 C 546.425781 332.675781 545.394531 335.347656 544.296875 337.996094 C 543.203125 340.644531 542.039062 343.261719 540.816406 345.851562 C 539.589844 348.441406 538.300781 351 536.949219 353.527344 C 535.597656 356.054688 534.1875 358.546875 532.714844 361.003906 C 531.238281 363.460938 529.707031 365.882812 528.113281 368.265625 C 526.523438 370.644531 524.871094 372.988281 523.164062 375.289062 C 521.457031 377.589844 519.695312 379.847656 517.875 382.0625 C 516.058594 384.277344 514.1875 386.445312 512.261719 388.570312 C 510.335938 390.691406 508.359375 392.765625 506.335938 394.792969 C 504.308594 396.820312 502.234375 398.792969 500.109375 400.71875 C 497.984375 402.644531 495.816406 404.515625 493.601562 406.332031 C 491.382812 408.148438 489.125 409.910156 486.824219 411.617188 C 484.519531 413.324219 482.179688 414.972656 479.796875 416.566406 C 477.414062 418.15625 474.992188 419.691406 472.535156 421.164062 C 470.074219 422.636719 467.582031 424.046875 465.054688 425.398438 C 462.527344 426.75 459.96875 428.035156 457.375 429.261719 C 454.785156 430.488281 452.164062 431.648438 449.519531 432.746094 C 446.871094 433.839844 444.195312 434.871094 441.496094 435.835938 C 438.800781 436.800781 436.078125 437.699219 433.335938 438.53125 C 430.59375 439.363281 427.832031 440.128906 425.050781 440.824219 C 422.269531 441.519531 419.476562 442.148438 416.664062 442.707031 C 413.851562 443.265625 411.03125 443.753906 408.195312 444.175781 C 405.359375 444.597656 402.515625 444.945312 399.664062 445.226562 C 396.8125 445.507812 393.953125 445.71875 391.089844 445.859375 C 388.226562 446 385.363281 446.070312 382.496094 446.070312 C 379.632812 446.070312 376.765625 446 373.90625 445.859375 C 371.042969 445.71875 368.183594 445.507812 365.332031 445.226562 C 362.480469 444.945312 359.636719 444.597656 356.800781 444.175781 C 353.964844 443.753906 351.140625 443.265625 348.332031 442.707031 C 345.519531 442.148438 342.722656 441.519531 339.945312 440.824219 C 337.164062 440.128906 334.402344 439.363281 331.660156 438.53125 C 328.917969 437.699219 326.195312 436.800781 323.496094 435.835938 C 320.800781 434.871094 318.125 433.839844 315.476562 432.746094 C 312.828125 431.648438 310.210938 430.488281 307.621094 429.261719 C 305.027344 428.035156 302.46875 426.75 299.941406 425.398438 C 297.414062 424.046875 294.921875 422.636719 292.460938 421.164062 C 290.003906 419.691406 287.582031 418.15625 285.199219 416.566406 C 282.816406 414.972656 280.472656 413.324219 278.171875 411.617188 C 275.871094 409.910156 273.609375 408.148438 271.394531 406.332031 C 269.179688 404.515625 267.011719 402.644531 264.886719 400.71875 C 262.761719 398.792969 260.6875 396.820312 258.660156 394.792969 C 256.632812 392.765625 254.660156 390.691406 252.734375 388.570312 C 250.808594 386.445312 248.9375 384.277344 247.121094 382.0625 C 245.300781 379.847656 243.539062 377.589844 241.832031 375.289062 C 240.125 372.988281 238.472656 370.644531 236.882812 368.265625 C 235.289062 365.882812 233.757812 363.460938 232.28125 361.003906 C 230.808594 358.546875 229.398438 356.054688 228.046875 353.527344 C 226.695312 351 225.40625 348.441406 224.179688 345.851562 C 222.957031 343.261719 221.792969 340.644531 220.699219 337.996094 C 219.601562 335.347656 218.570312 332.675781 217.605469 329.980469 C 216.636719 327.28125 215.738281 324.5625 214.90625 321.820312 C 214.074219 319.078125 213.3125 316.316406 212.613281 313.539062 C 211.917969 310.757812 211.289062 307.964844 210.730469 305.152344 C 210.171875 302.34375 209.683594 299.523438 209.261719 296.6875 C 208.839844 293.855469 208.492188 291.011719 208.210938 288.160156 C 207.929688 285.308594 207.71875 282.453125 207.578125 279.589844 C 207.4375 276.726562 207.367188 273.863281 207.367188 271 C 207.367188 268.132812 207.4375 265.269531 207.578125 262.410156 C 207.71875 259.546875 207.929688 256.691406 208.210938 253.839844 C 208.492188 250.988281 208.839844 248.144531 209.261719 245.3125 C 209.683594 242.476562 210.171875 239.65625 210.730469 236.84375 C 211.289062 234.035156 211.917969 231.238281 212.613281 228.460938 C 213.3125 225.679688 214.074219 222.921875 214.90625 220.179688 C 215.738281 217.4375 216.636719 214.71875 217.605469 212.019531 C 218.570312 209.320312 219.601562 206.648438 220.699219 204.003906 C 221.792969 201.355469 222.957031 198.738281 224.179688 196.148438 C 225.40625 193.558594 226.695312 191 228.046875 188.472656 C 229.398438 185.945312 230.808594 183.453125 232.28125 180.996094 C 233.757812 178.539062 235.289062 176.117188 236.882812 173.734375 C 238.472656 171.351562 240.125 169.011719 241.832031 166.710938 C 243.539062 164.410156 245.300781 162.148438 247.121094 159.933594 C 248.9375 157.71875 250.808594 155.550781 252.734375 153.429688 C 254.660156 151.304688 256.632812 149.230469 258.660156 147.207031 C 260.6875 145.179688 262.761719 143.203125 264.886719 141.28125 C 267.011719 139.355469 269.179688 137.484375 271.394531 135.667969 C 273.609375 133.851562 275.871094 132.085938 278.171875 130.382812 C 280.472656 128.675781 282.816406 127.023438 285.199219 125.433594 C 287.582031 123.839844 290.003906 122.308594 292.460938 120.835938 C 294.921875 119.363281 297.414062 117.949219 299.941406 116.601562 C 302.46875 115.25 305.027344 113.960938 307.621094 112.738281 C 310.210938 111.511719 312.828125 110.351562 315.476562 109.253906 C 318.125 108.160156 320.800781 107.128906 323.496094 106.164062 C 326.195312 105.195312 328.917969 104.296875 331.660156 103.464844 C 334.402344 102.636719 337.164062 101.871094 339.945312 101.175781 C 342.722656 100.480469 345.519531 99.851562 348.332031 99.292969 C 351.140625 98.734375 353.964844 98.242188 356.800781 97.824219 C 359.636719 97.402344 362.480469 97.050781 365.332031 96.769531 C 368.183594 96.492188 371.042969 96.28125 373.90625 96.140625 C 376.765625 96 379.632812 95.929688 382.496094 95.929688 C 385.363281 95.929688 388.226562 96 391.089844 96.140625 C 393.953125 96.28125 396.8125 96.492188 399.664062 96.769531 C 402.515625 97.050781 405.359375 97.402344 408.195312 97.824219 C 411.03125 98.242188 413.851562 98.734375 416.664062 99.292969 C 419.476562 99.851562 422.269531 100.480469 425.050781 101.175781 C 427.832031 101.871094 430.59375 102.636719 433.335938 103.464844 C 436.078125 104.296875 438.800781 105.195312 441.496094 106.164062 C 444.195312 107.128906 446.871094 108.160156 449.519531 109.253906 C 452.164062 110.351562 454.785156 111.511719 457.375 112.738281 C 459.96875 113.960938 462.527344 115.25 465.054688 116.601562 C 467.582031 117.949219 470.074219 119.363281 472.535156 120.835938 C 474.992188 122.308594 477.414062 123.839844 479.796875 125.433594 C 482.179688 127.023438 484.519531 128.675781 486.824219 130.382812 C 489.125 132.085938 491.382812 133.851562 493.601562 135.667969 C 495.816406 137.484375 497.984375 139.355469 500.109375 141.28125 C 502.234375 143.203125 504.308594 145.179688 506.335938 147.207031 C 508.359375 149.230469 510.335938 151.304688 512.261719 153.429688 C 514.1875 155.550781 516.058594 157.71875 517.875 159.933594 C 519.695312 162.148438 521.457031 164.410156 523.164062 166.710938 C 524.871094 169.011719 526.523438 171.351562 528.113281 173.734375 C 529.707031 176.117188 531.238281 178.539062 532.714844 180.996094 C 534.1875 183.453125 535.597656 185.945312 536.949219 188.472656 C 538.300781 191 539.589844 193.558594 540.816406 196.148438 C 542.039062 198.738281 543.203125 201.355469 544.296875 204.003906 C 545.394531 206.648438 546.425781 209.320312 547.390625 212.019531 C 548.359375 214.71875 549.257812 217.4375 550.089844 220.179688 C 550.921875 222.921875 551.683594 225.679688 552.382812 228.460938 C 553.078125 231.238281 553.703125 234.035156 554.265625 236.84375 C 554.824219 239.65625 555.3125 242.476562 555.734375 245.3125 C 556.15625 248.144531 556.503906 250.988281 556.785156 253.839844 C 557.066406 256.691406 557.277344 259.546875 557.417969 262.410156 C 557.558594 265.269531 557.628906 268.132812 557.628906 271 Z M 557.628906 271 " fill-opacity="1" fill-rule="nonzero"/><path fill="#fafafa" d="M 350.65625 350.578125 C 348.542969 350.582031 346.511719 350.179688 344.558594 349.375 C 342.605469 348.570312 340.878906 347.421875 339.382812 345.929688 L 275.699219 282.269531 C 274.980469 281.523438 274.339844 280.71875 273.78125 279.851562 C 273.21875 278.984375 272.746094 278.070312 272.363281 277.109375 C 271.980469 276.148438 271.695312 275.160156 271.503906 274.144531 C 271.3125 273.128906 271.222656 272.105469 271.230469 271.074219 C 271.238281 270.039062 271.347656 269.015625 271.558594 268.003906 C 271.765625 266.992188 272.070312 266.007812 272.46875 265.054688 C 272.867188 264.105469 273.355469 263.199219 273.933594 262.339844 C 274.507812 261.480469 275.164062 260.6875 275.894531 259.957031 C 276.625 259.226562 277.417969 258.574219 278.277344 257.996094 C 279.136719 257.421875 280.042969 256.933594 280.996094 256.535156 C 281.949219 256.132812 282.929688 255.832031 283.945312 255.621094 C 284.957031 255.414062 285.980469 255.304688 287.011719 255.296875 C 288.046875 255.289062 289.070312 255.378906 290.085938 255.570312 C 291.105469 255.757812 292.089844 256.046875 293.050781 256.429688 C 294.011719 256.8125 294.925781 257.285156 295.792969 257.84375 C 296.664062 258.40625 297.46875 259.046875 298.210938 259.761719 L 350.65625 312.15625 L 466.753906 196.101562 C 467.117188 195.722656 467.503906 195.363281 467.90625 195.019531 C 468.304688 194.679688 468.722656 194.359375 469.160156 194.058594 C 469.59375 193.761719 470.039062 193.484375 470.5 193.226562 C 470.960938 192.972656 471.433594 192.742188 471.921875 192.535156 C 472.40625 192.324219 472.898438 192.140625 473.402344 191.984375 C 473.902344 191.824219 474.414062 191.691406 474.929688 191.582031 C 475.445312 191.472656 475.964844 191.390625 476.488281 191.335938 C 477.011719 191.277344 477.539062 191.246094 478.066406 191.242188 C 478.59375 191.238281 479.117188 191.257812 479.644531 191.308594 C 480.167969 191.355469 480.691406 191.429688 481.207031 191.527344 C 481.726562 191.628906 482.238281 191.75 482.742188 191.902344 C 483.25 192.050781 483.746094 192.226562 484.234375 192.425781 C 484.722656 192.625 485.199219 192.851562 485.664062 193.097656 C 486.128906 193.34375 486.582031 193.613281 487.019531 193.90625 C 487.460938 194.195312 487.882812 194.507812 488.289062 194.84375 C 488.699219 195.175781 489.089844 195.53125 489.460938 195.902344 C 489.835938 196.277344 490.1875 196.667969 490.523438 197.074219 C 490.855469 197.480469 491.167969 197.90625 491.460938 198.34375 C 491.753906 198.78125 492.023438 199.234375 492.269531 199.699219 C 492.515625 200.167969 492.738281 200.644531 492.941406 201.128906 C 493.140625 201.617188 493.3125 202.113281 493.464844 202.621094 C 493.613281 203.125 493.738281 203.636719 493.839844 204.152344 C 493.9375 204.671875 494.011719 205.191406 494.058594 205.71875 C 494.109375 206.242188 494.128906 206.769531 494.125 207.296875 C 494.121094 207.824219 494.089844 208.347656 494.03125 208.871094 C 493.976562 209.394531 493.894531 209.917969 493.785156 210.433594 C 493.675781 210.949219 493.542969 211.457031 493.382812 211.960938 C 493.222656 212.460938 493.039062 212.953125 492.832031 213.4375 C 492.625 213.921875 492.394531 214.394531 492.136719 214.859375 C 491.882812 215.320312 491.605469 215.765625 491.304688 216.199219 C 491.007812 216.632812 490.6875 217.050781 490.34375 217.453125 C 490.003906 217.855469 489.644531 218.238281 489.265625 218.605469 L 361.894531 345.929688 C 360.402344 347.417969 358.683594 348.566406 356.734375 349.371094 C 354.789062 350.175781 352.761719 350.578125 350.65625 350.578125 Z M 350.65625 350.578125 " fill-opacity="1" fill-rule="nonzero"/></svg>