<svg xmlns="http://www.w3.org/2000/svg" xmlns:xlink="http://www.w3.org/1999/xlink" width="400" zoomAndPan="magnify" viewBox="0 0 300 112.499997" height="150" preserveAspectRatio="xMidYMid meet" version="1.0"><defs><g/><clipPath id="id1"><path d="M 31.554688 11.714844 L 58.105469 11.714844 L 58.105469 38.214844 L 31.554688 38.214844 Z M 31.554688 11.714844 " clip-rule="nonzero"/></clipPath><clipPath id="id2"><path d="M 0.664062 73.503906 L 27.214844 73.503906 L 27.214844 100.050781 L 0.664062 100.050781 Z M 0.664062 73.503906 " clip-rule="nonzero"/></clipPath><clipPath id="id3"><path d="M 62.445312 73.503906 L 89 73.503906 L 89 100.050781 L 62.445312 100.050781 Z M 62.445312 73.503906 " clip-rule="nonzero"/></clipPath></defs><path fill="#bccad1" d="M 18.515625 66.960938 L 36.171875 34.566406 L 38.757812 35.976562 L 21.101562 68.371094 Z M 18.515625 66.960938 " fill-opacity="1" fill-rule="nonzero"/><path fill="#bccad1" d="M 53.855469 41.878906 L 56.417969 40.433594 L 75.558594 74.292969 L 72.996094 75.742188 Z M 53.855469 41.878906 " fill-opacity="1" fill-rule="nonzero"/><path fill="#bccad1" d="M 25.691406 85.328125 L 58.082031 85.328125 L 58.082031 88.269531 L 25.691406 88.269531 Z M 25.691406 85.328125 " fill-opacity="1" fill-rule="nonzero"/><g clip-path="url(#id1)"><path fill="#f8f8f8" d="M 58.082031 24.964844 C 58.082031 25.183594 58.074219 25.398438 58.066406 25.617188 C 58.054688 25.832031 58.039062 26.046875 58.015625 26.265625 C 57.996094 26.480469 57.96875 26.695312 57.9375 26.910156 C 57.90625 27.125 57.867188 27.335938 57.828125 27.550781 C 57.785156 27.761719 57.738281 27.972656 57.683594 28.183594 C 57.632812 28.394531 57.574219 28.605469 57.511719 28.8125 C 57.449219 29.019531 57.378906 29.226562 57.304688 29.429688 C 57.234375 29.632812 57.15625 29.835938 57.074219 30.035156 C 56.988281 30.234375 56.902344 30.433594 56.808594 30.628906 C 56.714844 30.828125 56.617188 31.019531 56.515625 31.210938 C 56.414062 31.402344 56.308594 31.589844 56.195312 31.777344 C 56.085938 31.964844 55.96875 32.144531 55.847656 32.328125 C 55.726562 32.507812 55.601562 32.683594 55.472656 32.859375 C 55.34375 33.03125 55.210938 33.203125 55.074219 33.371094 C 54.9375 33.539062 54.792969 33.703125 54.648438 33.863281 C 54.503906 34.023438 54.355469 34.179688 54.199219 34.335938 C 54.046875 34.488281 53.890625 34.636719 53.730469 34.78125 C 53.570312 34.929688 53.40625 35.070312 53.238281 35.207031 C 53.070312 35.34375 52.898438 35.476562 52.722656 35.609375 C 52.550781 35.738281 52.371094 35.863281 52.191406 35.980469 C 52.011719 36.101562 51.828125 36.21875 51.644531 36.332031 C 51.457031 36.441406 51.269531 36.546875 51.078125 36.652344 C 50.886719 36.753906 50.691406 36.851562 50.496094 36.941406 C 50.300781 37.035156 50.101562 37.125 49.902344 37.207031 C 49.703125 37.289062 49.5 37.367188 49.292969 37.441406 C 49.089844 37.515625 48.886719 37.582031 48.675781 37.644531 C 48.46875 37.707031 48.261719 37.765625 48.050781 37.816406 C 47.839844 37.871094 47.628906 37.917969 47.414062 37.960938 C 47.203125 38.003906 46.988281 38.039062 46.773438 38.070312 C 46.5625 38.105469 46.34375 38.128906 46.128906 38.152344 C 45.914062 38.171875 45.699219 38.1875 45.480469 38.199219 C 45.265625 38.210938 45.046875 38.214844 44.832031 38.214844 C 44.613281 38.214844 44.398438 38.210938 44.179688 38.199219 C 43.964844 38.1875 43.75 38.171875 43.53125 38.152344 C 43.316406 38.128906 43.101562 38.105469 42.886719 38.070312 C 42.671875 38.039062 42.457031 38.003906 42.246094 37.960938 C 42.035156 37.917969 41.820312 37.871094 41.609375 37.816406 C 41.402344 37.765625 41.191406 37.707031 40.984375 37.644531 C 40.777344 37.582031 40.570312 37.515625 40.367188 37.441406 C 40.164062 37.367188 39.960938 37.289062 39.761719 37.207031 C 39.558594 37.125 39.363281 37.035156 39.164062 36.941406 C 38.96875 36.851562 38.777344 36.753906 38.585938 36.652344 C 38.394531 36.546875 38.203125 36.441406 38.019531 36.332031 C 37.832031 36.21875 37.648438 36.101562 37.46875 35.980469 C 37.289062 35.863281 37.113281 35.738281 36.9375 35.609375 C 36.761719 35.476562 36.59375 35.34375 36.425781 35.207031 C 36.257812 35.070312 36.09375 34.929688 35.933594 34.78125 C 35.773438 34.636719 35.613281 34.488281 35.460938 34.335938 C 35.308594 34.179688 35.160156 34.023438 35.011719 33.863281 C 34.867188 33.703125 34.726562 33.539062 34.589844 33.371094 C 34.449219 33.203125 34.316406 33.03125 34.1875 32.859375 C 34.058594 32.683594 33.933594 32.507812 33.8125 32.328125 C 33.691406 32.144531 33.578125 31.964844 33.464844 31.777344 C 33.355469 31.589844 33.246094 31.402344 33.144531 31.210938 C 33.042969 31.019531 32.945312 30.828125 32.851562 30.628906 C 32.761719 30.433594 32.671875 30.234375 32.589844 30.035156 C 32.507812 29.835938 32.429688 29.632812 32.355469 29.429688 C 32.28125 29.226562 32.214844 29.019531 32.152344 28.8125 C 32.089844 28.605469 32.03125 28.394531 31.976562 28.183594 C 31.925781 27.972656 31.878906 27.761719 31.835938 27.550781 C 31.792969 27.335938 31.757812 27.125 31.722656 26.910156 C 31.691406 26.695312 31.664062 26.480469 31.644531 26.265625 C 31.625 26.046875 31.605469 25.832031 31.597656 25.617188 C 31.585938 25.398438 31.582031 25.183594 31.582031 24.964844 C 31.582031 24.75 31.585938 24.53125 31.597656 24.316406 C 31.605469 24.097656 31.625 23.882812 31.644531 23.667969 C 31.664062 23.449219 31.691406 23.234375 31.722656 23.019531 C 31.757812 22.804688 31.792969 22.59375 31.835938 22.378906 C 31.878906 22.167969 31.925781 21.957031 31.976562 21.746094 C 32.03125 21.535156 32.089844 21.328125 32.152344 21.117188 C 32.214844 20.910156 32.28125 20.707031 32.355469 20.5 C 32.429688 20.296875 32.507812 20.09375 32.589844 19.894531 C 32.671875 19.695312 32.761719 19.496094 32.851562 19.300781 C 32.945312 19.105469 33.042969 18.910156 33.144531 18.71875 C 33.246094 18.527344 33.355469 18.339844 33.464844 18.152344 C 33.578125 17.96875 33.691406 17.785156 33.8125 17.605469 C 33.933594 17.421875 34.058594 17.246094 34.1875 17.070312 C 34.316406 16.898438 34.449219 16.726562 34.589844 16.558594 C 34.726562 16.390625 34.867188 16.226562 35.011719 16.066406 C 35.160156 15.90625 35.308594 15.75 35.460938 15.597656 C 35.613281 15.441406 35.773438 15.292969 35.933594 15.148438 C 36.09375 15 36.257812 14.859375 36.425781 14.722656 C 36.59375 14.585938 36.761719 14.453125 36.9375 14.324219 C 37.113281 14.191406 37.289062 14.070312 37.46875 13.949219 C 37.648438 13.828125 37.832031 13.710938 38.019531 13.601562 C 38.203125 13.488281 38.394531 13.382812 38.585938 13.28125 C 38.777344 13.175781 38.96875 13.078125 39.164062 12.988281 C 39.363281 12.894531 39.558594 12.808594 39.761719 12.722656 C 39.960938 12.640625 40.164062 12.5625 40.367188 12.488281 C 40.570312 12.417969 40.777344 12.347656 40.984375 12.285156 C 41.191406 12.222656 41.402344 12.164062 41.609375 12.113281 C 41.820312 12.058594 42.035156 12.011719 42.246094 11.96875 C 42.457031 11.925781 42.671875 11.890625 42.886719 11.859375 C 43.101562 11.828125 43.316406 11.800781 43.53125 11.777344 C 43.75 11.757812 43.964844 11.742188 44.179688 11.730469 C 44.398438 11.71875 44.613281 11.714844 44.832031 11.714844 C 45.046875 11.714844 45.265625 11.71875 45.480469 11.730469 C 45.699219 11.742188 45.914062 11.757812 46.128906 11.777344 C 46.34375 11.800781 46.5625 11.828125 46.773438 11.859375 C 46.988281 11.890625 47.203125 11.925781 47.414062 11.96875 C 47.628906 12.011719 47.839844 12.058594 48.050781 12.113281 C 48.261719 12.164062 48.46875 12.222656 48.675781 12.285156 C 48.886719 12.347656 49.089844 12.417969 49.292969 12.488281 C 49.5 12.5625 49.703125 12.640625 49.902344 12.722656 C 50.101562 12.808594 50.300781 12.894531 50.496094 12.988281 C 50.691406 13.078125 50.886719 13.175781 51.078125 13.28125 C 51.269531 13.382812 51.457031 13.488281 51.644531 13.601562 C 51.828125 13.710938 52.011719 13.828125 52.191406 13.949219 C 52.371094 14.070312 52.550781 14.191406 52.722656 14.324219 C 52.898438 14.453125 53.070312 14.585938 53.238281 14.722656 C 53.40625 14.859375 53.570312 15 53.730469 15.148438 C 53.890625 15.292969 54.046875 15.441406 54.199219 15.597656 C 54.355469 15.75 54.503906 15.90625 54.648438 16.066406 C 54.792969 16.226562 54.9375 16.390625 55.074219 16.558594 C 55.210938 16.726562 55.34375 16.898438 55.472656 17.070312 C 55.601562 17.246094 55.726562 17.421875 55.847656 17.605469 C 55.96875 17.785156 56.085938 17.96875 56.195312 18.152344 C 56.308594 18.339844 56.414062 18.527344 56.515625 18.71875 C 56.617188 18.910156 56.714844 19.105469 56.808594 19.300781 C 56.902344 19.496094 56.988281 19.695312 57.074219 19.894531 C 57.15625 20.09375 57.234375 20.296875 57.304688 20.5 C 57.378906 20.707031 57.449219 20.910156 57.511719 21.117188 C 57.574219 21.328125 57.632812 21.535156 57.683594 21.746094 C 57.738281 21.957031 57.785156 22.167969 57.828125 22.378906 C 57.867188 22.59375 57.90625 22.804688 57.9375 23.019531 C 57.96875 23.234375 57.996094 23.449219 58.015625 23.667969 C 58.039062 23.882812 58.054688 24.097656 58.066406 24.316406 C 58.074219 24.53125 58.082031 24.75 58.082031 24.964844 Z M 58.082031 24.964844 " fill-opacity="1" fill-rule="nonzero"/></g><g clip-path="url(#id2)"><path fill="#f8f8f8" d="M 27.164062 86.800781 C 27.164062 87.015625 27.160156 87.234375 27.148438 87.449219 C 27.136719 87.667969 27.121094 87.882812 27.101562 88.097656 C 27.078125 88.3125 27.050781 88.527344 27.019531 88.742188 C 26.988281 88.957031 26.953125 89.171875 26.910156 89.382812 C 26.867188 89.597656 26.820312 89.808594 26.765625 90.019531 C 26.714844 90.230469 26.65625 90.4375 26.59375 90.644531 C 26.53125 90.851562 26.460938 91.058594 26.390625 91.261719 C 26.316406 91.46875 26.238281 91.667969 26.15625 91.871094 C 26.074219 92.070312 25.984375 92.269531 25.890625 92.464844 C 25.800781 92.660156 25.703125 92.855469 25.597656 93.046875 C 25.496094 93.238281 25.390625 93.425781 25.277344 93.609375 C 25.167969 93.796875 25.050781 93.980469 24.929688 94.160156 C 24.808594 94.339844 24.6875 94.519531 24.554688 94.691406 C 24.425781 94.867188 24.292969 95.039062 24.15625 95.207031 C 24.019531 95.371094 23.878906 95.535156 23.730469 95.699219 C 23.585938 95.859375 23.4375 96.015625 23.28125 96.167969 C 23.128906 96.320312 22.972656 96.472656 22.8125 96.617188 C 22.652344 96.761719 22.488281 96.902344 22.320312 97.042969 C 22.152344 97.179688 21.980469 97.3125 21.808594 97.441406 C 21.632812 97.570312 21.457031 97.695312 21.273438 97.816406 C 21.09375 97.9375 20.910156 98.054688 20.726562 98.164062 C 20.539062 98.277344 20.351562 98.382812 20.160156 98.484375 C 19.96875 98.585938 19.773438 98.683594 19.578125 98.777344 C 19.382812 98.871094 19.183594 98.957031 18.984375 99.039062 C 18.785156 99.125 18.582031 99.203125 18.378906 99.273438 C 18.171875 99.347656 17.96875 99.414062 17.761719 99.480469 C 17.550781 99.542969 17.34375 99.597656 17.132812 99.652344 C 16.921875 99.703125 16.710938 99.753906 16.5 99.792969 C 16.285156 99.835938 16.074219 99.875 15.859375 99.90625 C 15.644531 99.9375 15.429688 99.964844 15.210938 99.984375 C 14.996094 100.007812 14.78125 100.023438 14.5625 100.035156 C 14.347656 100.042969 14.128906 100.050781 13.914062 100.050781 C 13.695312 100.050781 13.480469 100.042969 13.265625 100.035156 C 13.046875 100.023438 12.832031 100.007812 12.613281 99.984375 C 12.398438 99.964844 12.183594 99.9375 11.96875 99.90625 C 11.753906 99.875 11.542969 99.835938 11.328125 99.792969 C 11.117188 99.753906 10.90625 99.703125 10.695312 99.652344 C 10.484375 99.597656 10.273438 99.542969 10.066406 99.480469 C 9.859375 99.414062 9.652344 99.347656 9.449219 99.273438 C 9.246094 99.203125 9.042969 99.125 8.84375 99.039062 C 8.644531 98.957031 8.445312 98.871094 8.25 98.777344 C 8.050781 98.683594 7.859375 98.585938 7.667969 98.484375 C 7.476562 98.382812 7.289062 98.277344 7.101562 98.164062 C 6.914062 98.054688 6.734375 97.9375 6.550781 97.816406 C 6.371094 97.695312 6.195312 97.570312 6.019531 97.441406 C 5.847656 97.3125 5.675781 97.179688 5.507812 97.042969 C 5.339844 96.902344 5.175781 96.761719 5.015625 96.617188 C 4.855469 96.472656 4.699219 96.320312 4.542969 96.167969 C 4.390625 96.015625 4.242188 95.859375 4.097656 95.699219 C 3.949219 95.535156 3.808594 95.371094 3.671875 95.207031 C 3.535156 95.039062 3.402344 94.867188 3.269531 94.691406 C 3.140625 94.519531 3.015625 94.339844 2.898438 94.160156 C 2.777344 93.980469 2.660156 93.796875 2.546875 93.609375 C 2.4375 93.425781 2.332031 93.238281 2.226562 93.046875 C 2.125 92.855469 2.027344 92.660156 1.9375 92.464844 C 1.84375 92.269531 1.753906 92.070312 1.671875 91.871094 C 1.589844 91.667969 1.511719 91.46875 1.4375 91.261719 C 1.363281 91.058594 1.296875 90.851562 1.234375 90.644531 C 1.171875 90.4375 1.113281 90.230469 1.0625 90.019531 C 1.007812 89.808594 0.960938 89.597656 0.917969 89.382812 C 0.875 89.171875 0.839844 88.957031 0.808594 88.742188 C 0.773438 88.527344 0.75 88.3125 0.726562 88.097656 C 0.707031 87.882812 0.691406 87.667969 0.679688 87.449219 C 0.667969 87.234375 0.664062 87.015625 0.664062 86.800781 C 0.664062 86.582031 0.667969 86.367188 0.679688 86.148438 C 0.691406 85.933594 0.707031 85.714844 0.726562 85.5 C 0.75 85.285156 0.773438 85.070312 0.808594 84.855469 C 0.839844 84.640625 0.875 84.425781 0.917969 84.214844 C 0.960938 84 1.007812 83.789062 1.0625 83.578125 C 1.113281 83.371094 1.171875 83.160156 1.234375 82.953125 C 1.296875 82.746094 1.363281 82.539062 1.4375 82.335938 C 1.511719 82.132812 1.589844 81.929688 1.671875 81.730469 C 1.753906 81.527344 1.84375 81.328125 1.9375 81.132812 C 2.027344 80.9375 2.125 80.746094 2.226562 80.554688 C 2.332031 80.363281 2.4375 80.171875 2.546875 79.988281 C 2.660156 79.800781 2.777344 79.617188 2.898438 79.4375 C 3.015625 79.257812 3.140625 79.082031 3.269531 78.90625 C 3.402344 78.730469 3.535156 78.5625 3.671875 78.394531 C 3.808594 78.226562 3.949219 78.0625 4.097656 77.902344 C 4.242188 77.742188 4.390625 77.582031 4.542969 77.429688 C 4.699219 77.277344 4.855469 77.128906 5.015625 76.980469 C 5.175781 76.835938 5.339844 76.695312 5.507812 76.558594 C 5.675781 76.417969 5.847656 76.285156 6.019531 76.15625 C 6.195312 76.027344 6.371094 75.902344 6.550781 75.78125 C 6.734375 75.660156 6.914062 75.546875 7.101562 75.433594 C 7.289062 75.324219 7.476562 75.214844 7.667969 75.113281 C 7.859375 75.011719 8.050781 74.914062 8.25 74.820312 C 8.445312 74.730469 8.644531 74.640625 8.84375 74.558594 C 9.042969 74.472656 9.246094 74.398438 9.449219 74.324219 C 9.652344 74.25 9.859375 74.183594 10.066406 74.121094 C 10.273438 74.054688 10.484375 74 10.695312 73.945312 C 10.90625 73.894531 11.117188 73.847656 11.328125 73.804688 C 11.542969 73.761719 11.753906 73.722656 11.96875 73.691406 C 12.183594 73.660156 12.398438 73.632812 12.613281 73.613281 C 12.832031 73.589844 13.046875 73.574219 13.265625 73.566406 C 13.480469 73.554688 13.695312 73.550781 13.914062 73.550781 C 14.128906 73.550781 14.347656 73.554688 14.5625 73.566406 C 14.78125 73.574219 14.996094 73.589844 15.210938 73.613281 C 15.429688 73.632812 15.644531 73.660156 15.859375 73.691406 C 16.074219 73.722656 16.285156 73.761719 16.5 73.804688 C 16.710938 73.847656 16.921875 73.894531 17.132812 73.945312 C 17.34375 74 17.550781 74.054688 17.761719 74.121094 C 17.96875 74.183594 18.171875 74.25 18.378906 74.324219 C 18.582031 74.398438 18.785156 74.472656 18.984375 74.558594 C 19.183594 74.640625 19.382812 74.730469 19.578125 74.820312 C 19.773438 74.914062 19.96875 75.011719 20.160156 75.113281 C 20.351562 75.214844 20.539062 75.324219 20.726562 75.433594 C 20.910156 75.546875 21.09375 75.660156 21.273438 75.78125 C 21.457031 75.902344 21.632812 76.027344 21.808594 76.15625 C 21.980469 76.285156 22.152344 76.417969 22.320312 76.558594 C 22.488281 76.695312 22.652344 76.835938 22.8125 76.980469 C 22.972656 77.128906 23.128906 77.277344 23.28125 77.429688 C 23.4375 77.582031 23.585938 77.742188 23.730469 77.902344 C 23.878906 78.0625 24.019531 78.226562 24.15625 78.394531 C 24.292969 78.5625 24.425781 78.730469 24.554688 78.90625 C 24.6875 79.082031 24.808594 79.257812 24.929688 79.4375 C 25.050781 79.617188 25.167969 79.800781 25.277344 79.988281 C 25.390625 80.171875 25.496094 80.363281 25.597656 80.554688 C 25.703125 80.746094 25.800781 80.9375 25.890625 81.132812 C 25.984375 81.328125 26.074219 81.527344 26.15625 81.730469 C 26.238281 81.929688 26.316406 82.132812 26.390625 82.335938 C 26.460938 82.539062 26.53125 82.746094 26.59375 82.953125 C 26.65625 83.160156 26.714844 83.371094 26.765625 83.578125 C 26.820312 83.789062 26.867188 84 26.910156 84.214844 C 26.953125 84.425781 26.988281 84.640625 27.019531 84.855469 C 27.050781 85.070312 27.078125 85.285156 27.101562 85.5 C 27.121094 85.714844 27.136719 85.933594 27.148438 86.148438 C 27.160156 86.367188 27.164062 86.582031 27.164062 86.800781 Z M 27.164062 86.800781 " fill-opacity="1" fill-rule="nonzero"/></g><g clip-path="url(#id3)"><path fill="#f8f8f8" d="M 89 86.800781 C 89 87.015625 88.992188 87.234375 88.980469 87.449219 C 88.972656 87.667969 88.957031 87.882812 88.933594 88.097656 C 88.914062 88.3125 88.886719 88.527344 88.855469 88.742188 C 88.824219 88.957031 88.785156 89.171875 88.742188 89.382812 C 88.703125 89.597656 88.652344 89.808594 88.601562 90.019531 C 88.546875 90.230469 88.492188 90.4375 88.425781 90.644531 C 88.363281 90.851562 88.296875 91.058594 88.222656 91.261719 C 88.152344 91.46875 88.074219 91.667969 87.988281 91.871094 C 87.90625 92.070312 87.820312 92.269531 87.726562 92.464844 C 87.632812 92.660156 87.535156 92.855469 87.433594 93.046875 C 87.332031 93.238281 87.222656 93.425781 87.113281 93.609375 C 87 93.796875 86.886719 93.980469 86.765625 94.160156 C 86.644531 94.339844 86.519531 94.519531 86.390625 94.691406 C 86.261719 94.867188 86.128906 95.039062 85.992188 95.207031 C 85.851562 95.371094 85.710938 95.535156 85.566406 95.699219 C 85.421875 95.859375 85.269531 96.015625 85.117188 96.167969 C 84.964844 96.320312 84.808594 96.472656 84.644531 96.617188 C 84.484375 96.761719 84.320312 96.902344 84.152344 97.042969 C 83.984375 97.179688 83.816406 97.3125 83.640625 97.441406 C 83.46875 97.570312 83.289062 97.695312 83.109375 97.816406 C 82.929688 97.9375 82.746094 98.054688 82.558594 98.164062 C 82.375 98.277344 82.183594 98.382812 81.992188 98.484375 C 81.804688 98.585938 81.609375 98.683594 81.414062 98.777344 C 81.21875 98.871094 81.019531 98.957031 80.820312 99.039062 C 80.617188 99.125 80.417969 99.203125 80.210938 99.273438 C 80.007812 99.347656 79.800781 99.414062 79.59375 99.480469 C 79.386719 99.542969 79.179688 99.597656 78.96875 99.652344 C 78.757812 99.703125 78.546875 99.753906 78.332031 99.792969 C 78.121094 99.835938 77.90625 99.875 77.691406 99.90625 C 77.476562 99.9375 77.261719 99.964844 77.046875 99.984375 C 76.832031 100.007812 76.613281 100.023438 76.398438 100.035156 C 76.179688 100.042969 75.964844 100.050781 75.746094 100.050781 C 75.53125 100.050781 75.316406 100.042969 75.097656 100.035156 C 74.882812 100.023438 74.664062 100.007812 74.449219 99.984375 C 74.234375 99.964844 74.019531 99.9375 73.804688 99.90625 C 73.589844 99.875 73.375 99.835938 73.164062 99.792969 C 72.949219 99.753906 72.738281 99.703125 72.527344 99.652344 C 72.316406 99.597656 72.109375 99.542969 71.902344 99.480469 C 71.695312 99.414062 71.488281 99.347656 71.285156 99.273438 C 71.082031 99.203125 70.878906 99.125 70.675781 99.039062 C 70.476562 98.957031 70.277344 98.871094 70.082031 98.777344 C 69.886719 98.683594 69.691406 98.585938 69.5 98.484375 C 69.3125 98.382812 69.121094 98.277344 68.9375 98.164062 C 68.75 98.054688 68.566406 97.9375 68.386719 97.816406 C 68.207031 97.695312 68.027344 97.570312 67.855469 97.441406 C 67.679688 97.3125 67.507812 97.179688 67.34375 97.042969 C 67.175781 96.902344 67.011719 96.761719 66.851562 96.617188 C 66.6875 96.472656 66.53125 96.320312 66.378906 96.167969 C 66.226562 96.015625 66.074219 95.859375 65.929688 95.699219 C 65.785156 95.535156 65.644531 95.371094 65.503906 95.207031 C 65.367188 95.039062 65.234375 94.867188 65.105469 94.691406 C 64.976562 94.519531 64.851562 94.339844 64.730469 94.160156 C 64.609375 93.980469 64.496094 93.796875 64.382812 93.609375 C 64.269531 93.425781 64.164062 93.238281 64.0625 93.046875 C 63.960938 92.855469 63.863281 92.660156 63.769531 92.464844 C 63.675781 92.269531 63.589844 92.070312 63.507812 91.871094 C 63.421875 91.667969 63.34375 91.46875 63.273438 91.261719 C 63.199219 91.058594 63.132812 90.851562 63.066406 90.644531 C 63.003906 90.4375 62.949219 90.230469 62.894531 90.019531 C 62.84375 89.808594 62.792969 89.597656 62.753906 89.382812 C 62.710938 89.171875 62.671875 88.957031 62.640625 88.742188 C 62.609375 88.527344 62.582031 88.3125 62.5625 88.097656 C 62.539062 87.882812 62.523438 87.667969 62.515625 87.449219 C 62.503906 87.234375 62.496094 87.015625 62.496094 86.800781 C 62.496094 86.582031 62.503906 86.367188 62.515625 86.148438 C 62.523438 85.933594 62.539062 85.714844 62.5625 85.5 C 62.582031 85.285156 62.609375 85.070312 62.640625 84.855469 C 62.671875 84.640625 62.710938 84.425781 62.753906 84.214844 C 62.792969 84 62.84375 83.789062 62.894531 83.578125 C 62.949219 83.371094 63.003906 83.160156 63.066406 82.953125 C 63.132812 82.746094 63.199219 82.539062 63.273438 82.335938 C 63.34375 82.132812 63.421875 81.929688 63.507812 81.730469 C 63.589844 81.527344 63.675781 81.328125 63.769531 81.132812 C 63.863281 80.9375 63.960938 80.746094 64.0625 80.554688 C 64.164062 80.363281 64.269531 80.171875 64.382812 79.988281 C 64.496094 79.800781 64.609375 79.617188 64.730469 79.4375 C 64.851562 79.257812 64.976562 79.082031 65.105469 78.90625 C 65.234375 78.730469 65.367188 78.5625 65.503906 78.394531 C 65.644531 78.226562 65.785156 78.0625 65.929688 77.902344 C 66.074219 77.742188 66.226562 77.582031 66.378906 77.429688 C 66.53125 77.277344 66.6875 77.128906 66.851562 76.980469 C 67.011719 76.835938 67.175781 76.695312 67.34375 76.558594 C 67.507812 76.417969 67.679688 76.285156 67.855469 76.15625 C 68.027344 76.027344 68.207031 75.902344 68.386719 75.78125 C 68.566406 75.660156 68.75 75.546875 68.9375 75.433594 C 69.121094 75.324219 69.3125 75.214844 69.5 75.113281 C 69.691406 75.011719 69.886719 74.914062 70.082031 74.820312 C 70.277344 74.730469 70.476562 74.640625 70.675781 74.558594 C 70.878906 74.472656 71.082031 74.398438 71.285156 74.324219 C 71.488281 74.25 71.695312 74.183594 71.902344 74.121094 C 72.109375 74.054688 72.316406 74 72.527344 73.945312 C 72.738281 73.894531 72.949219 73.847656 73.164062 73.804688 C 73.375 73.761719 73.589844 73.722656 73.804688 73.691406 C 74.019531 73.660156 74.234375 73.632812 74.449219 73.613281 C 74.664062 73.589844 74.882812 73.574219 75.097656 73.566406 C 75.316406 73.554688 75.53125 73.550781 75.746094 73.550781 C 75.964844 73.550781 76.179688 73.554688 76.398438 73.566406 C 76.613281 73.574219 76.832031 73.589844 77.046875 73.613281 C 77.261719 73.632812 77.476562 73.660156 77.691406 73.691406 C 77.90625 73.722656 78.121094 73.761719 78.332031 73.804688 C 78.546875 73.847656 78.757812 73.894531 78.96875 73.945312 C 79.179688 74 79.386719 74.054688 79.59375 74.121094 C 79.800781 74.183594 80.007812 74.25 80.210938 74.324219 C 80.417969 74.398438 80.617188 74.472656 80.820312 74.558594 C 81.019531 74.640625 81.21875 74.730469 81.414062 74.820312 C 81.609375 74.914062 81.804688 75.011719 81.992188 75.113281 C 82.183594 75.214844 82.375 75.324219 82.558594 75.433594 C 82.746094 75.546875 82.929688 75.660156 83.109375 75.78125 C 83.289062 75.902344 83.46875 76.027344 83.640625 76.15625 C 83.816406 76.285156 83.984375 76.417969 84.152344 76.558594 C 84.320312 76.695312 84.484375 76.835938 84.644531 76.980469 C 84.808594 77.128906 84.964844 77.277344 85.117188 77.429688 C 85.269531 77.582031 85.421875 77.742188 85.566406 77.902344 C 85.710938 78.0625 85.851562 78.226562 85.992188 78.394531 C 86.128906 78.5625 86.261719 78.730469 86.390625 78.90625 C 86.519531 79.082031 86.644531 79.257812 86.765625 79.4375 C 86.886719 79.617188 87 79.800781 87.113281 79.988281 C 87.222656 80.171875 87.332031 80.363281 87.433594 80.554688 C 87.535156 80.746094 87.632812 80.9375 87.726562 81.132812 C 87.820312 81.328125 87.90625 81.527344 87.988281 81.730469 C 88.074219 81.929688 88.152344 82.132812 88.222656 82.335938 C 88.296875 82.539062 88.363281 82.746094 88.425781 82.953125 C 88.492188 83.160156 88.546875 83.371094 88.601562 83.578125 C 88.652344 83.789062 88.703125 84 88.742188 84.214844 C 88.785156 84.425781 88.824219 84.640625 88.855469 84.855469 C 88.886719 85.070312 88.914062 85.285156 88.933594 85.5 C 88.957031 85.714844 88.972656 85.933594 88.980469 86.148438 C 88.992188 86.367188 89 86.582031 89 86.800781 Z M 89 86.800781 " fill-opacity="1" fill-rule="nonzero"/></g><path fill="#ffffff" d="M 12.441406 83.855469 C 12.441406 83.949219 12.4375 84.046875 12.425781 84.144531 C 12.417969 84.238281 12.402344 84.335938 12.386719 84.429688 C 12.367188 84.523438 12.34375 84.617188 12.316406 84.710938 C 12.285156 84.800781 12.253906 84.890625 12.21875 84.980469 C 12.179688 85.070312 12.140625 85.15625 12.09375 85.242188 C 12.046875 85.328125 12 85.410156 11.945312 85.492188 C 11.890625 85.570312 11.835938 85.648438 11.773438 85.722656 C 11.710938 85.796875 11.648438 85.867188 11.578125 85.9375 C 11.511719 86.003906 11.441406 86.070312 11.363281 86.128906 C 11.289062 86.191406 11.214844 86.25 11.132812 86.304688 C 11.054688 86.355469 10.96875 86.40625 10.886719 86.453125 C 10.800781 86.496094 10.714844 86.539062 10.625 86.574219 C 10.535156 86.613281 10.445312 86.644531 10.351562 86.671875 C 10.257812 86.699219 10.167969 86.722656 10.070312 86.742188 C 9.976562 86.761719 9.882812 86.777344 9.785156 86.785156 C 9.691406 86.792969 9.59375 86.800781 9.496094 86.800781 C 9.402344 86.800781 9.304688 86.792969 9.207031 86.785156 C 9.113281 86.777344 9.015625 86.761719 8.921875 86.742188 C 8.828125 86.722656 8.734375 86.699219 8.640625 86.671875 C 8.550781 86.644531 8.460938 86.613281 8.371094 86.574219 C 8.28125 86.539062 8.195312 86.496094 8.109375 86.453125 C 8.023438 86.40625 7.941406 86.355469 7.859375 86.304688 C 7.78125 86.25 7.703125 86.191406 7.628906 86.128906 C 7.554688 86.070312 7.484375 86.003906 7.414062 85.9375 C 7.347656 85.867188 7.28125 85.796875 7.222656 85.722656 C 7.160156 85.648438 7.101562 85.570312 7.050781 85.492188 C 6.996094 85.410156 6.945312 85.328125 6.898438 85.242188 C 6.855469 85.15625 6.8125 85.070312 6.777344 84.980469 C 6.738281 84.890625 6.707031 84.800781 6.679688 84.710938 C 6.652344 84.617188 6.628906 84.523438 6.609375 84.429688 C 6.589844 84.335938 6.578125 84.238281 6.566406 84.144531 C 6.558594 84.046875 6.550781 83.949219 6.550781 83.855469 C 6.550781 83.757812 6.558594 83.660156 6.566406 83.566406 C 6.578125 83.46875 6.589844 83.375 6.609375 83.28125 C 6.628906 83.1875 6.652344 83.09375 6.679688 83 C 6.707031 82.90625 6.738281 82.816406 6.777344 82.726562 C 6.8125 82.640625 6.855469 82.550781 6.898438 82.464844 C 6.945312 82.382812 6.996094 82.300781 7.050781 82.21875 C 7.101562 82.136719 7.160156 82.0625 7.222656 81.988281 C 7.28125 81.914062 7.347656 81.839844 7.414062 81.773438 C 7.484375 81.703125 7.554688 81.640625 7.628906 81.578125 C 7.703125 81.515625 7.78125 81.460938 7.859375 81.40625 C 7.941406 81.351562 8.023438 81.304688 8.109375 81.257812 C 8.195312 81.210938 8.28125 81.171875 8.371094 81.132812 C 8.460938 81.097656 8.550781 81.066406 8.640625 81.035156 C 8.734375 81.007812 8.828125 80.984375 8.921875 80.96875 C 9.015625 80.949219 9.113281 80.933594 9.207031 80.925781 C 9.304688 80.914062 9.402344 80.910156 9.496094 80.910156 C 9.59375 80.910156 9.691406 80.914062 9.785156 80.925781 C 9.882812 80.933594 9.976562 80.949219 10.070312 80.96875 C 10.167969 80.984375 10.257812 81.007812 10.351562 81.035156 C 10.445312 81.066406 10.535156 81.097656 10.625 81.132812 C 10.714844 81.171875 10.800781 81.210938 10.886719 81.257812 C 10.96875 81.304688 11.054688 81.351562 11.132812 81.40625 C 11.214844 81.460938 11.289062 81.515625 11.363281 81.578125 C 11.441406 81.640625 11.511719 81.703125 11.578125 81.773438 C 11.648438 81.839844 11.710938 81.914062 11.773438 81.988281 C 11.835938 82.0625 11.890625 82.136719 11.945312 82.21875 C 12 82.300781 12.046875 82.382812 12.09375 82.464844 C 12.140625 82.550781 12.179688 82.640625 12.21875 82.726562 C 12.253906 82.816406 12.285156 82.90625 12.316406 83 C 12.34375 83.09375 12.367188 83.1875 12.386719 83.28125 C 12.402344 83.375 12.417969 83.46875 12.425781 83.566406 C 12.4375 83.660156 12.441406 83.757812 12.441406 83.855469 Z M 12.441406 83.855469 " fill-opacity="1" fill-rule="nonzero"/><path fill="#ffffff" d="M 44.832031 20.546875 C 44.832031 20.644531 44.828125 20.742188 44.816406 20.835938 C 44.808594 20.933594 44.792969 21.027344 44.773438 21.121094 C 44.753906 21.21875 44.730469 21.3125 44.703125 21.402344 C 44.675781 21.496094 44.644531 21.585938 44.605469 21.675781 C 44.570312 21.765625 44.527344 21.851562 44.484375 21.9375 C 44.4375 22.019531 44.386719 22.105469 44.335938 22.183594 C 44.28125 22.265625 44.222656 22.34375 44.164062 22.417969 C 44.101562 22.492188 44.035156 22.5625 43.96875 22.628906 C 43.902344 22.699219 43.828125 22.761719 43.753906 22.824219 C 43.679688 22.886719 43.601562 22.941406 43.523438 22.996094 C 43.441406 23.050781 43.359375 23.101562 43.273438 23.144531 C 43.191406 23.191406 43.101562 23.230469 43.011719 23.269531 C 42.925781 23.304688 42.832031 23.339844 42.742188 23.367188 C 42.648438 23.394531 42.554688 23.417969 42.460938 23.4375 C 42.367188 23.453125 42.269531 23.46875 42.175781 23.480469 C 42.078125 23.488281 41.984375 23.492188 41.886719 23.492188 C 41.789062 23.492188 41.695312 23.488281 41.597656 23.480469 C 41.5 23.46875 41.40625 23.453125 41.3125 23.4375 C 41.21875 23.417969 41.125 23.394531 41.03125 23.367188 C 40.941406 23.339844 40.847656 23.304688 40.757812 23.269531 C 40.671875 23.230469 40.582031 23.191406 40.5 23.144531 C 40.414062 23.101562 40.332031 23.050781 40.25 22.996094 C 40.171875 22.941406 40.09375 22.886719 40.019531 22.824219 C 39.945312 22.761719 39.871094 22.699219 39.804688 22.628906 C 39.734375 22.5625 39.671875 22.492188 39.609375 22.417969 C 39.550781 22.34375 39.492188 22.265625 39.4375 22.183594 C 39.382812 22.105469 39.335938 22.019531 39.289062 21.9375 C 39.246094 21.851562 39.203125 21.765625 39.167969 21.675781 C 39.128906 21.585938 39.097656 21.496094 39.070312 21.402344 C 39.039062 21.3125 39.015625 21.21875 39 21.121094 C 38.980469 21.027344 38.964844 20.933594 38.957031 20.835938 C 38.945312 20.742188 38.941406 20.644531 38.941406 20.546875 C 38.941406 20.453125 38.945312 20.355469 38.957031 20.261719 C 38.964844 20.164062 38.980469 20.070312 39 19.972656 C 39.015625 19.878906 39.039062 19.785156 39.070312 19.695312 C 39.097656 19.601562 39.128906 19.511719 39.167969 19.421875 C 39.203125 19.332031 39.246094 19.246094 39.289062 19.160156 C 39.335938 19.074219 39.382812 18.992188 39.4375 18.914062 C 39.492188 18.832031 39.550781 18.753906 39.609375 18.679688 C 39.671875 18.605469 39.734375 18.535156 39.804688 18.464844 C 39.871094 18.398438 39.945312 18.332031 40.019531 18.273438 C 40.09375 18.210938 40.171875 18.152344 40.25 18.101562 C 40.332031 18.046875 40.414062 17.996094 40.5 17.953125 C 40.582031 17.90625 40.671875 17.863281 40.757812 17.828125 C 40.847656 17.792969 40.941406 17.757812 41.03125 17.730469 C 41.125 17.703125 41.21875 17.679688 41.3125 17.660156 C 41.40625 17.640625 41.5 17.628906 41.597656 17.617188 C 41.695312 17.609375 41.789062 17.605469 41.886719 17.605469 C 41.984375 17.605469 42.078125 17.609375 42.175781 17.617188 C 42.269531 17.628906 42.367188 17.640625 42.460938 17.660156 C 42.554688 17.679688 42.648438 17.703125 42.742188 17.730469 C 42.832031 17.757812 42.925781 17.792969 43.011719 17.828125 C 43.101562 17.863281 43.191406 17.90625 43.273438 17.953125 C 43.359375 17.996094 43.441406 18.046875 43.523438 18.101562 C 43.601562 18.152344 43.679688 18.210938 43.753906 18.273438 C 43.828125 18.332031 43.902344 18.398438 43.96875 18.464844 C 44.035156 18.535156 44.101562 18.605469 44.164062 18.679688 C 44.222656 18.753906 44.28125 18.832031 44.335938 18.914062 C 44.386719 18.992188 44.4375 19.074219 44.484375 19.160156 C 44.527344 19.246094 44.570312 19.332031 44.605469 19.421875 C 44.644531 19.511719 44.675781 19.601562 44.703125 19.695312 C 44.730469 19.785156 44.753906 19.878906 44.773438 19.972656 C 44.792969 20.070312 44.808594 20.164062 44.816406 20.261719 C 44.828125 20.355469 44.832031 20.453125 44.832031 20.546875 Z M 44.832031 20.546875 " fill-opacity="1" fill-rule="nonzero"/><path fill="#ffffff" d="M 83.109375 83.855469 C 83.109375 83.949219 83.105469 84.046875 83.09375 84.144531 C 83.085938 84.238281 83.070312 84.335938 83.050781 84.429688 C 83.035156 84.523438 83.011719 84.617188 82.980469 84.710938 C 82.953125 84.800781 82.921875 84.890625 82.886719 84.980469 C 82.847656 85.070312 82.808594 85.15625 82.761719 85.242188 C 82.714844 85.328125 82.667969 85.410156 82.613281 85.492188 C 82.558594 85.570312 82.503906 85.648438 82.441406 85.722656 C 82.378906 85.796875 82.316406 85.867188 82.246094 85.9375 C 82.179688 86.003906 82.105469 86.070312 82.03125 86.128906 C 81.957031 86.191406 81.878906 86.25 81.800781 86.304688 C 81.71875 86.355469 81.636719 86.40625 81.550781 86.453125 C 81.46875 86.496094 81.378906 86.539062 81.292969 86.574219 C 81.203125 86.613281 81.113281 86.644531 81.019531 86.671875 C 80.925781 86.699219 80.832031 86.722656 80.738281 86.742188 C 80.644531 86.761719 80.550781 86.777344 80.453125 86.785156 C 80.355469 86.792969 80.261719 86.800781 80.164062 86.800781 C 80.066406 86.800781 79.972656 86.792969 79.875 86.785156 C 79.78125 86.777344 79.683594 86.761719 79.589844 86.742188 C 79.496094 86.722656 79.402344 86.699219 79.308594 86.671875 C 79.21875 86.644531 79.125 86.613281 79.039062 86.574219 C 78.949219 86.539062 78.863281 86.496094 78.777344 86.453125 C 78.691406 86.40625 78.609375 86.355469 78.527344 86.304688 C 78.449219 86.25 78.371094 86.191406 78.296875 86.128906 C 78.222656 86.070312 78.152344 86.003906 78.082031 85.9375 C 78.015625 85.867188 77.949219 85.796875 77.886719 85.722656 C 77.828125 85.648438 77.769531 85.570312 77.714844 85.492188 C 77.664062 85.410156 77.613281 85.328125 77.566406 85.242188 C 77.523438 85.15625 77.480469 85.070312 77.445312 84.980469 C 77.40625 84.890625 77.375 84.800781 77.347656 84.710938 C 77.320312 84.617188 77.296875 84.523438 77.277344 84.429688 C 77.257812 84.335938 77.242188 84.238281 77.234375 84.144531 C 77.226562 84.046875 77.21875 83.949219 77.21875 83.855469 C 77.21875 83.757812 77.226562 83.660156 77.234375 83.566406 C 77.242188 83.46875 77.257812 83.375 77.277344 83.28125 C 77.296875 83.1875 77.320312 83.09375 77.347656 83 C 77.375 82.90625 77.40625 82.816406 77.445312 82.726562 C 77.480469 82.640625 77.523438 82.550781 77.566406 82.464844 C 77.613281 82.382812 77.664062 82.300781 77.714844 82.21875 C 77.769531 82.136719 77.828125 82.0625 77.886719 81.988281 C 77.949219 81.914062 78.015625 81.839844 78.082031 81.773438 C 78.152344 81.703125 78.222656 81.640625 78.296875 81.578125 C 78.371094 81.515625 78.449219 81.460938 78.527344 81.40625 C 78.609375 81.351562 78.691406 81.304688 78.777344 81.257812 C 78.863281 81.210938 78.949219 81.171875 79.039062 81.132812 C 79.125 81.097656 79.21875 81.066406 79.308594 81.035156 C 79.402344 81.007812 79.496094 80.984375 79.589844 80.96875 C 79.683594 80.949219 79.78125 80.933594 79.875 80.925781 C 79.972656 80.914062 80.066406 80.910156 80.164062 80.910156 C 80.261719 80.910156 80.355469 80.914062 80.453125 80.925781 C 80.550781 80.933594 80.644531 80.949219 80.738281 80.96875 C 80.832031 80.984375 80.925781 81.007812 81.019531 81.035156 C 81.113281 81.066406 81.203125 81.097656 81.292969 81.132812 C 81.378906 81.171875 81.46875 81.210938 81.550781 81.257812 C 81.636719 81.304688 81.71875 81.351562 81.800781 81.40625 C 81.878906 81.460938 81.957031 81.515625 82.03125 81.578125 C 82.105469 81.640625 82.179688 81.703125 82.246094 81.773438 C 82.316406 81.839844 82.378906 81.914062 82.441406 81.988281 C 82.503906 82.0625 82.558594 82.136719 82.613281 82.21875 C 82.667969 82.300781 82.714844 82.382812 82.761719 82.464844 C 82.808594 82.550781 82.847656 82.640625 82.886719 82.726562 C 82.921875 82.816406 82.953125 82.90625 82.980469 83 C 83.011719 83.09375 83.035156 83.1875 83.050781 83.28125 C 83.070312 83.375 83.085938 83.46875 83.09375 83.566406 C 83.105469 83.660156 83.109375 83.757812 83.109375 83.855469 Z M 83.109375 83.855469 " fill-opacity="1" fill-rule="nonzero"/><path fill="#f8f8f8" d="M 47.773438 73.550781 C 47.773438 73.644531 47.769531 73.742188 47.761719 73.835938 C 47.75 73.933594 47.738281 74.027344 47.71875 74.125 C 47.699219 74.21875 47.675781 74.3125 47.648438 74.402344 C 47.621094 74.496094 47.589844 74.585938 47.550781 74.675781 C 47.515625 74.765625 47.472656 74.851562 47.429688 74.9375 C 47.382812 75.023438 47.332031 75.105469 47.277344 75.183594 C 47.226562 75.265625 47.167969 75.34375 47.105469 75.417969 C 47.046875 75.492188 46.980469 75.5625 46.914062 75.632812 C 46.84375 75.699219 46.773438 75.765625 46.699219 75.824219 C 46.625 75.886719 46.546875 75.945312 46.464844 75.996094 C 46.386719 76.050781 46.304688 76.101562 46.21875 76.144531 C 46.132812 76.191406 46.046875 76.230469 45.957031 76.269531 C 45.867188 76.304688 45.777344 76.339844 45.6875 76.367188 C 45.59375 76.394531 45.5 76.417969 45.40625 76.4375 C 45.3125 76.457031 45.214844 76.46875 45.121094 76.480469 C 45.023438 76.488281 44.925781 76.492188 44.832031 76.492188 C 44.734375 76.492188 44.636719 76.488281 44.542969 76.480469 C 44.445312 76.46875 44.351562 76.457031 44.257812 76.4375 C 44.160156 76.417969 44.070312 76.394531 43.976562 76.367188 C 43.882812 76.339844 43.792969 76.304688 43.703125 76.269531 C 43.613281 76.230469 43.527344 76.191406 43.441406 76.144531 C 43.359375 76.101562 43.273438 76.050781 43.195312 75.996094 C 43.113281 75.945312 43.039062 75.886719 42.964844 75.824219 C 42.886719 75.765625 42.816406 75.699219 42.75 75.632812 C 42.679688 75.5625 42.617188 75.492188 42.554688 75.417969 C 42.492188 75.34375 42.4375 75.265625 42.382812 75.183594 C 42.328125 75.105469 42.28125 75.023438 42.234375 74.9375 C 42.1875 74.851562 42.148438 74.765625 42.109375 74.675781 C 42.074219 74.585938 42.042969 74.496094 42.011719 74.402344 C 41.984375 74.3125 41.960938 74.21875 41.941406 74.125 C 41.925781 74.027344 41.910156 73.933594 41.902344 73.835938 C 41.890625 73.742188 41.886719 73.644531 41.886719 73.550781 C 41.886719 73.453125 41.890625 73.355469 41.902344 73.261719 C 41.910156 73.164062 41.925781 73.070312 41.941406 72.972656 C 41.960938 72.878906 41.984375 72.785156 42.011719 72.695312 C 42.042969 72.601562 42.074219 72.511719 42.109375 72.421875 C 42.148438 72.332031 42.1875 72.246094 42.234375 72.160156 C 42.28125 72.074219 42.328125 71.992188 42.382812 71.914062 C 42.4375 71.832031 42.492188 71.753906 42.554688 71.679688 C 42.617188 71.605469 42.679688 71.535156 42.75 71.46875 C 42.816406 71.398438 42.886719 71.335938 42.964844 71.273438 C 43.039062 71.210938 43.113281 71.15625 43.195312 71.101562 C 43.273438 71.046875 43.359375 70.996094 43.441406 70.953125 C 43.527344 70.90625 43.613281 70.867188 43.703125 70.828125 C 43.792969 70.792969 43.882812 70.757812 43.976562 70.730469 C 44.070312 70.703125 44.160156 70.679688 44.257812 70.660156 C 44.351562 70.640625 44.445312 70.628906 44.542969 70.617188 C 44.636719 70.609375 44.734375 70.605469 44.832031 70.605469 C 44.925781 70.605469 45.023438 70.609375 45.121094 70.617188 C 45.214844 70.628906 45.3125 70.640625 45.40625 70.660156 C 45.5 70.679688 45.59375 70.703125 45.6875 70.730469 C 45.777344 70.757812 45.867188 70.792969 45.957031 70.828125 C 46.046875 70.867188 46.132812 70.90625 46.21875 70.953125 C 46.304688 70.996094 46.386719 71.046875 46.464844 71.101562 C 46.546875 71.15625 46.625 71.210938 46.699219 71.273438 C 46.773438 71.335938 46.84375 71.398438 46.914062 71.46875 C 46.980469 71.535156 47.046875 71.605469 47.105469 71.679688 C 47.167969 71.753906 47.226562 71.832031 47.277344 71.914062 C 47.332031 71.992188 47.382812 72.074219 47.429688 72.160156 C 47.472656 72.246094 47.515625 72.332031 47.550781 72.421875 C 47.589844 72.511719 47.621094 72.601562 47.648438 72.695312 C 47.675781 72.785156 47.699219 72.878906 47.71875 72.972656 C 47.738281 73.070312 47.75 73.164062 47.761719 73.261719 C 47.769531 73.355469 47.773438 73.453125 47.773438 73.550781 Z M 47.773438 73.550781 " fill-opacity="1" fill-rule="nonzero"/><path fill="#f8f8f8" d="M 47.773438 63.242188 C 47.773438 63.339844 47.769531 63.4375 47.761719 63.53125 C 47.75 63.628906 47.738281 63.722656 47.71875 63.816406 C 47.699219 63.914062 47.675781 64.003906 47.648438 64.097656 C 47.621094 64.191406 47.589844 64.28125 47.550781 64.371094 C 47.515625 64.460938 47.472656 64.546875 47.429688 64.632812 C 47.382812 64.714844 47.332031 64.800781 47.277344 64.878906 C 47.226562 64.960938 47.167969 65.035156 47.105469 65.109375 C 47.046875 65.1875 46.980469 65.257812 46.914062 65.324219 C 46.84375 65.394531 46.773438 65.457031 46.699219 65.519531 C 46.625 65.582031 46.546875 65.636719 46.464844 65.691406 C 46.386719 65.746094 46.304688 65.792969 46.21875 65.839844 C 46.132812 65.886719 46.046875 65.925781 45.957031 65.964844 C 45.867188 66 45.777344 66.03125 45.6875 66.0625 C 45.59375 66.089844 45.5 66.113281 45.40625 66.132812 C 45.3125 66.148438 45.214844 66.164062 45.121094 66.171875 C 45.023438 66.183594 44.925781 66.1875 44.832031 66.1875 C 44.734375 66.1875 44.636719 66.183594 44.542969 66.171875 C 44.445312 66.164062 44.351562 66.148438 44.257812 66.132812 C 44.160156 66.113281 44.070312 66.089844 43.976562 66.0625 C 43.882812 66.03125 43.792969 66 43.703125 65.964844 C 43.613281 65.925781 43.527344 65.886719 43.441406 65.839844 C 43.359375 65.792969 43.273438 65.746094 43.195312 65.691406 C 43.113281 65.636719 43.039062 65.582031 42.964844 65.519531 C 42.886719 65.457031 42.816406 65.394531 42.75 65.324219 C 42.679688 65.257812 42.617188 65.1875 42.554688 65.109375 C 42.492188 65.035156 42.4375 64.960938 42.382812 64.878906 C 42.328125 64.800781 42.28125 64.714844 42.234375 64.632812 C 42.1875 64.546875 42.148438 64.460938 42.109375 64.371094 C 42.074219 64.28125 42.042969 64.191406 42.011719 64.097656 C 41.984375 64.003906 41.960938 63.914062 41.941406 63.816406 C 41.925781 63.722656 41.910156 63.628906 41.902344 63.53125 C 41.890625 63.4375 41.886719 63.339844 41.886719 63.242188 C 41.886719 63.148438 41.890625 63.050781 41.902344 62.953125 C 41.910156 62.859375 41.925781 62.761719 41.941406 62.667969 C 41.960938 62.574219 41.984375 62.480469 42.011719 62.386719 C 42.042969 62.296875 42.074219 62.207031 42.109375 62.117188 C 42.148438 62.027344 42.1875 61.941406 42.234375 61.855469 C 42.28125 61.769531 42.328125 61.6875 42.382812 61.605469 C 42.4375 61.527344 42.492188 61.449219 42.554688 61.375 C 42.617188 61.300781 42.679688 61.230469 42.75 61.160156 C 42.816406 61.09375 42.886719 61.027344 42.964844 60.96875 C 43.039062 60.90625 43.113281 60.847656 43.195312 60.796875 C 43.273438 60.742188 43.359375 60.691406 43.441406 60.648438 C 43.527344 60.601562 43.613281 60.558594 43.703125 60.523438 C 43.792969 60.484375 43.882812 60.453125 43.976562 60.425781 C 44.070312 60.398438 44.160156 60.375 44.257812 60.355469 C 44.351562 60.335938 44.445312 60.324219 44.542969 60.3125 C 44.636719 60.304688 44.734375 60.296875 44.832031 60.296875 C 44.925781 60.296875 45.023438 60.304688 45.121094 60.3125 C 45.214844 60.324219 45.3125 60.335938 45.40625 60.355469 C 45.5 60.375 45.59375 60.398438 45.6875 60.425781 C 45.777344 60.453125 45.867188 60.484375 45.957031 60.523438 C 46.046875 60.558594 46.132812 60.601562 46.21875 60.648438 C 46.304688 60.691406 46.386719 60.742188 46.464844 60.796875 C 46.546875 60.847656 46.625 60.90625 46.699219 60.96875 C 46.773438 61.027344 46.84375 61.09375 46.914062 61.160156 C 46.980469 61.230469 47.046875 61.300781 47.105469 61.375 C 47.167969 61.449219 47.226562 61.527344 47.277344 61.605469 C 47.332031 61.6875 47.382812 61.769531 47.429688 61.855469 C 47.472656 61.941406 47.515625 62.027344 47.550781 62.117188 C 47.589844 62.207031 47.621094 62.296875 47.648438 62.386719 C 47.675781 62.480469 47.699219 62.574219 47.71875 62.667969 C 47.738281 62.761719 47.75 62.859375 47.761719 62.953125 C 47.769531 63.050781 47.773438 63.148438 47.773438 63.242188 Z M 47.773438 63.242188 " fill-opacity="1" fill-rule="nonzero"/><path fill="#f8f8f8" d="M 47.773438 52.9375 C 47.773438 53.035156 47.769531 53.128906 47.761719 53.226562 C 47.75 53.320312 47.738281 53.417969 47.71875 53.511719 C 47.699219 53.605469 47.675781 53.699219 47.648438 53.792969 C 47.621094 53.882812 47.589844 53.976562 47.550781 54.066406 C 47.515625 54.152344 47.472656 54.242188 47.429688 54.324219 C 47.382812 54.410156 47.332031 54.492188 47.277344 54.574219 C 47.226562 54.652344 47.167969 54.730469 47.105469 54.804688 C 47.046875 54.878906 46.980469 54.953125 46.914062 55.019531 C 46.84375 55.089844 46.773438 55.152344 46.699219 55.214844 C 46.625 55.273438 46.546875 55.332031 46.464844 55.386719 C 46.386719 55.441406 46.304688 55.488281 46.21875 55.535156 C 46.132812 55.578125 46.046875 55.621094 45.957031 55.65625 C 45.867188 55.695312 45.777344 55.726562 45.6875 55.753906 C 45.59375 55.785156 45.5 55.808594 45.40625 55.824219 C 45.3125 55.84375 45.214844 55.859375 45.121094 55.867188 C 45.023438 55.878906 44.925781 55.882812 44.832031 55.882812 C 44.734375 55.882812 44.636719 55.878906 44.542969 55.867188 C 44.445312 55.859375 44.351562 55.84375 44.257812 55.824219 C 44.160156 55.808594 44.070312 55.785156 43.976562 55.753906 C 43.882812 55.726562 43.792969 55.695312 43.703125 55.65625 C 43.613281 55.621094 43.527344 55.578125 43.441406 55.535156 C 43.359375 55.488281 43.273438 55.441406 43.195312 55.386719 C 43.113281 55.332031 43.039062 55.273438 42.964844 55.214844 C 42.886719 55.152344 42.816406 55.089844 42.75 55.019531 C 42.679688 54.953125 42.617188 54.878906 42.554688 54.804688 C 42.492188 54.730469 42.4375 54.652344 42.382812 54.574219 C 42.328125 54.492188 42.28125 54.410156 42.234375 54.324219 C 42.1875 54.242188 42.148438 54.152344 42.109375 54.066406 C 42.074219 53.976562 42.042969 53.882812 42.011719 53.792969 C 41.984375 53.699219 41.960938 53.605469 41.941406 53.511719 C 41.925781 53.417969 41.910156 53.320312 41.902344 53.226562 C 41.890625 53.128906 41.886719 53.035156 41.886719 52.9375 C 41.886719 52.839844 41.890625 52.746094 41.902344 52.648438 C 41.910156 52.554688 41.925781 52.457031 41.941406 52.363281 C 41.960938 52.269531 41.984375 52.175781 42.011719 52.082031 C 42.042969 51.992188 42.074219 51.898438 42.109375 51.8125 C 42.148438 51.722656 42.1875 51.632812 42.234375 51.550781 C 42.28125 51.464844 42.328125 51.382812 42.382812 51.300781 C 42.4375 51.222656 42.492188 51.144531 42.554688 51.070312 C 42.617188 50.996094 42.679688 50.921875 42.75 50.855469 C 42.816406 50.789062 42.886719 50.722656 42.964844 50.660156 C 43.039062 50.601562 43.113281 50.542969 43.195312 50.488281 C 43.273438 50.4375 43.359375 50.386719 43.441406 50.339844 C 43.527344 50.296875 43.613281 50.253906 43.703125 50.21875 C 43.792969 50.179688 43.882812 50.148438 43.976562 50.121094 C 44.070312 50.09375 44.160156 50.070312 44.257812 50.050781 C 44.351562 50.03125 44.445312 50.015625 44.542969 50.007812 C 44.636719 49.996094 44.734375 49.992188 44.832031 49.992188 C 44.925781 49.992188 45.023438 49.996094 45.121094 50.007812 C 45.214844 50.015625 45.3125 50.03125 45.40625 50.050781 C 45.5 50.070312 45.59375 50.09375 45.6875 50.121094 C 45.777344 50.148438 45.867188 50.179688 45.957031 50.21875 C 46.046875 50.253906 46.132812 50.296875 46.21875 50.339844 C 46.304688 50.386719 46.386719 50.4375 46.464844 50.488281 C 46.546875 50.542969 46.625 50.601562 46.699219 50.660156 C 46.773438 50.722656 46.84375 50.789062 46.914062 50.855469 C 46.980469 50.921875 47.046875 50.996094 47.105469 51.070312 C 47.167969 51.144531 47.226562 51.222656 47.277344 51.300781 C 47.332031 51.382812 47.382812 51.464844 47.429688 51.550781 C 47.472656 51.632812 47.515625 51.722656 47.550781 51.8125 C 47.589844 51.898438 47.621094 51.992188 47.648438 52.082031 C 47.675781 52.175781 47.699219 52.269531 47.71875 52.363281 C 47.738281 52.457031 47.75 52.554688 47.761719 52.648438 C 47.769531 52.746094 47.773438 52.839844 47.773438 52.9375 Z M 47.773438 52.9375 " fill-opacity="1" fill-rule="nonzero"/><path fill="#f8f8f8" d="M 38.941406 69.132812 C 38.941406 69.230469 38.9375 69.324219 38.925781 69.421875 C 38.917969 69.515625 38.902344 69.613281 38.886719 69.707031 C 38.867188 69.800781 38.84375 69.894531 38.816406 69.988281 C 38.789062 70.078125 38.753906 70.171875 38.71875 70.257812 C 38.679688 70.347656 38.640625 70.433594 38.59375 70.519531 C 38.546875 70.605469 38.5 70.6875 38.445312 70.769531 C 38.390625 70.847656 38.335938 70.925781 38.273438 71 C 38.210938 71.074219 38.148438 71.144531 38.078125 71.214844 C 38.011719 71.28125 37.941406 71.347656 37.867188 71.410156 C 37.789062 71.46875 37.714844 71.527344 37.632812 71.582031 C 37.554688 71.632812 37.46875 71.683594 37.386719 71.730469 C 37.300781 71.773438 37.214844 71.816406 37.125 71.851562 C 37.035156 71.890625 36.945312 71.921875 36.851562 71.949219 C 36.761719 71.976562 36.667969 72 36.570312 72.019531 C 36.476562 72.039062 36.382812 72.054688 36.285156 72.0625 C 36.191406 72.070312 36.09375 72.078125 35.996094 72.078125 C 35.902344 72.078125 35.804688 72.070312 35.707031 72.0625 C 35.613281 72.054688 35.519531 72.039062 35.421875 72.019531 C 35.328125 72 35.234375 71.976562 35.144531 71.949219 C 35.050781 71.921875 34.960938 71.890625 34.871094 71.851562 C 34.78125 71.816406 34.695312 71.773438 34.609375 71.730469 C 34.523438 71.683594 34.441406 71.632812 34.363281 71.582031 C 34.28125 71.527344 34.203125 71.46875 34.128906 71.410156 C 34.054688 71.347656 33.984375 71.28125 33.914062 71.214844 C 33.847656 71.144531 33.78125 71.074219 33.722656 71 C 33.660156 70.925781 33.601562 70.847656 33.550781 70.769531 C 33.496094 70.6875 33.445312 70.605469 33.402344 70.519531 C 33.355469 70.433594 33.3125 70.347656 33.277344 70.257812 C 33.242188 70.171875 33.207031 70.078125 33.179688 69.988281 C 33.152344 69.894531 33.128906 69.800781 33.109375 69.707031 C 33.089844 69.613281 33.078125 69.515625 33.066406 69.421875 C 33.058594 69.324219 33.054688 69.230469 33.054688 69.132812 C 33.054688 69.035156 33.058594 68.941406 33.066406 68.84375 C 33.078125 68.746094 33.089844 68.652344 33.109375 68.558594 C 33.128906 68.464844 33.152344 68.371094 33.179688 68.277344 C 33.207031 68.183594 33.242188 68.09375 33.277344 68.003906 C 33.3125 67.917969 33.355469 67.828125 33.402344 67.746094 C 33.445312 67.660156 33.496094 67.578125 33.550781 67.496094 C 33.601562 67.417969 33.660156 67.339844 33.722656 67.265625 C 33.78125 67.191406 33.847656 67.117188 33.914062 67.050781 C 33.984375 66.980469 34.054688 66.917969 34.128906 66.855469 C 34.203125 66.796875 34.28125 66.738281 34.363281 66.683594 C 34.441406 66.628906 34.523438 66.582031 34.609375 66.535156 C 34.695312 66.488281 34.78125 66.449219 34.871094 66.410156 C 34.960938 66.375 35.050781 66.34375 35.144531 66.316406 C 35.234375 66.285156 35.328125 66.261719 35.421875 66.246094 C 35.519531 66.226562 35.613281 66.210938 35.707031 66.203125 C 35.804688 66.191406 35.902344 66.1875 35.996094 66.1875 C 36.09375 66.1875 36.191406 66.191406 36.285156 66.203125 C 36.382812 66.210938 36.476562 66.226562 36.570312 66.246094 C 36.667969 66.261719 36.761719 66.285156 36.851562 66.316406 C 36.945312 66.34375 37.035156 66.375 37.125 66.410156 C 37.214844 66.449219 37.300781 66.488281 37.386719 66.535156 C 37.46875 66.582031 37.554688 66.628906 37.632812 66.683594 C 37.714844 66.738281 37.789062 66.796875 37.867188 66.855469 C 37.941406 66.917969 38.011719 66.980469 38.078125 67.050781 C 38.148438 67.117188 38.210938 67.191406 38.273438 67.265625 C 38.335938 67.339844 38.390625 67.417969 38.445312 67.496094 C 38.5 67.578125 38.546875 67.660156 38.59375 67.746094 C 38.640625 67.828125 38.679688 67.917969 38.71875 68.003906 C 38.753906 68.09375 38.789062 68.183594 38.816406 68.277344 C 38.84375 68.371094 38.867188 68.464844 38.886719 68.558594 C 38.902344 68.652344 38.917969 68.746094 38.925781 68.84375 C 38.9375 68.941406 38.941406 69.035156 38.941406 69.132812 Z M 38.941406 69.132812 " fill-opacity="1" fill-rule="nonzero"/><path fill="#f8f8f8" d="M 56.609375 69.132812 C 56.609375 69.230469 56.605469 69.324219 56.59375 69.421875 C 56.585938 69.515625 56.570312 69.613281 56.550781 69.707031 C 56.535156 69.800781 56.511719 69.894531 56.480469 69.988281 C 56.453125 70.078125 56.421875 70.171875 56.386719 70.257812 C 56.347656 70.347656 56.304688 70.433594 56.261719 70.519531 C 56.214844 70.605469 56.167969 70.6875 56.113281 70.769531 C 56.058594 70.847656 56 70.925781 55.941406 71 C 55.878906 71.074219 55.816406 71.144531 55.746094 71.214844 C 55.679688 71.28125 55.605469 71.347656 55.53125 71.410156 C 55.457031 71.46875 55.378906 71.527344 55.300781 71.582031 C 55.21875 71.632812 55.136719 71.683594 55.050781 71.730469 C 54.96875 71.773438 54.878906 71.816406 54.792969 71.851562 C 54.703125 71.890625 54.613281 71.921875 54.519531 71.949219 C 54.425781 71.976562 54.332031 72 54.238281 72.019531 C 54.144531 72.039062 54.050781 72.054688 53.953125 72.0625 C 53.855469 72.070312 53.761719 72.078125 53.664062 72.078125 C 53.566406 72.078125 53.472656 72.070312 53.375 72.0625 C 53.28125 72.054688 53.183594 72.039062 53.089844 72.019531 C 52.996094 72 52.902344 71.976562 52.808594 71.949219 C 52.71875 71.921875 52.625 71.890625 52.539062 71.851562 C 52.449219 71.816406 52.363281 71.773438 52.277344 71.730469 C 52.191406 71.683594 52.109375 71.632812 52.027344 71.582031 C 51.949219 71.527344 51.871094 71.46875 51.796875 71.410156 C 51.722656 71.347656 51.652344 71.28125 51.582031 71.214844 C 51.515625 71.144531 51.449219 71.074219 51.386719 71 C 51.328125 70.925781 51.269531 70.847656 51.214844 70.769531 C 51.164062 70.6875 51.113281 70.605469 51.066406 70.519531 C 51.023438 70.433594 50.980469 70.347656 50.945312 70.257812 C 50.90625 70.171875 50.875 70.078125 50.847656 69.988281 C 50.820312 69.894531 50.796875 69.800781 50.777344 69.707031 C 50.757812 69.613281 50.742188 69.515625 50.734375 69.421875 C 50.726562 69.324219 50.71875 69.230469 50.71875 69.132812 C 50.71875 69.035156 50.726562 68.941406 50.734375 68.84375 C 50.742188 68.746094 50.757812 68.652344 50.777344 68.558594 C 50.796875 68.464844 50.820312 68.371094 50.847656 68.277344 C 50.875 68.183594 50.90625 68.09375 50.945312 68.003906 C 50.980469 67.917969 51.023438 67.828125 51.066406 67.746094 C 51.113281 67.660156 51.164062 67.578125 51.214844 67.496094 C 51.269531 67.417969 51.328125 67.339844 51.386719 67.265625 C 51.449219 67.191406 51.515625 67.117188 51.582031 67.050781 C 51.652344 66.980469 51.722656 66.917969 51.796875 66.855469 C 51.871094 66.796875 51.949219 66.738281 52.027344 66.683594 C 52.109375 66.628906 52.191406 66.582031 52.277344 66.535156 C 52.363281 66.488281 52.449219 66.449219 52.539062 66.410156 C 52.625 66.375 52.71875 66.34375 52.808594 66.316406 C 52.902344 66.285156 52.996094 66.261719 53.089844 66.246094 C 53.183594 66.226562 53.28125 66.210938 53.375 66.203125 C 53.472656 66.191406 53.566406 66.1875 53.664062 66.1875 C 53.761719 66.1875 53.855469 66.191406 53.953125 66.203125 C 54.050781 66.210938 54.144531 66.226562 54.238281 66.246094 C 54.332031 66.261719 54.425781 66.285156 54.519531 66.316406 C 54.613281 66.34375 54.703125 66.375 54.792969 66.410156 C 54.878906 66.449219 54.96875 66.488281 55.050781 66.535156 C 55.136719 66.582031 55.21875 66.628906 55.300781 66.683594 C 55.378906 66.738281 55.457031 66.796875 55.53125 66.855469 C 55.605469 66.917969 55.679688 66.980469 55.746094 67.050781 C 55.816406 67.117188 55.878906 67.191406 55.941406 67.265625 C 56 67.339844 56.058594 67.417969 56.113281 67.496094 C 56.167969 67.578125 56.214844 67.660156 56.261719 67.746094 C 56.304688 67.828125 56.347656 67.917969 56.386719 68.003906 C 56.421875 68.09375 56.453125 68.183594 56.480469 68.277344 C 56.511719 68.371094 56.535156 68.464844 56.550781 68.558594 C 56.570312 68.652344 56.585938 68.746094 56.59375 68.84375 C 56.605469 68.941406 56.609375 69.035156 56.609375 69.132812 Z M 56.609375 69.132812 " fill-opacity="1" fill-rule="nonzero"/><path fill="#f8f8f8" d="M 56.609375 58.828125 C 56.609375 58.921875 56.605469 59.019531 56.59375 59.113281 C 56.585938 59.210938 56.570312 59.304688 56.550781 59.402344 C 56.535156 59.496094 56.511719 59.589844 56.480469 59.679688 C 56.453125 59.773438 56.421875 59.863281 56.386719 59.953125 C 56.347656 60.042969 56.304688 60.128906 56.261719 60.214844 C 56.214844 60.300781 56.167969 60.382812 56.113281 60.460938 C 56.058594 60.542969 56 60.621094 55.941406 60.695312 C 55.878906 60.769531 55.816406 60.839844 55.746094 60.910156 C 55.679688 60.976562 55.605469 61.042969 55.53125 61.101562 C 55.457031 61.164062 55.378906 61.222656 55.300781 61.273438 C 55.21875 61.328125 55.136719 61.378906 55.050781 61.421875 C 54.96875 61.46875 54.878906 61.511719 54.792969 61.546875 C 54.703125 61.582031 54.613281 61.617188 54.519531 61.644531 C 54.425781 61.671875 54.332031 61.695312 54.238281 61.714844 C 54.144531 61.734375 54.050781 61.746094 53.953125 61.757812 C 53.855469 61.765625 53.761719 61.769531 53.664062 61.769531 C 53.566406 61.769531 53.472656 61.765625 53.375 61.757812 C 53.28125 61.746094 53.183594 61.734375 53.089844 61.714844 C 52.996094 61.695312 52.902344 61.671875 52.808594 61.644531 C 52.71875 61.617188 52.625 61.582031 52.539062 61.546875 C 52.449219 61.511719 52.363281 61.46875 52.277344 61.421875 C 52.191406 61.378906 52.109375 61.328125 52.027344 61.273438 C 51.949219 61.222656 51.871094 61.164062 51.796875 61.101562 C 51.722656 61.042969 51.652344 60.976562 51.582031 60.910156 C 51.515625 60.839844 51.449219 60.769531 51.386719 60.695312 C 51.328125 60.621094 51.269531 60.542969 51.214844 60.460938 C 51.164062 60.382812 51.113281 60.300781 51.066406 60.214844 C 51.023438 60.128906 50.980469 60.042969 50.945312 59.953125 C 50.90625 59.863281 50.875 59.773438 50.847656 59.679688 C 50.820312 59.589844 50.796875 59.496094 50.777344 59.402344 C 50.757812 59.304688 50.742188 59.210938 50.734375 59.113281 C 50.726562 59.019531 50.71875 58.921875 50.71875 58.828125 C 50.71875 58.730469 50.726562 58.632812 50.734375 58.539062 C 50.742188 58.441406 50.757812 58.347656 50.777344 58.253906 C 50.796875 58.15625 50.820312 58.0625 50.847656 57.972656 C 50.875 57.878906 50.90625 57.789062 50.945312 57.699219 C 50.980469 57.609375 51.023438 57.523438 51.066406 57.4375 C 51.113281 57.351562 51.164062 57.269531 51.214844 57.191406 C 51.269531 57.109375 51.328125 57.035156 51.386719 56.957031 C 51.449219 56.882812 51.515625 56.8125 51.582031 56.746094 C 51.652344 56.675781 51.722656 56.613281 51.796875 56.550781 C 51.871094 56.488281 51.949219 56.433594 52.027344 56.378906 C 52.109375 56.324219 52.191406 56.277344 52.277344 56.230469 C 52.363281 56.183594 52.449219 56.144531 52.539062 56.105469 C 52.625 56.070312 52.71875 56.035156 52.808594 56.007812 C 52.902344 55.980469 52.996094 55.957031 53.089844 55.9375 C 53.183594 55.921875 53.28125 55.90625 53.375 55.894531 C 53.472656 55.886719 53.566406 55.882812 53.664062 55.882812 C 53.761719 55.882812 53.855469 55.886719 53.953125 55.894531 C 54.050781 55.90625 54.144531 55.921875 54.238281 55.9375 C 54.332031 55.957031 54.425781 55.980469 54.519531 56.007812 C 54.613281 56.035156 54.703125 56.070312 54.792969 56.105469 C 54.878906 56.144531 54.96875 56.183594 55.050781 56.230469 C 55.136719 56.277344 55.21875 56.324219 55.300781 56.378906 C 55.378906 56.433594 55.457031 56.488281 55.53125 56.550781 C 55.605469 56.613281 55.679688 56.675781 55.746094 56.746094 C 55.816406 56.8125 55.878906 56.882812 55.941406 56.957031 C 56 57.035156 56.058594 57.109375 56.113281 57.191406 C 56.167969 57.269531 56.214844 57.351562 56.261719 57.4375 C 56.304688 57.523438 56.347656 57.609375 56.386719 57.699219 C 56.421875 57.789062 56.453125 57.878906 56.480469 57.972656 C 56.511719 58.0625 56.535156 58.15625 56.550781 58.253906 C 56.570312 58.347656 56.585938 58.441406 56.59375 58.539062 C 56.605469 58.632812 56.609375 58.730469 56.609375 58.828125 Z M 56.609375 58.828125 " fill-opacity="1" fill-rule="nonzero"/><path fill="#f8f8f8" d="M 38.941406 58.828125 C 38.941406 58.921875 38.9375 59.019531 38.925781 59.113281 C 38.917969 59.210938 38.902344 59.304688 38.886719 59.402344 C 38.867188 59.496094 38.84375 59.589844 38.816406 59.679688 C 38.789062 59.773438 38.753906 59.863281 38.71875 59.953125 C 38.679688 60.042969 38.640625 60.128906 38.59375 60.214844 C 38.546875 60.300781 38.5 60.382812 38.445312 60.460938 C 38.390625 60.542969 38.335938 60.621094 38.273438 60.695312 C 38.210938 60.769531 38.148438 60.839844 38.078125 60.910156 C 38.011719 60.976562 37.941406 61.042969 37.867188 61.101562 C 37.789062 61.164062 37.714844 61.222656 37.632812 61.273438 C 37.554688 61.328125 37.46875 61.378906 37.386719 61.421875 C 37.300781 61.46875 37.214844 61.511719 37.125 61.546875 C 37.035156 61.582031 36.945312 61.617188 36.851562 61.644531 C 36.761719 61.671875 36.667969 61.695312 36.570312 61.714844 C 36.476562 61.734375 36.382812 61.746094 36.285156 61.757812 C 36.191406 61.765625 36.09375 61.769531 35.996094 61.769531 C 35.902344 61.769531 35.804688 61.765625 35.707031 61.757812 C 35.613281 61.746094 35.519531 61.734375 35.421875 61.714844 C 35.328125 61.695312 35.234375 61.671875 35.144531 61.644531 C 35.050781 61.617188 34.960938 61.582031 34.871094 61.546875 C 34.78125 61.511719 34.695312 61.46875 34.609375 61.421875 C 34.523438 61.378906 34.441406 61.328125 34.363281 61.273438 C 34.28125 61.222656 34.203125 61.164062 34.128906 61.101562 C 34.054688 61.042969 33.984375 60.976562 33.914062 60.910156 C 33.847656 60.839844 33.78125 60.769531 33.722656 60.695312 C 33.660156 60.621094 33.601562 60.542969 33.550781 60.460938 C 33.496094 60.382812 33.445312 60.300781 33.402344 60.214844 C 33.355469 60.128906 33.3125 60.042969 33.277344 59.953125 C 33.242188 59.863281 33.207031 59.773438 33.179688 59.679688 C 33.152344 59.589844 33.128906 59.496094 33.109375 59.402344 C 33.089844 59.304688 33.078125 59.210938 33.066406 59.113281 C 33.058594 59.019531 33.054688 58.921875 33.054688 58.828125 C 33.054688 58.730469 33.058594 58.632812 33.066406 58.539062 C 33.078125 58.441406 33.089844 58.347656 33.109375 58.253906 C 33.128906 58.15625 33.152344 58.0625 33.179688 57.972656 C 33.207031 57.878906 33.242188 57.789062 33.277344 57.699219 C 33.3125 57.609375 33.355469 57.523438 33.402344 57.4375 C 33.445312 57.351562 33.496094 57.269531 33.550781 57.191406 C 33.601562 57.109375 33.660156 57.035156 33.722656 56.957031 C 33.78125 56.882812 33.847656 56.8125 33.914062 56.746094 C 33.984375 56.675781 34.054688 56.613281 34.128906 56.550781 C 34.203125 56.488281 34.28125 56.433594 34.363281 56.378906 C 34.441406 56.324219 34.523438 56.277344 34.609375 56.230469 C 34.695312 56.183594 34.78125 56.144531 34.871094 56.105469 C 34.960938 56.070312 35.050781 56.035156 35.144531 56.007812 C 35.234375 55.980469 35.328125 55.957031 35.421875 55.9375 C 35.519531 55.921875 35.613281 55.90625 35.707031 55.894531 C 35.804688 55.886719 35.902344 55.882812 35.996094 55.882812 C 36.09375 55.882812 36.191406 55.886719 36.285156 55.894531 C 36.382812 55.90625 36.476562 55.921875 36.570312 55.9375 C 36.667969 55.957031 36.761719 55.980469 36.851562 56.007812 C 36.945312 56.035156 37.035156 56.070312 37.125 56.105469 C 37.214844 56.144531 37.300781 56.183594 37.386719 56.230469 C 37.46875 56.277344 37.554688 56.324219 37.632812 56.378906 C 37.714844 56.433594 37.789062 56.488281 37.867188 56.550781 C 37.941406 56.613281 38.011719 56.675781 38.078125 56.746094 C 38.148438 56.8125 38.210938 56.882812 38.273438 56.957031 C 38.335938 57.035156 38.390625 57.109375 38.445312 57.191406 C 38.5 57.269531 38.546875 57.351562 38.59375 57.4375 C 38.640625 57.523438 38.679688 57.609375 38.71875 57.699219 C 38.753906 57.789062 38.789062 57.878906 38.816406 57.972656 C 38.84375 58.0625 38.867188 58.15625 38.886719 58.253906 C 38.902344 58.347656 38.917969 58.441406 38.925781 58.539062 C 38.9375 58.632812 38.941406 58.730469 38.941406 58.828125 Z M 38.941406 58.828125 " fill-opacity="1" fill-rule="nonzero"/><g fill="#ffffff" fill-opacity="1"><g transform="translate(102.957281, 68.818587)"><g><path d="M 3.351562 0 L 9.660156 0 L 9.660156 -17.125 L 21.996094 0 L 27.386719 0 L 27.386719 -27.945312 L 21.078125 -27.945312 L 21.078125 -10.9375 L 8.742188 -27.945312 L 3.351562 -27.945312 Z M 3.351562 0 "/></g></g></g><g fill="#ffffff" fill-opacity="1"><g transform="translate(133.679405, 68.818587)"><g><path d="M 14.769531 0.558594 C 22.035156 0.558594 26.46875 -3.992188 26.46875 -11.496094 L 26.46875 -27.945312 L 20.121094 -27.945312 L 20.121094 -11.9375 C 20.121094 -7.664062 18.324219 -5.46875 14.769531 -5.46875 C 11.21875 -5.46875 9.421875 -7.664062 9.421875 -11.9375 L 9.421875 -27.945312 L 3.074219 -27.945312 L 3.074219 -11.496094 C 3.074219 -3.992188 7.503906 0.558594 14.769531 0.558594 Z M 14.769531 0.558594 "/></g></g></g><g fill="#ffffff" fill-opacity="1"><g transform="translate(163.204548, 68.818587)"><g><path d="M 3.351562 0 L 9.699219 0 L 9.699219 -11.296875 L 13.054688 -11.296875 C 13.574219 -11.296875 14.011719 -11.296875 14.492188 -11.335938 L 20.480469 0 L 27.863281 0 L 20.320312 -13.691406 C 21.4375 -14.769531 22.277344 -16.167969 22.996094 -18.003906 L 26.867188 -27.945312 L 20 -27.945312 L 17.367188 -20.679688 C 16.40625 -18.042969 15.25 -17.207031 12.097656 -17.207031 L 9.699219 -17.207031 L 9.699219 -27.945312 L 3.351562 -27.945312 Z M 3.351562 0 "/></g></g></g><g fill="#ffffff" fill-opacity="1"><g transform="translate(192.211016, 68.818587)"><g><path d="M 3.351562 0 L 22.15625 0 L 22.15625 -5.390625 L 9.660156 -5.390625 L 9.660156 -11.496094 L 20.640625 -11.496094 L 20.640625 -16.804688 L 9.660156 -16.804688 L 9.660156 -22.59375 L 21.71875 -22.59375 L 21.71875 -27.945312 L 3.351562 -27.945312 Z M 3.351562 0 "/></g></g></g><g fill="#ffffff" fill-opacity="1"><g transform="translate(216.387767, 68.818587)"><g><path d="M 4.070312 0 L 7.585938 0 L 7.585938 -9.183594 L 13.53125 -9.183594 C 19.839844 -9.183594 23.914062 -12.816406 23.914062 -18.5625 C 23.914062 -24.273438 19.839844 -27.945312 13.53125 -27.945312 L 4.070312 -27.945312 Z M 7.585938 -12.457031 L 7.585938 -24.589844 L 13.453125 -24.589844 C 17.964844 -24.589844 20.320312 -22.515625 20.320312 -18.523438 C 20.320312 -14.53125 17.964844 -12.457031 13.453125 -12.457031 Z M 7.585938 -12.457031 "/></g></g></g><g fill="#ffffff" fill-opacity="1"><g transform="translate(241.883142, 68.818587)"><g><path d="M 10.5 0.320312 C 13.851562 0.320312 16.488281 -0.757812 18.363281 -2.875 L 18.722656 0 L 21.476562 0 L 21.476562 -13.175781 C 21.476562 -17.964844 17.84375 -21.238281 12.414062 -21.238281 C 7.90625 -21.238281 4.511719 -18.800781 3.59375 -14.8125 L 6.984375 -14.8125 C 7.664062 -16.847656 9.78125 -18.125 12.457031 -18.125 C 15.96875 -18.125 18.125 -16.167969 18.125 -12.933594 L 18.125 -12.175781 L 9.660156 -12.175781 C 5.347656 -12.175781 2.515625 -9.742188 2.515625 -5.988281 C 2.515625 -2.074219 5.507812 0.320312 10.5 0.320312 Z M 5.867188 -6.027344 C 5.867188 -7.984375 7.464844 -9.222656 9.78125 -9.222656 L 18.164062 -9.222656 C 18.042969 -5.390625 14.929688 -2.675781 10.617188 -2.675781 C 7.703125 -2.675781 5.867188 -3.992188 5.867188 -6.027344 Z M 5.867188 -6.027344 "/></g></g></g><g fill="#ffffff" fill-opacity="1"><g transform="translate(266.620428, 68.818587)"><g><path d="M 12.65625 0.519531 C 16.007812 0.519531 18.882812 -0.878906 20.757812 -3.195312 L 21.15625 0 L 23.914062 0 L 23.914062 -29.542969 L 20.558594 -29.542969 L 20.558594 -17.804688 C 18.683594 -19.960938 15.886719 -21.238281 12.65625 -21.238281 C 6.507812 -21.238281 2.074219 -16.648438 2.074219 -10.378906 C 2.074219 -4.070312 6.507812 0.519531 12.65625 0.519531 Z M 5.429688 -10.378906 C 5.429688 -14.851562 8.582031 -18.042969 13.054688 -18.042969 C 17.566406 -18.042969 20.679688 -14.851562 20.679688 -10.378906 C 20.679688 -5.867188 17.566406 -2.714844 13.054688 -2.714844 C 8.582031 -2.714844 5.429688 -5.867188 5.429688 -10.378906 Z M 5.429688 -10.378906 "/></g></g></g><g fill="#ffffff" fill-opacity="1"><g transform="translate(190.65952, 94.708769)"><g><path d="M 4.53125 0 L 1.875 -6.921875 L 1.84375 -6.921875 C 1.882812 -6.367188 1.90625 -5.71875 1.90625 -4.96875 L 1.90625 0 L 1.078125 0 L 1.078125 -7.8125 L 2.4375 -7.8125 L 4.90625 -1.375 L 4.953125 -1.375 L 7.453125 -7.8125 L 8.8125 -7.8125 L 8.8125 0 L 7.90625 0 L 7.90625 -5.03125 C 7.90625 -5.601562 7.925781 -6.226562 7.96875 -6.90625 L 7.9375 -6.90625 L 5.265625 0 Z M 4.53125 0 "/></g></g><g transform="translate(200.540053, 94.708769)"><g><path d="M 4.546875 0 L 4.359375 -0.828125 L 4.328125 -0.828125 C 4.023438 -0.460938 3.726562 -0.210938 3.4375 -0.078125 C 3.15625 0.046875 2.796875 0.109375 2.359375 0.109375 C 1.773438 0.109375 1.316406 -0.0390625 0.984375 -0.34375 C 0.660156 -0.644531 0.5 -1.070312 0.5 -1.625 C 0.5 -2.800781 1.445312 -3.421875 3.34375 -3.484375 L 4.328125 -3.515625 L 4.328125 -3.875 C 4.328125 -4.332031 4.226562 -4.671875 4.03125 -4.890625 C 3.832031 -5.109375 3.519531 -5.21875 3.09375 -5.21875 C 2.601562 -5.21875 2.050781 -5.066406 1.4375 -4.765625 L 1.15625 -5.453125 C 1.445312 -5.609375 1.765625 -5.726562 2.109375 -5.8125 C 2.453125 -5.90625 2.796875 -5.953125 3.140625 -5.953125 C 3.835938 -5.953125 4.351562 -5.796875 4.6875 -5.484375 C 5.03125 -5.171875 5.203125 -4.675781 5.203125 -4 L 5.203125 0 Z M 2.53125 -0.625 C 3.082031 -0.625 3.515625 -0.773438 3.828125 -1.078125 C 4.148438 -1.378906 4.3125 -1.800781 4.3125 -2.34375 L 4.3125 -2.875 L 3.421875 -2.84375 C 2.710938 -2.8125 2.203125 -2.695312 1.890625 -2.5 C 1.585938 -2.3125 1.4375 -2.015625 1.4375 -1.609375 C 1.4375 -1.285156 1.53125 -1.039062 1.71875 -0.875 C 1.914062 -0.707031 2.1875 -0.625 2.53125 -0.625 Z M 2.53125 -0.625 "/></g></g><g transform="translate(206.626546, 94.708769)"><g><path d="M 4.921875 -0.78125 L 4.875 -0.78125 C 4.46875 -0.1875 3.851562 0.109375 3.03125 0.109375 C 2.269531 0.109375 1.675781 -0.148438 1.25 -0.671875 C 0.820312 -1.203125 0.609375 -1.945312 0.609375 -2.90625 C 0.609375 -3.875 0.820312 -4.625 1.25 -5.15625 C 1.675781 -5.6875 2.269531 -5.953125 3.03125 -5.953125 C 3.832031 -5.953125 4.441406 -5.664062 4.859375 -5.09375 L 4.9375 -5.09375 L 4.890625 -5.515625 L 4.875 -5.921875 L 4.875 -8.3125 L 5.765625 -8.3125 L 5.765625 0 L 5.046875 0 Z M 3.15625 -0.640625 C 3.757812 -0.640625 4.195312 -0.800781 4.46875 -1.125 C 4.738281 -1.457031 4.875 -1.988281 4.875 -2.71875 L 4.875 -2.90625 C 4.875 -3.738281 4.734375 -4.332031 4.453125 -4.6875 C 4.179688 -5.039062 3.742188 -5.21875 3.140625 -5.21875 C 2.617188 -5.21875 2.21875 -5.015625 1.9375 -4.609375 C 1.664062 -4.203125 1.53125 -3.632812 1.53125 -2.90625 C 1.53125 -2.15625 1.664062 -1.585938 1.9375 -1.203125 C 2.21875 -0.828125 2.625 -0.640625 3.15625 -0.640625 Z M 3.15625 -0.640625 "/></g></g><g transform="translate(213.33291, 94.708769)"><g><path d="M 3.40625 0.109375 C 2.539062 0.109375 1.859375 -0.148438 1.359375 -0.671875 C 0.859375 -1.203125 0.609375 -1.9375 0.609375 -2.875 C 0.609375 -3.820312 0.84375 -4.570312 1.3125 -5.125 C 1.78125 -5.675781 2.40625 -5.953125 3.1875 -5.953125 C 3.914062 -5.953125 4.492188 -5.710938 4.921875 -5.234375 C 5.347656 -4.753906 5.5625 -4.117188 5.5625 -3.328125 L 5.5625 -2.765625 L 1.53125 -2.765625 C 1.550781 -2.078125 1.722656 -1.554688 2.046875 -1.203125 C 2.378906 -0.847656 2.84375 -0.671875 3.4375 -0.671875 C 4.070312 -0.671875 4.695312 -0.800781 5.3125 -1.0625 L 5.3125 -0.265625 C 5 -0.128906 4.703125 -0.0351562 4.421875 0.015625 C 4.140625 0.078125 3.800781 0.109375 3.40625 0.109375 Z M 3.171875 -5.21875 C 2.703125 -5.21875 2.328125 -5.0625 2.046875 -4.75 C 1.765625 -4.445312 1.597656 -4.023438 1.546875 -3.484375 L 4.609375 -3.484375 C 4.609375 -4.046875 4.484375 -4.472656 4.234375 -4.765625 C 3.984375 -5.066406 3.628906 -5.21875 3.171875 -5.21875 Z M 3.171875 -5.21875 "/></g></g><g transform="translate(219.472841, 94.708769)"><g/></g><g transform="translate(222.315698, 94.708769)"><g><path d="M 1.078125 -7.8125 L 3.28125 -7.8125 C 4.3125 -7.8125 5.054688 -7.65625 5.515625 -7.34375 C 5.984375 -7.03125 6.21875 -6.539062 6.21875 -5.875 C 6.21875 -5.414062 6.085938 -5.035156 5.828125 -4.734375 C 5.578125 -4.429688 5.203125 -4.234375 4.703125 -4.140625 L 4.703125 -4.09375 C 5.890625 -3.882812 6.484375 -3.257812 6.484375 -2.21875 C 6.484375 -1.519531 6.242188 -0.972656 5.765625 -0.578125 C 5.296875 -0.191406 4.640625 0 3.796875 0 L 1.078125 0 Z M 1.984375 -4.46875 L 3.484375 -4.46875 C 4.117188 -4.46875 4.578125 -4.566406 4.859375 -4.765625 C 5.140625 -4.960938 5.28125 -5.300781 5.28125 -5.78125 C 5.28125 -6.21875 5.125 -6.53125 4.8125 -6.71875 C 4.5 -6.914062 4 -7.015625 3.3125 -7.015625 L 1.984375 -7.015625 Z M 1.984375 -3.703125 L 1.984375 -0.78125 L 3.609375 -0.78125 C 4.242188 -0.78125 4.71875 -0.898438 5.03125 -1.140625 C 5.351562 -1.378906 5.515625 -1.757812 5.515625 -2.28125 C 5.515625 -2.769531 5.347656 -3.128906 5.015625 -3.359375 C 4.691406 -3.585938 4.195312 -3.703125 3.53125 -3.703125 Z M 1.984375 -3.703125 "/></g></g><g transform="translate(229.40681, 94.708769)"><g><path d="M 0.015625 -5.859375 L 0.96875 -5.859375 L 2.25 -2.515625 C 2.53125 -1.753906 2.703125 -1.203125 2.765625 -0.859375 L 2.8125 -0.859375 C 2.851562 -1.046875 2.945312 -1.359375 3.09375 -1.796875 C 3.25 -2.234375 3.734375 -3.585938 4.546875 -5.859375 L 5.5 -5.859375 L 2.984375 0.8125 C 2.734375 1.46875 2.441406 1.929688 2.109375 2.203125 C 1.773438 2.484375 1.367188 2.625 0.890625 2.625 C 0.617188 2.625 0.347656 2.59375 0.078125 2.53125 L 0.078125 1.828125 C 0.273438 1.867188 0.5 1.890625 0.75 1.890625 C 1.351562 1.890625 1.785156 1.546875 2.046875 0.859375 L 2.375 0.03125 Z M 0.015625 -5.859375 "/></g></g><g transform="translate(234.921526, 94.708769)"><g/></g></g><g fill="#ffffff" fill-opacity="1"><g transform="translate(237.755477, 94.708769)"><g><path d="M 7.453125 -3.984375 C 7.453125 -2.691406 7.085938 -1.703125 6.359375 -1.015625 C 5.628906 -0.335938 4.570312 0 3.1875 0 L 0.984375 0 L 0.984375 -7.8125 L 3.4375 -7.8125 C 4.707031 -7.8125 5.691406 -7.472656 6.390625 -6.796875 C 7.097656 -6.128906 7.453125 -5.191406 7.453125 -3.984375 Z M 5.734375 -3.9375 C 5.734375 -5.613281 4.992188 -6.453125 3.515625 -6.453125 L 2.640625 -6.453125 L 2.640625 -1.375 L 3.34375 -1.375 C 4.9375 -1.375 5.734375 -2.226562 5.734375 -3.9375 Z M 5.734375 -3.9375 "/></g></g><g transform="translate(245.856552, 94.708769)"><g><path d="M 0.78125 -7.515625 C 0.78125 -8.046875 1.078125 -8.3125 1.671875 -8.3125 C 2.265625 -8.3125 2.5625 -8.046875 2.5625 -7.515625 C 2.5625 -7.265625 2.484375 -7.066406 2.328125 -6.921875 C 2.179688 -6.785156 1.960938 -6.71875 1.671875 -6.71875 C 1.078125 -6.71875 0.78125 -6.984375 0.78125 -7.515625 Z M 2.484375 0 L 0.859375 0 L 0.859375 -5.96875 L 2.484375 -5.96875 Z M 2.484375 0 "/></g></g><g transform="translate(249.196375, 94.708769)"><g><path d="M 3.28125 0.109375 C 1.414062 0.109375 0.484375 -0.910156 0.484375 -2.953125 C 0.484375 -3.960938 0.738281 -4.734375 1.25 -5.265625 C 1.757812 -5.804688 2.484375 -6.078125 3.421875 -6.078125 C 4.109375 -6.078125 4.726562 -5.941406 5.28125 -5.671875 L 4.796875 -4.421875 C 4.546875 -4.523438 4.304688 -4.609375 4.078125 -4.671875 C 3.859375 -4.734375 3.640625 -4.765625 3.421875 -4.765625 C 2.578125 -4.765625 2.15625 -4.164062 2.15625 -2.96875 C 2.15625 -1.800781 2.578125 -1.21875 3.421875 -1.21875 C 3.734375 -1.21875 4.019531 -1.257812 4.28125 -1.34375 C 4.550781 -1.425781 4.820312 -1.554688 5.09375 -1.734375 L 5.09375 -0.34375 C 4.832031 -0.164062 4.566406 -0.046875 4.296875 0.015625 C 4.023438 0.078125 3.6875 0.109375 3.28125 0.109375 Z M 3.28125 0.109375 "/></g></g><g transform="translate(254.823308, 94.708769)"><g><path d="M 3.375 -1.1875 C 3.65625 -1.1875 3.992188 -1.25 4.390625 -1.375 L 4.390625 -0.171875 C 3.984375 0.015625 3.488281 0.109375 2.90625 0.109375 C 2.25 0.109375 1.769531 -0.0507812 1.46875 -0.375 C 1.175781 -0.707031 1.03125 -1.207031 1.03125 -1.875 L 1.03125 -4.75 L 0.25 -4.75 L 0.25 -5.4375 L 1.140625 -5.984375 L 1.625 -7.234375 L 2.65625 -7.234375 L 2.65625 -5.96875 L 4.328125 -5.96875 L 4.328125 -4.75 L 2.65625 -4.75 L 2.65625 -1.875 C 2.65625 -1.632812 2.71875 -1.457031 2.84375 -1.34375 C 2.976562 -1.238281 3.15625 -1.1875 3.375 -1.1875 Z M 3.375 -1.1875 "/></g></g><g transform="translate(259.573873, 94.708769)"><g><path d="M 4.640625 0 L 4.328125 -0.8125 L 4.28125 -0.8125 C 4.007812 -0.46875 3.726562 -0.226562 3.4375 -0.09375 C 3.144531 0.0390625 2.769531 0.109375 2.3125 0.109375 C 1.738281 0.109375 1.285156 -0.0507812 0.953125 -0.375 C 0.617188 -0.707031 0.453125 -1.175781 0.453125 -1.78125 C 0.453125 -2.414062 0.675781 -2.882812 1.125 -3.1875 C 1.570312 -3.488281 2.238281 -3.65625 3.125 -3.6875 L 4.171875 -3.71875 L 4.171875 -3.984375 C 4.171875 -4.585938 3.859375 -4.890625 3.234375 -4.890625 C 2.753906 -4.890625 2.191406 -4.742188 1.546875 -4.453125 L 1.015625 -5.546875 C 1.703125 -5.910156 2.460938 -6.09375 3.296875 -6.09375 C 4.097656 -6.09375 4.710938 -5.914062 5.140625 -5.5625 C 5.566406 -5.21875 5.78125 -4.691406 5.78125 -3.984375 L 5.78125 0 Z M 4.171875 -2.765625 L 3.53125 -2.75 C 3.0625 -2.726562 2.707031 -2.640625 2.46875 -2.484375 C 2.238281 -2.328125 2.125 -2.085938 2.125 -1.765625 C 2.125 -1.304688 2.390625 -1.078125 2.921875 -1.078125 C 3.296875 -1.078125 3.597656 -1.1875 3.828125 -1.40625 C 4.054688 -1.625 4.171875 -1.914062 4.171875 -2.28125 Z M 4.171875 -2.765625 "/></g></g><g transform="translate(266.18405, 94.708769)"><g><path d="M 3.375 -1.1875 C 3.65625 -1.1875 3.992188 -1.25 4.390625 -1.375 L 4.390625 -0.171875 C 3.984375 0.015625 3.488281 0.109375 2.90625 0.109375 C 2.25 0.109375 1.769531 -0.0507812 1.46875 -0.375 C 1.175781 -0.707031 1.03125 -1.207031 1.03125 -1.875 L 1.03125 -4.75 L 0.25 -4.75 L 0.25 -5.4375 L 1.140625 -5.984375 L 1.625 -7.234375 L 2.65625 -7.234375 L 2.65625 -5.96875 L 4.328125 -5.96875 L 4.328125 -4.75 L 2.65625 -4.75 L 2.65625 -1.875 C 2.65625 -1.632812 2.71875 -1.457031 2.84375 -1.34375 C 2.976562 -1.238281 3.15625 -1.1875 3.375 -1.1875 Z M 3.375 -1.1875 "/></g></g><g transform="translate(270.934614, 94.708769)"><g><path d="M 2.15625 -3 C 2.15625 -2.40625 2.25 -1.957031 2.4375 -1.65625 C 2.632812 -1.351562 2.953125 -1.203125 3.390625 -1.203125 C 3.828125 -1.203125 4.140625 -1.351562 4.328125 -1.65625 C 4.515625 -1.957031 4.609375 -2.40625 4.609375 -3 C 4.609375 -3.582031 4.507812 -4.019531 4.3125 -4.3125 C 4.125 -4.613281 3.8125 -4.765625 3.375 -4.765625 C 2.945312 -4.765625 2.632812 -4.617188 2.4375 -4.328125 C 2.25 -4.035156 2.15625 -3.59375 2.15625 -3 Z M 6.28125 -3 C 6.28125 -2.019531 6.023438 -1.253906 5.515625 -0.703125 C 5.003906 -0.160156 4.289062 0.109375 3.375 0.109375 C 2.800781 0.109375 2.296875 -0.015625 1.859375 -0.265625 C 1.421875 -0.515625 1.082031 -0.875 0.84375 -1.34375 C 0.601562 -1.820312 0.484375 -2.375 0.484375 -3 C 0.484375 -3.96875 0.738281 -4.722656 1.25 -5.265625 C 1.757812 -5.804688 2.476562 -6.078125 3.40625 -6.078125 C 3.976562 -6.078125 4.484375 -5.953125 4.921875 -5.703125 C 5.359375 -5.453125 5.691406 -5.09375 5.921875 -4.625 C 6.160156 -4.164062 6.28125 -3.625 6.28125 -3 Z M 6.28125 -3 "/></g></g><g transform="translate(277.710447, 94.708769)"><g><path d="M 4.1875 -6.078125 C 4.40625 -6.078125 4.585938 -6.0625 4.734375 -6.03125 L 4.609375 -4.5 C 4.484375 -4.539062 4.328125 -4.5625 4.140625 -4.5625 C 3.617188 -4.5625 3.210938 -4.425781 2.921875 -4.15625 C 2.628906 -3.894531 2.484375 -3.519531 2.484375 -3.03125 L 2.484375 0 L 0.859375 0 L 0.859375 -5.96875 L 2.09375 -5.96875 L 2.328125 -4.96875 L 2.40625 -4.96875 C 2.59375 -5.300781 2.84375 -5.566406 3.15625 -5.765625 C 3.46875 -5.972656 3.8125 -6.078125 4.1875 -6.078125 Z M 4.1875 -6.078125 "/></g></g><g transform="translate(282.680104, 94.708769)"><g><path d="M 5.015625 -1.765625 C 5.015625 -1.160156 4.800781 -0.695312 4.375 -0.375 C 3.957031 -0.0507812 3.320312 0.109375 2.46875 0.109375 C 2.039062 0.109375 1.671875 0.078125 1.359375 0.015625 C 1.054688 -0.0351562 0.769531 -0.117188 0.5 -0.234375 L 0.5 -1.59375 C 0.800781 -1.445312 1.140625 -1.320312 1.515625 -1.21875 C 1.898438 -1.125 2.238281 -1.078125 2.53125 -1.078125 C 3.113281 -1.078125 3.40625 -1.25 3.40625 -1.59375 C 3.40625 -1.726562 3.363281 -1.832031 3.28125 -1.90625 C 3.207031 -1.988281 3.070312 -2.078125 2.875 -2.171875 C 2.6875 -2.273438 2.4375 -2.394531 2.125 -2.53125 C 1.664062 -2.726562 1.328125 -2.90625 1.109375 -3.0625 C 0.890625 -3.226562 0.726562 -3.414062 0.625 -3.625 C 0.53125 -3.84375 0.484375 -4.109375 0.484375 -4.421875 C 0.484375 -4.953125 0.6875 -5.359375 1.09375 -5.640625 C 1.507812 -5.929688 2.097656 -6.078125 2.859375 -6.078125 C 3.578125 -6.078125 4.273438 -5.921875 4.953125 -5.609375 L 4.46875 -4.4375 C 4.164062 -4.5625 3.882812 -4.664062 3.625 -4.75 C 3.363281 -4.832031 3.097656 -4.875 2.828125 -4.875 C 2.347656 -4.875 2.109375 -4.742188 2.109375 -4.484375 C 2.109375 -4.335938 2.1875 -4.210938 2.34375 -4.109375 C 2.5 -4.003906 2.835938 -3.84375 3.359375 -3.625 C 3.828125 -3.4375 4.164062 -3.257812 4.375 -3.09375 C 4.59375 -2.9375 4.753906 -2.75 4.859375 -2.53125 C 4.960938 -2.320312 5.015625 -2.066406 5.015625 -1.765625 Z M 5.015625 -1.765625 "/></g></g></g></svg>