<svg xmlns="http://www.w3.org/2000/svg" viewBox="0 0 161.22 161.22"><defs><style>.cls-1{fill:#f8edc6;stroke:#dab087;stroke-miterlimit:10;stroke-width:2px;}</style></defs><title>Nuke Logo</title><g id="Layer_2" data-name="Layer 2"><g id="Layer_1-2" data-name="Layer 1"><path class="cls-1" d="M84.46,160.22H76.79a8.7,8.7,0,0,0-.87-.13,81.55,81.55,0,0,1-15.67-2.54A79.61,79.61,0,0,1,1.4,88.45c-.16-1.58-.27-3.17-.4-4.75V77.5c0-.26.09-.52.11-.78A77.07,77.07,0,0,1,4.44,57.47,79.62,79.62,0,0,1,74.62,1.24a78.06,78.06,0,0,1,22.56,1.5,79.66,79.66,0,0,1,62.71,85.17,76.78,76.78,0,0,1-5.71,23.14A79.66,79.66,0,0,1,89,159.77C87.48,159.94,86,160.07,84.46,160.22Zm30.75-62.7-1,.35a17.05,17.05,0,1,0,5.73-1,1.25,1.25,0,0,1-1.27-.73q-11.56-20.52-23.16-41c-.13-.23-.27-.45-.43-.71L91.9,56.28C99.69,70.06,107.44,83.76,115.21,97.52ZM72.05,49.45c3.91,1.86,6.58,2.37,10.21,2A17,17,0,1,0,76,18.15,16,16,0,0,0,63.9,30.23c-1.65,6.33,0,12,4.67,16.59.44.44.29.71.07,1.12L47.48,86.72c-.3.55-.59,1.11-.9,1.69l3.26,1.77C57.25,76.58,64.64,63,72.05,49.45ZM97.24,112H57.58A17.07,17.07,0,0,0,38.73,97a17,17,0,0,0-1.4,33.56,16.45,16.45,0,0,0,11.73-1.94,17,17,0,0,0,8.51-12.91H97.24ZM95.39,78a3.77,3.77,0,0,0-7.54,0,3.77,3.77,0,1,0,7.54,0ZM80.28,87.4A3.66,3.66,0,0,0,84,83.63a3.71,3.71,0,0,0-3.73-3.74,3.77,3.77,0,0,0-3.78,3.79A3.72,3.72,0,0,0,80.28,87.4ZM84,96.88a3.71,3.71,0,0,0-3.71-3.77A3.77,3.77,0,1,0,84,96.88Zm0-26.45a3.72,3.72,0,0,0-3.72-3.76A3.78,3.78,0,1,0,84,70.43ZM91.55,95a3.77,3.77,0,1,0,.14-7.53A3.77,3.77,0,1,0,91.55,95ZM72.73,78A3.78,3.78,0,0,0,65.17,78a3.78,3.78,0,1,0,7.56.07ZM68.9,95A3.77,3.77,0,1,0,69,87.44,3.77,3.77,0,1,0,68.9,95Z" transform="translate(0 0)"/></g></g></svg>