<svg xmlns="http://www.w3.org/2000/svg" xmlns:xlink="http://www.w3.org/1999/xlink" width="1024" zoomAndPan="magnify" viewBox="0 0 768 767.999994" height="1024" preserveAspectRatio="xMidYMid meet" version="1.0"><defs><clipPath id="id1"><path d="M 0 81 L 768 81 L 768 703.984375 L 0 703.984375 Z M 0 81 " clip-rule="nonzero"/></clipPath></defs><g clip-path="url(#id1)"><path fill="#ffffff" d="M 688.683594 236.152344 C 689.144531 242.910156 689.144531 249.671875 689.144531 256.480469 C 689.144531 464.289062 531 703.9375 241.84375 703.9375 L 241.84375 703.8125 C 156.417969 703.953125 72.773438 679.484375 0.867188 633.324219 C 13.28125 634.8125 25.769531 635.5625 38.289062 635.59375 C 109.078125 635.652344 177.84375 611.890625 233.535156 568.136719 C 166.257812 566.863281 107.269531 522.988281 86.65625 458.921875 C 110.226562 463.476562 134.503906 462.539062 157.628906 456.207031 C 84.28125 441.382812 31.515625 376.917969 31.515625 302.058594 C 31.515625 301.367188 31.515625 300.722656 31.515625 300.066406 C 53.371094 312.238281 77.84375 319 102.871094 319.75 C 33.800781 273.589844 12.511719 181.664062 54.230469 109.78125 C 134.042969 208.035156 251.804688 267.761719 378.222656 274.078125 C 365.546875 219.457031 382.867188 162.226562 423.707031 123.824219 C 487.03125 64.277344 586.617188 67.328125 646.140625 130.644531 C 681.34375 123.699219 715.089844 110.777344 745.96875 92.472656 C 734.230469 128.882812 709.679688 159.804688 676.867188 179.441406 C 708.023438 175.761719 738.476562 167.421875 767.148438 154.683594 C 746.03125 186.328125 719.441406 213.890625 688.683594 236.152344 Z M 688.683594 236.152344 " fill-opacity="1" fill-rule="nonzero"/></g></svg>