<svg xmlns="http://www.w3.org/2000/svg" viewBox="0 0 73.52 70.66"><defs><style>.cls-1{opacity:0.2;}.cls-2{fill:#dab087;}</style></defs><title>website</title><g id="Layer_2" data-name="Layer 2"><g id="Layer_1-2" data-name="Layer 1"><g class="cls-1"><path d="M39.07,1.71a34.48,34.48,0,1,1-34.51,35A34.46,34.46,0,0,1,39.07,1.71ZM22.68,50.14A42.62,42.62,0,0,1,20.31,37.9H8a31.08,31.08,0,0,0,6,16.73A46.19,46.19,0,0,1,22.68,50.14Zm41.41,4.49a30.34,30.34,0,0,0,6-16.73H58.24a42.41,42.41,0,0,1-2.41,12.4A46.75,46.75,0,0,1,64.09,54.63ZM8,34.47H20.31a43.14,43.14,0,0,1,2-11.38,46.5,46.5,0,0,1-8.85-4.68A31.06,31.06,0,0,0,8,34.47ZM56.2,22.9c.46,2,1,3.83,1.34,5.75s.55,3.88.81,5.82H70.11a31,31,0,0,0-5.53-16.06A46.11,46.11,0,0,1,56.2,22.9ZM52.66,49.18a39.26,39.26,0,0,0,2.21-11.29H40.76v9.24A45.07,45.07,0,0,1,52.66,49.18Zm-26.8-.13a45,45,0,0,1,11.47-1.92V37.89H23.69A39.09,39.09,0,0,0,25.86,49.05Zm27.07-25a45.94,45.94,0,0,1-12.17,2.14v8.25H54.87A39.16,39.16,0,0,0,52.93,24.09Zm-27.43.22a39,39,0,0,0-1.81,10.16H37.33V26.33c-2-.24-4-.41-5.95-.74S27.5,24.75,25.5,24.31Zm26.25-3.38A49.86,49.86,0,0,0,40.75,5V22.85A41.64,41.64,0,0,0,51.75,20.93ZM37.33,22.86V5.29A49.91,49.91,0,0,0,26.69,21,41.84,41.84,0,0,0,37.33,22.86Zm3.42,44.35.13.08A49.84,49.84,0,0,0,51.39,52.35a39.38,39.38,0,0,0-10.64-1.82Zm-13.65-15A50.39,50.39,0,0,0,37.33,67V50.5A41.92,41.92,0,0,0,27.1,52.19ZM32.18,5.86a30.91,30.91,0,0,0-16.6,9.88,42,42,0,0,0,7.93,4.18A52.87,52.87,0,0,1,32.18,5.86ZM46.27,6A52.59,52.59,0,0,1,54.9,19.74a35.65,35.65,0,0,0,7.58-4A30.85,30.85,0,0,0,46.27,6ZM16.15,57.27a30.87,30.87,0,0,0,16.11,9.25A53.2,53.2,0,0,1,23.91,53.3,38.75,38.75,0,0,0,16.15,57.27Zm38.44-3.82a52.31,52.31,0,0,1-8.31,13A31.41,31.41,0,0,0,62,57.25,41,41,0,0,0,54.59,53.45Z"/></g><path class="cls-2" d="M34.51,0A34.48,34.48,0,1,1,0,35.05,34.47,34.47,0,0,1,34.51,0ZM18.12,48.44a42.62,42.62,0,0,1-2.37-12.25H3.41a31.08,31.08,0,0,0,6,16.73A45.57,45.57,0,0,1,18.12,48.44Zm41.41,4.48a30.34,30.34,0,0,0,6-16.73H53.69A43.14,43.14,0,0,1,51.28,48.6,46,46,0,0,1,59.53,52.92ZM3.42,32.76H15.75a43.21,43.21,0,0,1,2-11.38A45.94,45.94,0,0,1,8.94,16.7,31,31,0,0,0,3.42,32.76ZM51.64,21.19c.46,1.95,1,3.84,1.34,5.75s.55,3.88.81,5.82H65.55A31,31,0,0,0,60,16.7,45.3,45.3,0,0,1,51.64,21.19ZM48.1,47.47a39.26,39.26,0,0,0,2.21-11.28H36.2v9.24A45.47,45.47,0,0,1,48.1,47.47Zm-26.8-.13a45.44,45.44,0,0,1,11.47-1.92V36.19H19.13A39.37,39.37,0,0,0,21.3,47.34Zm27.07-25A45.53,45.53,0,0,1,36.2,24.52v8.25H50.31A39.16,39.16,0,0,0,48.37,22.39Zm-27.43.21a39,39,0,0,0-1.81,10.17H32.77V24.62c-2-.24-4-.41-6-.74S22.94,23,20.94,22.6Zm26.25-3.37a49.86,49.86,0,0,0-11-15.9V21.15A42,42,0,0,0,47.19,19.23ZM32.77,21.15V3.58A49.83,49.83,0,0,0,22.14,19.33,41.77,41.77,0,0,0,32.77,21.15ZM36.19,65.5l.13.08A50,50,0,0,0,46.84,50.65a39.14,39.14,0,0,0-10.65-1.83Zm-13.65-15a50.48,50.48,0,0,0,10.23,14.8V48.79A41.93,41.93,0,0,0,22.54,50.49ZM27.62,4.16A30.89,30.89,0,0,0,11,14,42.67,42.67,0,0,0,19,18.22,52.87,52.87,0,0,1,27.62,4.16Zm14.09.08A52.78,52.78,0,0,1,50.35,18a36.31,36.31,0,0,0,7.57-4A30.91,30.91,0,0,0,41.71,4.24ZM11.59,55.56A30.8,30.8,0,0,0,27.7,64.81a53.2,53.2,0,0,1-8.35-13.22A38.75,38.75,0,0,0,11.59,55.56ZM50,51.74a52.31,52.31,0,0,1-8.31,13,31.27,31.27,0,0,0,15.67-9.21A41.66,41.66,0,0,0,50,51.74Z"/></g></g></svg>