<svg xmlns="http://www.w3.org/2000/svg" xmlns:xlink="http://www.w3.org/1999/xlink" width="1024" zoomAndPan="magnify" viewBox="0 0 768 767.999994" height="1024" preserveAspectRatio="xMidYMid meet" version="1.0"><defs><clipPath id="id1"><path d="M 15.285156 193.71875 L 757.753906 193.71875 L 757.753906 576.960938 L 15.285156 576.960938 Z M 15.285156 193.71875 " clip-rule="nonzero"/></clipPath></defs><g clip-path="url(#id1)"><path fill="#000000" d="M 643.832031 535.554688 C 649.363281 535.4375 653.082031 537.136719 658.824219 536.808594 C 655.960938 532.796875 650.851562 525.621094 648.203125 519.308594 C 647.445312 525.421875 645.644531 530.496094 643.832031 535.554688 Z M 284.613281 501.8125 C 284.679688 520.769531 284.824219 539.058594 292.734375 550.554688 C 295.210938 554.152344 300.394531 559.734375 304.605469 561.175781 C 311.792969 563.644531 323.746094 563.191406 333.96875 564.925781 C 344.492188 566.714844 355.019531 566.832031 364.578125 567.425781 C 378.605469 568.300781 395.585938 572.667969 398.941406 560.554688 C 383.648438 561.558594 373.296875 554.046875 365.828125 547.429688 C 353.785156 536.761719 351.246094 515.457031 350.207031 498.6875 C 333.144531 504.921875 304.875 506.101562 284.613281 501.8125 Z M 695.683594 521.183594 C 702.152344 521.613281 706.703125 520.128906 713.175781 520.558594 C 709.238281 515.335938 703.609375 506.386719 700.683594 498.0625 C 700.40625 507.164062 698.117188 514.246094 695.683594 521.183594 Z M 584.480469 503.0625 C 584.480469 527.367188 595.742188 555.566406 615.097656 554.929688 C 631.839844 554.378906 644.453125 528.519531 644.453125 504.316406 C 644.453125 480.332031 633.4375 449.980469 613.21875 451.820312 C 594.855469 453.496094 584.480469 480.929688 584.480469 503.0625 Z M 65.960938 449.324219 C 61.546875 453.511719 57.992188 450.792969 52.839844 453.070312 C 39.140625 459.136719 30.355469 482.042969 30.351562 503.0625 C 30.347656 524.738281 39.855469 550.824219 55.964844 554.304688 C 62.933594 555.808594 74.128906 553.683594 83.453125 553.679688 C 151.390625 553.667969 225.789062 553.175781 289.613281 554.304688 C 280.273438 542.398438 278.992188 522.4375 279.617188 500.566406 C 245.191406 492.507812 221.234375 473.976562 203.398438 449.324219 C 158.273438 451.132812 111.570312 449.113281 65.960938 449.324219 Z M 356.457031 496.8125 C 356.78125 510.191406 357.042969 524.535156 362.707031 534.933594 C 366.289062 541.519531 380.410156 552.457031 386.445312 553.679688 C 393.660156 555.140625 403.621094 553.683594 412.683594 553.679688 C 473.210938 553.667969 539.183594 553.6875 596.976562 553.679688 C 574.628906 535.574219 574.132812 477.390625 594.476562 455.570312 C 596.242188 453.675781 600.796875 451.140625 599.476562 449.945312 C 540.117188 449.125 477.753906 451.597656 420.804688 448.695312 C 405.367188 468.253906 384.640625 487.925781 356.457031 496.8125 Z M 628.839844 446.199219 C 626.199219 444.75 624.09375 445 622.589844 447.449219 C 633.742188 451.5 639.132812 461.3125 644.453125 471.195312 C 646.054688 458.835938 649.511719 448.339844 655.699219 440.574219 C 655.835938 439.789062 656.671875 439.296875 655.078125 439.324219 C 647.234375 442.519531 637.589844 443.914062 628.839844 446.199219 Z M 647.578125 483.691406 C 647.683594 487.324219 649.214844 490.980469 649.453125 494.3125 C 649.699219 497.738281 648.988281 501.273438 649.453125 504.9375 C 651.109375 518.042969 660.738281 537.964844 673.191406 537.429688 C 689.0625 536.75 699.46875 504.203125 696.933594 477.445312 C 695.230469 459.457031 687.058594 433.921875 670.695312 436.199219 C 657.578125 438.027344 647.023438 463.71875 647.578125 483.691406 Z M 701.929688 471.195312 C 701.929688 493.304688 710.554688 521.78125 728.167969 520.558594 C 741.058594 519.664062 749.5 498.390625 751.285156 479.316406 C 753.214844 458.621094 746.953125 435.5625 737.535156 426.824219 C 734.460938 423.972656 728.359375 422.304688 726.296875 422.453125 C 710.132812 423.609375 701.929688 450.363281 701.929688 471.195312 Z M 681.9375 433.074219 C 690.628906 438.339844 693.886719 449.035156 698.804688 458.070312 C 699.328125 442.140625 707.457031 430.476562 713.175781 421.828125 C 703.019531 425.832031 692.875 429.851562 681.9375 433.074219 Z M 633.210938 438.699219 C 643.972656 437.378906 651.457031 432.789062 662.574219 431.828125 C 655.289062 425.988281 650.195312 417.960938 646.332031 408.707031 C 643.953125 420.703125 639.546875 430.667969 633.210938 438.699219 Z M 686.933594 425.578125 C 695.535156 421.886719 704.328125 418.394531 713.175781 414.953125 C 705.976562 409.449219 702.914062 399.804688 698.804688 391.207031 C 698.332031 405.730469 691.289062 417.015625 686.933594 425.578125 Z M 432.050781 343.09375 C 445.359375 370.203125 438.804688 411.765625 428.300781 433.703125 C 426.703125 437.039062 424.117188 440.515625 424.554688 443.699219 C 482.023438 443.699219 539.5 443.699219 596.976562 443.699219 C 574.625 427.847656 571.882812 373.863281 588.855469 349.339844 C 591.046875 346.175781 595.140625 343.460938 594.476562 341.21875 C 540.125 341.21875 485.773438 341.21875 431.425781 341.21875 C 431.398438 342.078125 431.71875 342.589844 432.050781 343.09375 Z M 598.847656 438.074219 C 606.949219 445.179688 618.820312 444.671875 626.339844 438.074219 C 647.492188 419.515625 646.695312 363.164062 626.339844 345.59375 C 619.949219 340.074219 613.257812 340.292969 603.851562 342.464844 C 577.507812 356.679688 576.105469 418.117188 598.847656 438.074219 Z M 63.460938 339.34375 C 60.640625 342.144531 54.082031 341.207031 49.71875 342.464844 C 23.109375 357.4375 22.390625 418.480469 44.71875 438.074219 C 47.46875 440.488281 51.804688 442.441406 55.339844 443.074219 C 58.273438 443.597656 61.402344 442.269531 64.710938 442.449219 C 65.191406 442.476562 66.550781 444.0625 68.460938 444.324219 C 77.144531 445.496094 88.621094 443.699219 99.695312 443.699219 C 132.328125 443.691406 167.816406 443.703125 199.027344 443.699219 C 184.082031 421.492188 176.757812 369.855469 192.15625 339.34375 C 149.257812 339.34375 106.359375 339.34375 63.460938 339.34375 Z M 621.964844 336.84375 C 632.84375 341.378906 637.96875 351.664062 643.207031 361.835938 C 643.675781 350.222656 649.304688 340.445312 651.953125 333.09375 C 643.105469 335.496094 630.105469 333.738281 621.964844 336.84375 Z M 651.328125 346.839844 C 642.410156 370.269531 645.984375 428.699219 671.320312 428.078125 C 679.859375 427.863281 687.160156 417.1875 690.6875 407.453125 C 699.820312 382.242188 695.628906 327.347656 671.945312 327.46875 C 659.320312 327.535156 655.089844 336.953125 651.328125 346.839844 Z M 683.1875 326.21875 C 690.371094 332.160156 693.574219 342.074219 697.558594 351.214844 C 698.5625 337.226562 703.683594 327.347656 710.050781 318.722656 C 700.597656 320.71875 690.890625 322.464844 683.1875 326.21875 Z M 700.683594 373.085938 C 702.117188 392.835938 716.464844 428.355469 736.289062 409.957031 C 743.804688 402.976562 749.105469 386.71875 750.03125 369.960938 C 751.519531 343.082031 741.390625 311.238281 718.171875 318.097656 C 705.9375 328.289062 698.859375 348.039062 700.683594 373.085938 Z M 631.960938 324.34375 C 630.902344 326.191406 628.703125 328.15625 629.464844 329.96875 C 639.097656 328.890625 651.46875 328.246094 658.195312 326.21875 C 648.398438 321.445312 644.476562 310.785156 640.082031 300.597656 C 638.804688 309.902344 635.636719 317.929688 631.960938 324.34375 Z M 680.691406 320.597656 C 689.453125 318.113281 697.660156 315.074219 707.550781 313.722656 C 701.488281 306.878906 696.945312 298.503906 693.808594 288.726562 C 691.332031 301.242188 687.691406 312.601562 680.691406 320.597656 Z M 220.265625 306.847656 C 202.214844 325.789062 185.609375 356.21875 189.03125 393.082031 C 192.253906 427.792969 208.070312 452.121094 230.261719 470.566406 C 251.492188 488.214844 284.292969 501.453125 319.597656 498.6875 C 353.785156 496.011719 381.867188 483.140625 402.0625 462.445312 C 420.742188 443.304688 436.957031 413.953125 433.921875 376.835938 C 431.039062 341.496094 414.367188 316.367188 393.316406 298.722656 C 373.597656 282.199219 340.5625 267.070312 303.355469 269.980469 C 267.164062 272.808594 238.566406 287.644531 220.265625 306.847656 Z M 392.066406 234.359375 C 388.078125 234.441406 383.632812 235.839844 380.195312 235.609375 C 377.726562 235.445312 375.769531 233.570312 373.324219 233.734375 C 367.140625 234.160156 367.277344 235.546875 364.578125 239.359375 C 359.644531 246.335938 357.800781 260.929688 358.953125 272.480469 C 390.808594 285.191406 414.730469 305.84375 428.925781 336.21875 C 479.542969 333.316406 535.535156 335.792969 588.230469 334.96875 C 579.90625 325.511719 572.421875 310.308594 571.363281 291.226562 C 570.226562 270.617188 575.117188 253.304688 582.605469 242.484375 C 584.394531 239.902344 588.171875 237.746094 587.605469 234.359375 C 527.765625 235.265625 453.140625 233.160156 392.066406 234.359375 Z M 614.46875 234.988281 C 611.667969 233.667969 607.609375 232.839844 604.472656 233.113281 C 585.507812 234.757812 575.074219 265.523438 576.359375 288.726562 C 577.65625 312.078125 588.675781 342.089844 614.46875 334.96875 C 642.867188 320.640625 643.390625 248.59375 614.46875 234.988281 Z M 112.8125 234.359375 C 94.625 234.359375 75.855469 236.417969 59.089844 234.988281 C 55.554688 234.683594 51.996094 232.722656 48.46875 233.734375 C 31.914062 238.484375 23.191406 259.265625 22.230469 281.851562 C 21.332031 302.875 31.179688 334.617188 48.46875 336.21875 C 54.152344 336.742188 57.996094 333.855469 64.085938 333.09375 C 84.429688 330.554688 107.804688 333.09375 129.683594 333.09375 C 151.828125 333.09375 173.703125 332.578125 195.277344 333.71875 C 210.957031 302.535156 236.457031 281.175781 272.121094 269.980469 C 272.054688 264.007812 270.53125 257.148438 270.871094 250.609375 C 271.234375 243.574219 274.253906 237.253906 273.992188 234.359375 C 221.035156 234.359375 165.5 234.367188 112.8125 234.359375 Z M 665.695312 221.238281 C 664.800781 221.101562 663.996094 221.605469 663.199219 221.863281 C 639.875 229.460938 636.796875 276.777344 646.332031 302.472656 C 650.894531 314.773438 657.339844 326.214844 672.570312 321.222656 C 697.109375 306.296875 697.945312 226.1875 665.695312 221.238281 Z M 547 220.613281 C 510.722656 220.621094 474.21875 222.71875 441.421875 221.238281 C 418.164062 220.191406 396.636719 222.140625 378.324219 229.363281 C 441.433594 229.957031 518.582031 228.75 585.734375 228.738281 C 594.898438 228.734375 604.0625 227.089844 611.34375 228.113281 C 624.953125 230.023438 632.84375 246.503906 637.585938 257.480469 C 639.453125 245.597656 643.207031 233.679688 648.832031 226.238281 C 650.308594 224.277344 653.558594 222.621094 652.574219 220.613281 C 618.976562 220.617188 582.9375 220.609375 547 220.613281 Z M 206.523438 221.238281 C 178.777344 221.242188 150.84375 223.296875 126.558594 221.238281 C 112.933594 220.085938 101.757812 222.050781 92.824219 229.363281 C 143.667969 229.359375 202.410156 229.367188 254.625 229.363281 C 266.539062 229.359375 279.859375 231.710938 282.738281 224.988281 C 284.289062 224.585938 288.636719 221.277344 286.488281 221.238281 C 261.433594 221.238281 233.773438 221.238281 206.523438 221.238281 Z M 745.039062 263.105469 C 744.910156 243.050781 736.089844 212.953125 718.796875 214.363281 C 702.921875 215.660156 695.023438 244 695.054688 264.355469 C 695.097656 286.941406 703.644531 317.050781 726.917969 311.222656 C 738.363281 301.863281 745.175781 285.277344 745.039062 263.105469 Z M 521.386719 211.867188 C 494.578125 211.867188 468.152344 210.074219 448.917969 215.613281 C 508.046875 215.582031 581.324219 215.625 644.453125 215.613281 C 653.476562 215.613281 664.539062 214.859375 671.320312 216.863281 C 683.21875 220.386719 688.105469 236.984375 692.5625 247.484375 C 694.140625 235.214844 698.726562 223.757812 705.054688 216.863281 C 706.84375 214.910156 710.710938 213.472656 710.050781 211.242188 C 650.953125 212.332031 582.265625 211.859375 521.386719 211.867188 Z M 202.773438 210.617188 C 199.027344 212.699219 193.359375 212.859375 190.28125 215.613281 C 225.890625 215.613281 261.5 215.613281 297.105469 215.613281 C 299.34375 214.097656 302.527344 213.535156 304.605469 211.867188 C 271.0625 211.046875 234.238281 213.511719 202.773438 210.617188 Z M 360.828125 233.734375 C 374.511719 215.804688 406.800781 218.535156 433.921875 212.488281 C 447.902344 209.375 458.992188 205.039062 474.53125 206.242188 C 424.257812 197.167969 352.167969 200.222656 311.476562 215.613281 C 287.808594 224.566406 270.695312 237.710938 276.492188 268.730469 C 298.996094 261.863281 333.117188 263.5625 353.957031 270.605469 C 353.738281 254.382812 353.914062 242.804688 360.828125 233.734375 Z M 643.207031 543.054688 C 636.59375 549.046875 631.910156 558.652344 622.589844 561.175781 C 615.570312 563.082031 606.035156 561.179688 596.351562 561.175781 C 535.578125 561.175781 467.164062 561.179688 408.308594 561.175781 C 403.289062 582.65625 371.964844 576.816406 344.589844 574.300781 C 337.636719 573.660156 331.101562 572.171875 324.597656 571.175781 C 311.410156 569.15625 298.402344 570.175781 293.359375 561.175781 C 231.105469 560.574219 149.769531 561.808594 81.578125 561.804688 C 70.5625 561.800781 57.757812 562.5625 51.59375 560.554688 C 15.054688 548.652344 14.351562 466.121094 46.59375 448.070312 C 18.3125 433.800781 14.199219 374.484375 34.097656 347.464844 C 34.960938 346.292969 39.730469 341.484375 39.722656 341.21875 C 39.664062 339.449219 33.5625 336.304688 32.226562 334.96875 C 19.0625 321.800781 12.226562 295.054688 16.605469 268.730469 C 19.714844 250.046875 29.101562 230.832031 45.34375 226.863281 C 57.089844 223.992188 68.546875 231.382812 82.828125 227.488281 C 86.410156 226.511719 91.632812 220.640625 95.949219 218.738281 C 108.140625 213.359375 126.78125 213.734375 145.925781 213.738281 C 156.570312 213.742188 169.003906 215.933594 179.660156 213.738281 C 183.679688 212.914062 188.191406 208.21875 192.15625 206.867188 C 206.785156 201.875 235.824219 204.988281 258.375 204.992188 C 278.058594 204.992188 299.082031 207.035156 317.726562 204.992188 C 329.0625 203.75 339.679688 199.175781 350.207031 197.492188 C 377.054688 193.203125 402.667969 193.738281 434.546875 193.742188 C 454.132812 193.746094 475.1875 194.566406 484.527344 204.992188 C 554.214844 204.996094 618.480469 204.984375 688.1875 204.992188 C 697.996094 204.992188 708.597656 203.503906 716.925781 204.992188 C 719.578125 205.464844 720.785156 207.148438 723.171875 208.117188 C 725.449219 209.042969 728.121094 208.90625 730.042969 209.988281 C 755.066406 224.148438 756.535156 283.570312 740.664062 306.847656 C 739.878906 307.996094 735.648438 311.023438 735.664062 311.847656 C 735.691406 313.15625 746.972656 323.972656 748.160156 326.21875 C 760.714844 349.960938 758.835938 393.390625 743.164062 411.832031 C 741.789062 413.445312 736.921875 416.09375 736.914062 417.453125 C 736.910156 418.570312 748.8125 430.117188 750.03125 432.453125 C 759.515625 450.542969 760.652344 487.136719 751.285156 507.4375 C 748.125 514.289062 741.175781 524.429688 733.792969 526.808594 C 727.429688 528.855469 718.105469 528.386719 710.675781 528.683594 C 706.316406 528.859375 700.554688 527.257812 695.683594 528.683594 C 689.230469 530.574219 687.34375 541.105469 678.8125 543.679688 C 666.875 547.285156 655.144531 544.191406 643.207031 543.054688 " fill-opacity="1" fill-rule="evenodd"/></g><path fill="#701e1e" d="M 304.605469 211.867188 C 302.527344 213.539062 299.34375 214.101562 297.105469 215.617188 C 261.496094 215.617188 225.890625 215.617188 190.28125 215.617188 C 193.359375 212.863281 199.027344 212.703125 202.773438 210.617188 C 234.238281 213.515625 271.0625 211.046875 304.605469 211.867188 " fill-opacity="1" fill-rule="evenodd"/><path fill="#696c7f" d="M 711.300781 270.605469 C 714.832031 268.191406 714.472656 272.496094 718.171875 270.605469 C 717.160156 266.796875 715.726562 267.25 711.925781 266.230469 C 711.496094 267.632812 710.042969 269.359375 711.300781 270.605469 Z M 726.914062 311.222656 C 703.640625 317.054688 695.097656 286.941406 695.054688 264.355469 C 695.019531 244 702.917969 215.664062 718.796875 214.367188 C 736.089844 212.953125 744.914062 243.050781 745.039062 263.105469 C 745.171875 285.28125 738.359375 301.863281 726.914062 311.222656 " fill-opacity="1" fill-rule="evenodd"/><path fill="#701e1e" d="M 286.488281 221.238281 C 288.636719 221.277344 284.289062 224.585938 282.742188 224.988281 C 279.859375 231.710938 266.542969 229.359375 254.628906 229.363281 C 202.410156 229.367188 143.667969 229.359375 92.824219 229.363281 C 101.757812 222.050781 112.933594 220.082031 126.558594 221.238281 C 150.84375 223.296875 178.777344 221.238281 206.523438 221.238281 C 233.773438 221.234375 261.433594 221.238281 286.488281 221.238281 " fill-opacity="1" fill-rule="evenodd"/><path fill="#701e1e" d="M 652.574219 220.613281 C 653.558594 222.621094 650.308594 224.277344 648.828125 226.238281 C 643.203125 233.679688 639.453125 245.597656 637.585938 257.480469 C 632.84375 246.503906 624.953125 230.023438 611.347656 228.113281 C 604.0625 227.089844 594.898438 228.738281 585.734375 228.738281 C 518.582031 228.75 441.433594 229.960938 378.320312 229.363281 C 396.636719 222.140625 418.160156 220.191406 441.421875 221.238281 C 474.21875 222.71875 510.722656 220.621094 546.996094 220.613281 C 582.9375 220.609375 618.976562 220.621094 652.574219 220.613281 " fill-opacity="1" fill-rule="evenodd"/><path fill="#696c7f" d="M 661.324219 279.351562 C 661.324219 280.1875 661.324219 281.019531 661.324219 281.851562 C 664.34375 282.375 665.53125 281.0625 665.691406 278.726562 C 664.039062 278.734375 662.128906 278.492188 661.324219 279.351562 Z M 658.824219 278.726562 C 661.339844 277.914062 662.992188 276.226562 663.195312 273.101562 C 660.300781 271.035156 656.621094 275.695312 658.824219 278.726562 Z M 672.570312 321.222656 C 657.34375 326.214844 650.890625 314.773438 646.332031 302.472656 C 636.796875 276.777344 639.871094 229.460938 663.195312 221.863281 C 663.992188 221.605469 664.800781 221.101562 665.691406 221.238281 C 697.945312 226.1875 697.113281 306.296875 672.570312 321.222656 " fill-opacity="1" fill-rule="evenodd"/><path fill="#701e1e" d="M 273.992188 234.359375 C 274.253906 237.253906 271.234375 243.574219 270.871094 250.609375 C 270.53125 257.148438 272.054688 264.007812 272.121094 269.980469 C 236.460938 281.175781 210.957031 302.535156 195.277344 333.71875 C 173.703125 332.578125 151.828125 333.09375 129.683594 333.09375 C 107.804688 333.09375 84.429688 330.554688 64.085938 333.09375 C 57.996094 333.855469 54.15625 336.742188 48.46875 336.214844 C 31.179688 334.617188 21.332031 302.875 22.230469 281.851562 C 23.191406 259.265625 31.914062 238.488281 48.46875 233.734375 C 51.996094 232.722656 55.550781 234.683594 59.089844 234.984375 C 75.855469 236.414062 94.625 234.359375 112.816406 234.359375 C 165.5 234.363281 221.035156 234.359375 273.992188 234.359375 " fill-opacity="1" fill-rule="evenodd"/><path fill="#696c7f" d="M 601.972656 290.601562 C 604.574219 290.699219 605.820312 289.449219 605.722656 286.851562 C 603.300781 284.628906 599.753906 288.179688 601.972656 290.601562 Z M 596.351562 286.851562 C 599.414062 284.710938 603.148438 283.234375 603.222656 278.105469 C 598.390625 278.140625 592.949219 282.546875 596.351562 286.851562 Z M 614.46875 334.96875 C 588.675781 342.089844 577.65625 312.078125 576.359375 288.726562 C 575.074219 265.523438 585.503906 234.757812 604.472656 233.113281 C 607.609375 232.839844 611.664062 233.667969 614.46875 234.988281 C 643.386719 248.59375 642.867188 320.640625 614.46875 334.96875 " fill-opacity="1" fill-rule="evenodd"/><path fill="#701e1e" d="M 587.605469 234.359375 C 588.167969 237.746094 584.394531 239.902344 582.609375 242.484375 C 575.117188 253.304688 570.222656 270.617188 571.363281 291.226562 C 572.417969 310.308594 579.90625 325.511719 588.230469 334.96875 C 535.535156 335.792969 479.539062 333.316406 428.925781 336.21875 C 414.730469 305.84375 390.808594 285.191406 358.953125 272.480469 C 357.800781 260.929688 359.644531 246.335938 364.578125 239.359375 C 367.273438 235.546875 367.140625 234.160156 373.324219 233.734375 C 375.765625 233.570312 377.726562 235.445312 380.195312 235.609375 C 383.628906 235.839844 388.078125 234.441406 392.066406 234.359375 C 453.140625 233.160156 527.765625 235.265625 587.605469 234.359375 " fill-opacity="1" fill-rule="evenodd"/><path fill="#000000" d="M 711.925781 266.230469 C 715.730469 267.246094 717.160156 266.796875 718.171875 270.605469 C 714.472656 272.496094 714.832031 268.191406 711.300781 270.605469 C 710.046875 269.359375 711.5 267.628906 711.925781 266.230469 " fill-opacity="1" fill-rule="evenodd"/><path fill="#ffce00" d="M 234.011719 321.84375 C 218.386719 339.832031 206.453125 363.816406 209.648438 398.707031 C 214.691406 453.792969 260.714844 494.925781 321.472656 489.941406 C 351.714844 487.460938 373.34375 474.605469 389.570312 456.195312 C 405.664062 437.9375 417.773438 412.460938 415.183594 379.335938 C 412.773438 348.488281 397.1875 327.15625 380.195312 312.472656 C 361.933594 296.679688 336.488281 284.703125 302.734375 287.476562 C 272.089844 289.996094 248.921875 304.679688 234.011719 321.84375 Z M 303.355469 269.980469 C 340.5625 267.070312 373.601562 282.199219 393.316406 298.722656 C 414.371094 316.367188 431.039062 341.496094 433.925781 376.835938 C 436.957031 413.953125 420.742188 443.304688 402.0625 462.445312 C 381.871094 483.140625 353.785156 496.011719 319.601562 498.6875 C 284.296875 501.453125 251.492188 488.214844 230.265625 470.566406 C 208.074219 452.121094 192.253906 427.792969 189.03125 393.082031 C 185.609375 356.21875 202.21875 325.789062 220.269531 306.847656 C 238.570312 287.644531 267.164062 272.804688 303.355469 269.980469 " fill-opacity="1" fill-rule="evenodd"/><path fill="#000000" d="M 663.199219 273.105469 C 662.988281 276.226562 661.339844 277.914062 658.824219 278.730469 C 656.617188 275.695312 660.300781 271.035156 663.199219 273.105469 " fill-opacity="1" fill-rule="evenodd"/><path fill="#000000" d="M 603.222656 278.105469 C 603.148438 283.238281 599.414062 284.710938 596.351562 286.851562 C 592.945312 282.546875 598.390625 278.140625 603.222656 278.105469 " fill-opacity="1" fill-rule="evenodd"/><path fill="#000000" d="M 665.695312 278.730469 C 665.53125 281.0625 664.339844 282.375 661.320312 281.855469 C 661.320312 281.019531 661.320312 280.1875 661.320312 279.355469 C 662.125 278.492188 664.035156 278.734375 665.695312 278.730469 " fill-opacity="1" fill-rule="evenodd"/><path fill="#000000" d="M 605.726562 286.851562 C 605.824219 289.449219 604.578125 290.699219 601.976562 290.601562 C 599.753906 288.179688 603.300781 284.628906 605.726562 286.851562 " fill-opacity="1" fill-rule="evenodd"/><path fill="#000000" d="M 268.371094 302.472656 C 246.707031 313.191406 231.3125 329.203125 222.140625 350.589844 C 204.679688 391.328125 220.382812 436.875 244.632812 458.695312 C 263.085938 475.304688 286.785156 486.707031 315.226562 485.566406 C 362.667969 483.664062 399.414062 450.125 408.308594 406.832031 C 412.640625 385.75 409.011719 364.277344 399.5625 345.589844 C 384.65625 316.105469 351.484375 288.671875 305.230469 292.472656 C 290.066406 293.722656 279.050781 297.191406 268.371094 302.472656 Z M 302.730469 287.476562 C 336.488281 284.703125 361.933594 296.679688 380.199219 312.472656 C 397.1875 327.160156 412.773438 348.488281 415.183594 379.335938 C 417.773438 412.464844 405.664062 437.9375 389.566406 456.195312 C 373.34375 474.605469 351.71875 487.460938 321.472656 489.941406 C 260.714844 494.925781 214.691406 453.792969 209.648438 398.707031 C 206.453125 363.820312 218.386719 339.832031 234.011719 321.84375 C 248.921875 304.679688 272.089844 289.996094 302.730469 287.476562 " fill-opacity="1" fill-rule="evenodd"/><path fill="#701e1e" d="M 693.808594 288.726562 C 696.945312 298.503906 701.484375 306.878906 707.550781 313.722656 C 697.660156 315.074219 689.453125 318.117188 680.6875 320.597656 C 687.691406 312.601562 691.328125 301.242188 693.808594 288.726562 " fill-opacity="1" fill-rule="evenodd"/><path fill="#f7f6eb" d="M 303.355469 468.070312 C 304.984375 476.125 323.171875 476.597656 319.601562 462.445312 C 314.140625 455.527344 301.429688 458.53125 303.355469 468.070312 Z M 257.75 451.820312 C 266.296875 451.042969 267.296875 431.808594 255.253906 436.199219 C 248.359375 438.710938 248.472656 452.667969 257.75 451.820312 Z M 367.703125 441.824219 C 376.023438 440.132812 374.851562 422.632812 362.082031 427.453125 C 352.664062 431.003906 358.976562 443.597656 367.703125 441.824219 Z M 224.015625 391.832031 C 224.996094 403.191406 246.085938 398.148438 240.261719 386.210938 C 239.574219 384.808594 236.375 381.582031 230.886719 383.082031 C 227.324219 384.058594 223.570312 386.644531 224.015625 391.832031 Z M 380.199219 389.332031 C 384.695312 398.625 403.085938 391.515625 394.570312 381.207031 C 387.859375 378.03125 378.25 378.824219 380.199219 389.332031 Z M 340.214844 356.214844 C 334.75 359.003906 329.753906 363.253906 322.097656 368.710938 C 315.71875 373.257812 306.480469 377.257812 303.355469 380.585938 C 295.566406 388.882812 300.847656 401.765625 309.601562 406.832031 C 312.726562 406.832031 315.851562 406.832031 318.976562 406.832031 C 335.292969 397.515625 342.085938 375.390625 346.460938 356.214844 C 344.160156 353.5625 341.527344 355.542969 340.214844 356.214844 Z M 243.382812 344.964844 C 250.074219 357.371094 267.050781 334.601562 251.503906 334.34375 C 245.15625 334.238281 240.015625 338.71875 243.382812 344.964844 Z M 373.324219 344.339844 C 379.179688 341.28125 378.113281 331.480469 372.703125 331.21875 C 372.152344 331.191406 371.53125 331.839844 371.449219 331.84375 C 356.742188 332.15625 363.40625 349.527344 373.324219 344.339844 Z M 302.109375 315.59375 C 303.375 325.023438 321.515625 324.871094 320.851562 313.097656 C 320.570312 308.203125 317.316406 304.128906 310.230469 305.597656 C 305.609375 306.554688 301.300781 309.597656 302.109375 315.59375 Z M 305.230469 292.472656 C 351.484375 288.671875 384.65625 316.101562 399.5625 345.589844 C 409.011719 364.273438 412.644531 385.75 408.3125 406.832031 C 399.414062 450.125 362.667969 483.664062 315.226562 485.566406 C 286.785156 486.707031 263.085938 475.304688 244.632812 458.695312 C 220.386719 436.875 204.679688 391.328125 222.140625 350.589844 C 231.3125 329.203125 246.710938 313.1875 268.371094 302.472656 C 279.050781 297.191406 290.070312 293.71875 305.230469 292.472656 " fill-opacity="1" fill-rule="evenodd"/><path fill="#701e1e" d="M 640.082031 300.601562 C 644.472656 310.789062 648.394531 321.445312 658.195312 326.21875 C 651.464844 328.246094 639.097656 328.890625 629.460938 329.96875 C 628.699219 328.160156 630.902344 326.191406 631.957031 324.34375 C 635.632812 317.929688 638.804688 309.902344 640.082031 300.601562 " fill-opacity="1" fill-rule="evenodd"/><path fill="#000000" d="M 307.101562 315.597656 C 309.105469 316.511719 310.792969 317.738281 313.976562 317.472656 C 316.234375 315.691406 316.234375 311.75 313.976562 309.972656 C 309.210938 309.371094 307.046875 311.371094 307.101562 315.597656 Z M 310.226562 305.597656 C 317.316406 304.132812 320.570312 308.207031 320.847656 313.097656 C 321.515625 324.871094 303.371094 325.023438 302.105469 315.597656 C 301.300781 309.601562 305.609375 306.554688 310.226562 305.597656 " fill-opacity="1" fill-rule="evenodd"/><path fill="#ffce00" d="M 313.976562 309.972656 C 316.234375 311.75 316.234375 315.691406 313.976562 317.472656 C 310.792969 317.738281 309.105469 316.511719 307.101562 315.597656 C 307.046875 311.371094 309.210938 309.371094 313.976562 309.972656 " fill-opacity="1" fill-rule="evenodd"/><path fill="#696c7f" d="M 719.425781 366.210938 C 720.390625 364.933594 720.390625 360.617188 719.425781 359.335938 C 718.589844 359.335938 717.757812 359.335938 716.925781 359.335938 C 715.65625 362.035156 716.207031 366.15625 719.425781 366.210938 Z M 726.917969 364.960938 C 728.1875 362.917969 727.648438 358.242188 726.292969 356.839844 C 721.273438 356.617188 723.046875 365.191406 726.917969 364.960938 Z M 718.171875 318.09375 C 741.390625 311.238281 751.519531 343.082031 750.035156 369.960938 C 749.109375 386.714844 743.804688 402.976562 736.289062 409.957031 C 716.464844 428.355469 702.117188 392.835938 700.679688 373.085938 C 698.859375 348.039062 705.941406 328.289062 718.171875 318.09375 " fill-opacity="1" fill-rule="evenodd"/><path fill="#701e1e" d="M 710.050781 318.722656 C 703.683594 327.347656 698.5625 337.226562 697.558594 351.214844 C 693.570312 342.078125 690.367188 332.160156 683.183594 326.21875 C 690.886719 322.464844 700.597656 320.71875 710.050781 318.722656 " fill-opacity="1" fill-rule="evenodd"/><path fill="#696c7f" d="M 676.941406 375.585938 C 678.238281 374.105469 676.398438 371.972656 676.316406 369.960938 C 675.136719 370.101562 674.9375 369.257812 673.816406 369.335938 C 672.445312 371.65625 672.839844 376.75 676.941406 375.585938 Z M 669.445312 373.085938 C 671.234375 371.90625 671.472656 366.507812 668.199219 366.835938 C 666.15625 368.265625 666.6875 372.898438 669.445312 373.085938 Z M 671.945312 327.46875 C 695.628906 327.347656 699.820312 382.242188 690.6875 407.453125 C 687.15625 417.1875 679.859375 427.863281 671.316406 428.078125 C 645.980469 428.699219 642.410156 370.269531 651.328125 346.839844 C 655.089844 336.953125 659.320312 327.535156 671.945312 327.46875 " fill-opacity="1" fill-rule="evenodd"/><path fill="#000000" d="M 367.078125 338.71875 C 367.605469 340.0625 368.617188 340.925781 370.828125 340.59375 C 372.320312 339.796875 373.367188 338.554688 373.324219 336.21875 C 370.507812 336.316406 367.277344 336 367.078125 338.71875 Z M 371.449219 331.84375 C 371.53125 331.84375 372.148438 331.191406 372.699219 331.21875 C 378.109375 331.480469 379.179688 341.28125 373.324219 344.34375 C 363.402344 349.527344 356.738281 332.15625 371.449219 331.84375 " fill-opacity="1" fill-rule="evenodd"/><path fill="#000000" d="M 247.753906 342.464844 C 248.765625 343.40625 252.367188 343.40625 253.378906 342.464844 C 253.378906 341.21875 253.378906 339.96875 253.378906 338.71875 C 250.101562 338.566406 246.773438 338.359375 247.753906 342.464844 Z M 251.503906 334.34375 C 267.046875 334.601562 250.074219 357.371094 243.382812 344.96875 C 240.015625 338.722656 245.15625 334.238281 251.503906 334.34375 " fill-opacity="1" fill-rule="evenodd"/><path fill="#ffce00" d="M 373.320312 336.21875 C 373.367188 338.554688 372.320312 339.796875 370.824219 340.59375 C 368.613281 340.925781 367.605469 340.0625 367.078125 338.71875 C 367.273438 336 370.503906 336.316406 373.320312 336.21875 " fill-opacity="1" fill-rule="evenodd"/><path fill="#ffce00" d="M 253.378906 338.71875 C 253.378906 339.96875 253.378906 341.21875 253.378906 342.464844 C 252.367188 343.40625 248.765625 343.40625 247.753906 342.464844 C 246.773438 338.359375 250.101562 338.566406 253.378906 338.71875 " fill-opacity="1" fill-rule="evenodd"/><path fill="#701e1e" d="M 192.15625 339.34375 C 176.757812 369.851562 184.082031 421.492188 199.027344 443.699219 C 167.816406 443.703125 132.328125 443.691406 99.695312 443.699219 C 88.621094 443.699219 77.144531 445.496094 68.460938 444.324219 C 66.550781 444.066406 65.191406 442.476562 64.710938 442.449219 C 61.402344 442.269531 58.273438 443.601562 55.339844 443.074219 C 51.804688 442.441406 47.46875 440.488281 44.71875 438.074219 C 22.390625 418.480469 23.109375 357.4375 49.71875 342.464844 C 54.082031 341.210938 60.640625 342.144531 63.460938 339.34375 C 106.359375 339.34375 149.257812 339.34375 192.15625 339.34375 " fill-opacity="1" fill-rule="evenodd"/><path fill="#696c7f" d="M 620.71875 396.207031 C 620.449219 393.347656 619.355469 391.320312 616.34375 391.207031 C 614.113281 394.097656 617.738281 398.527344 620.71875 396.207031 Z M 610.71875 398.707031 C 612.636719 397.363281 611.441406 392.910156 610.09375 391.207031 C 603.832031 390.4375 606.488281 399.28125 610.71875 398.707031 Z M 603.851562 342.464844 C 613.257812 340.292969 619.949219 340.074219 626.339844 345.589844 C 646.695312 363.164062 647.496094 419.515625 626.339844 438.074219 C 618.816406 444.671875 606.949219 445.179688 598.851562 438.074219 C 576.105469 418.117188 577.511719 356.679688 603.851562 342.464844 " fill-opacity="1" fill-rule="evenodd"/><path fill="#701e1e" d="M 431.421875 341.21875 C 485.777344 341.21875 540.125 341.21875 594.476562 341.21875 C 595.140625 343.460938 591.042969 346.179688 588.851562 349.339844 C 571.878906 373.863281 574.625 427.847656 596.976562 443.699219 C 539.5 443.699219 482.023438 443.699219 424.550781 443.699219 C 424.117188 440.515625 426.699219 437.039062 428.300781 433.703125 C 438.804688 411.765625 445.359375 370.203125 432.050781 343.09375 C 431.71875 342.589844 431.398438 342.078125 431.421875 341.21875 " fill-opacity="1" fill-rule="evenodd"/><path fill="#000000" d="M 322.722656 374.335938 C 316.960938 378.066406 307.230469 382.117188 305.230469 386.210938 C 302.582031 391.632812 306.820312 398.359375 310.851562 401.832031 C 318.367188 402.683594 322.144531 400.027344 325.21875 396.207031 C 331.957031 387.84375 337.195312 371.1875 339.589844 362.464844 C 336.144531 365.546875 329.96875 369.644531 322.722656 374.335938 Z M 346.460938 356.214844 C 342.082031 375.390625 335.289062 397.515625 318.972656 406.832031 C 315.851562 406.832031 312.726562 406.832031 309.601562 406.832031 C 300.847656 401.765625 295.566406 388.882812 303.355469 380.585938 C 306.476562 377.261719 315.71875 373.257812 322.097656 368.710938 C 329.75 363.257812 334.746094 359.007812 340.214844 356.214844 C 341.523438 355.542969 344.160156 353.5625 346.460938 356.214844 " fill-opacity="1" fill-rule="evenodd"/><path fill="#000000" d="M 726.292969 356.839844 C 727.648438 358.242188 728.1875 362.917969 726.917969 364.964844 C 723.046875 365.191406 721.269531 356.617188 726.292969 356.839844 " fill-opacity="1" fill-rule="evenodd"/><path fill="#000000" d="M 716.921875 359.339844 C 717.753906 359.339844 718.585938 359.339844 719.421875 359.339844 C 720.390625 360.617188 720.390625 364.933594 719.421875 366.214844 C 716.207031 366.15625 715.65625 362.035156 716.921875 359.339844 " fill-opacity="1" fill-rule="evenodd"/><path fill="#000000" d="M 668.195312 366.839844 C 671.472656 366.507812 671.230469 371.90625 669.445312 373.085938 C 666.683594 372.898438 666.15625 368.269531 668.195312 366.839844 " fill-opacity="1" fill-rule="evenodd"/><path fill="#000000" d="M 673.816406 369.335938 C 674.941406 369.257812 675.136719 370.101562 676.320312 369.960938 C 676.402344 371.972656 678.238281 374.105469 676.941406 375.585938 C 672.839844 376.75 672.445312 371.65625 673.816406 369.335938 " fill-opacity="1" fill-rule="evenodd"/><path fill="#000000" d="M 384.570312 386.210938 C 384.902344 389.210938 387.917969 389.527344 391.441406 389.332031 C 391.941406 388.164062 392.484375 387.046875 392.691406 385.585938 C 390.566406 384.796875 387.726562 384.71875 385.820312 383.710938 C 385.808594 384.949219 384.113281 384.503906 384.570312 386.210938 Z M 394.566406 381.210938 C 403.082031 391.515625 384.691406 398.625 380.195312 389.332031 C 378.246094 378.824219 387.859375 378.03125 394.566406 381.210938 " fill-opacity="1" fill-rule="evenodd"/><path fill="#000000" d="M 229.011719 392.457031 C 230.65625 393.105469 232.847656 393.207031 235.261719 393.082031 C 235.757812 391.914062 236.304688 390.796875 236.511719 389.332031 C 234.363281 386.472656 228.652344 387.679688 229.011719 392.457031 Z M 230.886719 383.085938 C 236.371094 381.582031 239.574219 384.808594 240.257812 386.210938 C 246.085938 398.152344 224.992188 403.191406 224.015625 391.832031 C 223.570312 386.648438 227.324219 384.058594 230.886719 383.085938 " fill-opacity="1" fill-rule="evenodd"/><path fill="#ffce00" d="M 385.820312 383.710938 C 387.726562 384.71875 390.566406 384.796875 392.695312 385.585938 C 392.488281 387.046875 391.941406 388.164062 391.441406 389.332031 C 387.921875 389.523438 384.90625 389.210938 384.570312 386.210938 C 384.113281 384.503906 385.808594 384.949219 385.820312 383.710938 " fill-opacity="1" fill-rule="evenodd"/><path fill="#ffce00" d="M 236.511719 389.332031 C 236.304688 390.796875 235.757812 391.914062 235.261719 393.082031 C 232.847656 393.207031 230.65625 393.105469 229.011719 392.457031 C 228.652344 387.679688 234.363281 386.472656 236.511719 389.332031 " fill-opacity="1" fill-rule="evenodd"/><path fill="#000000" d="M 610.09375 391.207031 C 611.441406 392.910156 612.636719 397.363281 610.71875 398.707031 C 606.484375 399.28125 603.828125 390.4375 610.09375 391.207031 " fill-opacity="1" fill-rule="evenodd"/><path fill="#000000" d="M 616.34375 391.207031 C 619.355469 391.320312 620.453125 393.347656 620.714844 396.207031 C 617.738281 398.527344 614.113281 394.097656 616.34375 391.207031 " fill-opacity="1" fill-rule="evenodd"/><path fill="#701e1e" d="M 698.808594 391.207031 C 702.914062 399.804688 705.972656 409.449219 713.175781 414.953125 C 704.324219 418.390625 695.535156 421.886719 686.933594 425.578125 C 691.289062 417.015625 698.332031 405.730469 698.808594 391.207031 " fill-opacity="1" fill-rule="evenodd"/><path fill="#701e1e" d="M 646.328125 408.707031 C 650.191406 417.964844 655.289062 425.988281 662.570312 431.828125 C 651.457031 432.789062 643.964844 437.382812 633.210938 438.699219 C 639.546875 430.667969 643.953125 420.703125 646.328125 408.707031 " fill-opacity="1" fill-rule="evenodd"/><path fill="#701e1e" d="M 713.175781 421.828125 C 707.457031 430.476562 699.328125 442.136719 698.808594 458.070312 C 693.886719 449.035156 690.628906 438.339844 681.941406 433.074219 C 692.878906 429.851562 703.019531 425.832031 713.175781 421.828125 " fill-opacity="1" fill-rule="evenodd"/><path fill="#696c7f" d="M 723.167969 466.195312 C 724.789062 463.273438 723.101562 458.957031 720.667969 458.070312 C 717.734375 459.914062 718.980469 466.226562 723.167969 466.195312 Z M 714.425781 456.195312 C 712.402344 458.460938 712.886719 464.5 717.550781 463.695312 C 717.511719 460.1875 717.941406 456.222656 714.425781 456.195312 Z M 726.292969 422.453125 C 728.359375 422.304688 734.464844 423.972656 737.535156 426.824219 C 746.949219 435.5625 753.214844 458.621094 751.28125 479.320312 C 749.496094 498.390625 741.054688 519.664062 728.167969 520.558594 C 710.550781 521.78125 701.929688 493.304688 701.929688 471.195312 C 701.929688 450.363281 710.132812 423.609375 726.292969 422.453125 " fill-opacity="1" fill-rule="evenodd"/><path fill="#000000" d="M 362.707031 435.574219 C 363.800781 437.269531 367.851562 437.269531 368.953125 435.574219 C 368.953125 434.535156 368.953125 433.492188 368.953125 432.449219 C 366.796875 430.40625 361.378906 430.628906 362.707031 435.574219 Z M 362.082031 427.453125 C 374.851562 422.632812 376.023438 440.132812 367.703125 441.824219 C 358.976562 443.597656 352.664062 431.003906 362.082031 427.453125 " fill-opacity="1" fill-rule="evenodd"/><path fill="#ffce00" d="M 368.953125 432.449219 C 368.953125 433.492188 368.953125 434.535156 368.953125 435.574219 C 367.851562 437.269531 363.804688 437.269531 362.707031 435.574219 C 361.378906 430.628906 366.800781 430.40625 368.953125 432.449219 " fill-opacity="1" fill-rule="evenodd"/><path fill="#000000" d="M 255.253906 446.824219 C 259.328125 447.359375 260.617188 445.109375 260.875 441.824219 C 257.8125 438.058594 252.285156 442.734375 255.253906 446.824219 Z M 255.253906 436.199219 C 267.292969 431.808594 266.296875 451.042969 257.75 451.820312 C 248.472656 452.667969 248.359375 438.710938 255.253906 436.199219 " fill-opacity="1" fill-rule="evenodd"/><path fill="#696c7f" d="M 669.441406 487.441406 C 668.941406 493.414062 678.621094 491.402344 678.191406 486.816406 C 676.15625 486.214844 671.929688 486.65625 669.441406 487.441406 Z M 666.320312 481.195312 C 668.902344 480.445312 670.589844 478.796875 671.941406 476.820312 C 668.71875 473.238281 661.269531 478.324219 666.320312 481.195312 Z M 670.695312 436.199219 C 687.054688 433.921875 695.222656 459.457031 696.929688 477.445312 C 699.46875 504.207031 689.0625 536.75 673.191406 537.429688 C 660.738281 537.964844 651.109375 518.042969 649.453125 504.9375 C 648.984375 501.273438 649.695312 497.738281 649.453125 494.3125 C 649.214844 490.980469 647.679688 487.324219 647.578125 483.691406 C 647.019531 463.71875 657.574219 438.027344 670.695312 436.199219 " fill-opacity="1" fill-rule="evenodd"/><path fill="#701e1e" d="M 655.078125 439.324219 C 656.671875 439.296875 655.835938 439.789062 655.703125 440.574219 C 649.511719 448.339844 646.054688 458.835938 644.457031 471.195312 C 639.136719 461.3125 633.742188 451.5 622.589844 447.449219 C 624.09375 445 626.203125 444.75 628.835938 446.199219 C 637.59375 443.914062 647.234375 442.519531 655.078125 439.324219 " fill-opacity="1" fill-rule="evenodd"/><path fill="#ffce00" d="M 260.875 441.824219 C 260.617188 445.109375 259.328125 447.359375 255.253906 446.824219 C 252.285156 442.734375 257.8125 438.058594 260.875 441.824219 " fill-opacity="1" fill-rule="evenodd"/><path fill="#701e1e" d="M 420.804688 448.695312 C 477.753906 451.597656 540.117188 449.125 599.476562 449.945312 C 600.796875 451.140625 596.246094 453.675781 594.480469 455.570312 C 574.132812 477.390625 574.628906 535.574219 596.976562 553.679688 C 539.1875 553.6875 473.210938 553.667969 412.683594 553.679688 C 403.621094 553.683594 393.660156 555.140625 386.445312 553.679688 C 380.410156 552.457031 366.292969 541.519531 362.707031 534.933594 C 357.042969 524.535156 356.785156 510.191406 356.457031 496.8125 C 384.644531 487.925781 405.371094 468.253906 420.804688 448.695312 " fill-opacity="1" fill-rule="evenodd"/><path fill="#701e1e" d="M 203.398438 449.324219 C 221.234375 473.976562 245.1875 492.507812 279.617188 500.566406 C 278.992188 522.4375 280.273438 542.398438 289.613281 554.304688 C 225.789062 553.175781 151.390625 553.667969 83.453125 553.679688 C 74.128906 553.683594 62.933594 555.808594 55.964844 554.304688 C 39.855469 550.824219 30.347656 524.738281 30.351562 503.0625 C 30.355469 482.042969 39.140625 459.136719 52.839844 453.070312 C 57.992188 450.792969 61.546875 453.511719 65.960938 449.324219 C 111.570312 449.113281 158.273438 451.132812 203.398438 449.324219 " fill-opacity="1" fill-rule="evenodd"/><path fill="#696c7f" d="M 613.839844 511.8125 C 615.03125 507.925781 613.667969 502.28125 610.09375 501.191406 C 607.671875 504.1875 609.503906 511.640625 613.839844 511.8125 Z M 605.09375 509.3125 C 606.542969 506.183594 605.636719 500.039062 601.351562 500.566406 C 600.570312 503.210938 601.703125 508.8125 605.09375 509.3125 Z M 613.21875 451.820312 C 633.4375 449.980469 644.453125 480.332031 644.453125 504.316406 C 644.453125 528.519531 631.839844 554.378906 615.09375 554.929688 C 595.746094 555.566406 584.480469 527.367188 584.480469 503.0625 C 584.480469 480.929688 594.855469 453.496094 613.21875 451.820312 " fill-opacity="1" fill-rule="evenodd"/><path fill="#000000" d="M 717.550781 463.695312 C 712.890625 464.5 712.40625 458.460938 714.429688 456.195312 C 717.941406 456.222656 717.519531 460.183594 717.550781 463.695312 " fill-opacity="1" fill-rule="evenodd"/><path fill="#000000" d="M 308.355469 467.445312 C 311.359375 468.441406 315.46875 469.734375 315.226562 464.945312 C 312.429688 463.753906 307.800781 462.628906 308.355469 467.445312 Z M 319.597656 462.445312 C 323.171875 476.597656 304.984375 476.125 303.355469 468.070312 C 301.425781 458.53125 314.140625 455.53125 319.597656 462.445312 " fill-opacity="1" fill-rule="evenodd"/><path fill="#000000" d="M 720.671875 458.070312 C 723.101562 458.957031 724.789062 463.273438 723.167969 466.195312 C 718.980469 466.226562 717.734375 459.914062 720.671875 458.070312 " fill-opacity="1" fill-rule="evenodd"/><path fill="#ffce00" d="M 315.226562 464.945312 C 315.46875 469.734375 311.359375 468.441406 308.355469 467.445312 C 307.800781 462.628906 312.429688 463.753906 315.226562 464.945312 " fill-opacity="1" fill-rule="evenodd"/><path fill="#000000" d="M 671.941406 476.820312 C 670.585938 478.796875 668.902344 480.441406 666.320312 481.195312 C 661.273438 478.324219 668.714844 473.238281 671.941406 476.820312 " fill-opacity="1" fill-rule="evenodd"/><path fill="#000000" d="M 678.191406 486.816406 C 678.625 491.402344 668.941406 493.410156 669.445312 487.441406 C 671.925781 486.65625 676.15625 486.214844 678.191406 486.816406 " fill-opacity="1" fill-rule="evenodd"/><path fill="#701e1e" d="M 700.683594 498.066406 C 703.609375 506.386719 709.238281 515.335938 713.175781 520.558594 C 706.707031 520.128906 702.152344 521.613281 695.6875 521.183594 C 698.117188 514.25 700.410156 507.164062 700.683594 498.066406 " fill-opacity="1" fill-rule="evenodd"/><path fill="#ea2a2a" d="M 350.207031 498.6875 C 351.246094 515.457031 353.785156 536.761719 365.828125 547.429688 C 373.292969 554.046875 383.648438 561.558594 398.9375 560.554688 C 395.582031 572.667969 378.605469 568.300781 364.578125 567.425781 C 355.019531 566.832031 344.492188 566.714844 333.964844 564.925781 C 323.746094 563.191406 311.789062 563.644531 304.605469 561.175781 C 300.394531 559.734375 295.207031 554.152344 292.734375 550.554688 C 284.824219 539.058594 284.679688 520.769531 284.613281 501.8125 C 304.875 506.101562 333.144531 504.921875 350.207031 498.6875 " fill-opacity="1" fill-rule="evenodd"/><path fill="#000000" d="M 601.351562 500.566406 C 605.632812 500.039062 606.542969 506.183594 605.097656 509.3125 C 601.703125 508.8125 600.574219 503.210938 601.351562 500.566406 " fill-opacity="1" fill-rule="evenodd"/><path fill="#000000" d="M 610.09375 501.1875 C 613.664062 502.285156 615.03125 507.925781 613.84375 511.8125 C 609.5 511.640625 607.671875 504.1875 610.09375 501.1875 " fill-opacity="1" fill-rule="evenodd"/><path fill="#701e1e" d="M 648.203125 519.308594 C 650.847656 525.621094 655.957031 532.796875 658.820312 536.808594 C 653.082031 537.136719 649.363281 535.4375 643.828125 535.554688 C 645.640625 530.496094 647.445312 525.421875 648.203125 519.308594 " fill-opacity="1" fill-rule="evenodd"/><path fill="#ea2a2a" d="M 353.957031 270.605469 C 333.117188 263.5625 298.996094 261.863281 276.492188 268.730469 C 270.695312 237.710938 287.808594 224.566406 311.476562 215.613281 C 352.167969 200.222656 424.257812 197.167969 474.53125 206.242188 C 458.988281 205.039062 447.90625 209.375 433.921875 212.492188 C 406.800781 218.535156 374.511719 215.804688 360.828125 233.734375 C 353.914062 242.804688 353.738281 254.378906 353.957031 270.605469 " fill-opacity="1" fill-rule="evenodd"/><path fill="#701e1e" d="M 651.953125 333.09375 C 649.304688 340.445312 643.675781 350.226562 643.207031 361.839844 C 637.96875 351.664062 632.84375 341.378906 621.964844 336.84375 C 630.105469 333.738281 643.109375 335.496094 651.953125 333.09375 " fill-opacity="1" fill-rule="evenodd"/><path fill="#ffce00" d="M 339.589844 362.464844 C 337.195312 371.1875 331.957031 387.84375 325.21875 396.207031 C 322.144531 400.027344 318.367188 402.683594 310.851562 401.832031 C 306.820312 398.359375 302.582031 391.632812 305.230469 386.210938 C 307.230469 382.117188 316.960938 378.066406 322.722656 374.335938 C 329.96875 369.644531 336.144531 365.546875 339.589844 362.464844 " fill-opacity="1" fill-rule="evenodd"/><path fill="#701e1e" d="M 710.050781 211.242188 C 710.714844 213.46875 706.847656 214.910156 705.050781 216.863281 C 698.730469 223.757812 694.144531 235.214844 692.558594 247.484375 C 688.109375 236.984375 683.214844 220.382812 671.320312 216.863281 C 664.539062 214.855469 653.480469 215.613281 644.457031 215.613281 C 581.324219 215.625 508.050781 215.582031 448.917969 215.613281 C 468.152344 210.070312 494.582031 211.867188 521.386719 211.863281 C 582.265625 211.859375 650.957031 212.332031 710.050781 211.242188 " fill-opacity="1" fill-rule="evenodd"/></svg>